<?xml version="1.0" encoding="UTF-8"?> <svg xmlns="http://www.w3.org/2000/svg" width="82" height="41" viewBox="0 0 82 41" fill="none"><path d="M77.2264 20.832L81 16.6304L77.2264 12.4287M4.77358 12.4287L1 16.6304L4.77358 20.832" stroke="#0015B5" stroke-width="2" stroke-linecap="round" stroke-linejoin="round"></path><path d="M50.0574 1H33.4536C32.7867 1 32.2461 1.60197 32.2461 2.34453V28.3949C32.2461 29.1374 32.7867 29.7394 33.4536 29.7394H50.0574C50.7243 29.7394 51.265 29.1374 51.265 28.3949V2.34453C51.265 1.60197 50.7243 1 50.0574 1Z" fill="white" stroke="#0015B5" stroke-width="0.8"></path><path d="M44.7736 25.874H37.2264C36.8096 25.874 36.4717 26.2503 36.4717 26.7144C36.4717 27.1785 36.8096 27.5547 37.2264 27.5547H44.7736C45.1904 27.5547 45.5283 27.1785 45.5283 26.7144C45.5283 26.2503 45.1904 25.874 44.7736 25.874Z" fill="#0015B5"></path><path d="M48.5757 22.5127H34.9327C34.5319 22.5127 34.207 22.8889 34.207 23.353C34.207 23.8171 34.5319 24.1934 34.9327 24.1934H48.5757C48.9765 24.1934 49.3014 23.8171 49.3014 23.353C49.3014 22.8889 48.9765 22.5127 48.5757 22.5127Z" fill="#0015B5"></path><path d="M48.5757 19.1514H34.9327C34.5319 19.1514 34.207 19.5276 34.207 19.9917C34.207 20.4558 34.5319 20.832 34.9327 20.832H48.5757C48.9765 20.832 49.3014 20.4558 49.3014 19.9917C49.3014 19.5276 48.9765 19.1514 48.5757 19.1514Z" fill="#0015B5"></path><path d="M33.4533 1.00049H50.0571C50.7241 1.00049 51.2644 1.60208 51.2644 2.34469V16.2939H32.2461V2.34469C32.2461 1.60208 32.7864 1.00049 33.4533 1.00049Z" fill="#0015B5" stroke="#0015B5" stroke-width="0.8"></path><mask id="mask0_316_301" style="mask-type:luminance" maskUnits="userSpaceOnUse" x="36" y="3" width="12" height="12"><path d="M45.5283 3.18494H37.9811C37.1475 3.18494 36.4717 3.9374 36.4717 4.8656V13.2689C36.4717 14.1971 37.1475 14.9496 37.9811 14.9496H45.5283C46.3619 14.9496 47.0377 14.1971 47.0377 13.2689V4.8656C47.0377 3.9374 46.3619 3.18494 45.5283 3.18494Z" fill="white"></path></mask><g mask="url(#mask0_316_301)"><path d="M39.4905 3.18494C39.908 3.18494 40.2453 3.51351 40.2453 3.92023V4.65552H43.2641V3.92023C43.2641 3.51351 43.6014 3.18494 44.0188 3.18494C44.4363 3.18494 44.7736 3.51351 44.7736 3.92023V4.65552H45.5283C46.3608 4.65552 47.0377 5.31501 47.0377 6.1261V12.7437C47.0377 13.5548 46.3608 14.2143 45.5283 14.2143H37.9811C37.1486 14.2143 36.4717 13.5548 36.4717 12.7437V6.1261C36.4717 5.31501 37.1486 4.65552 37.9811 4.65552H38.7358V3.92023C38.7358 3.51351 39.0731 3.18494 39.4905 3.18494ZM37.9811 8.69963V9.43492C37.9811 9.6371 38.1509 9.80256 38.3585 9.80256H39.1132C39.3207 9.80256 39.4905 9.6371 39.4905 9.43492V8.69963C39.4905 8.49744 39.3207 8.33198 39.1132 8.33198H38.3585C38.1509 8.33198 37.9811 8.49744 37.9811 8.69963ZM41 8.69963V9.43492C41 9.6371 41.1698 9.80256 41.3773 9.80256H42.1321C42.3396 9.80256 42.5094 9.6371 42.5094 9.43492V8.69963C42.5094 8.49744 42.3396 8.33198 42.1321 8.33198H41.3773C41.1698 8.33198 41 8.49744 41 8.69963ZM44.3962 8.33198C44.1887 8.33198 44.0188 8.49744 44.0188 8.69963V9.43492C44.0188 9.6371 44.1887 9.80256 44.3962 9.80256H45.1509C45.3585 9.80256 45.5283 9.6371 45.5283 9.43492V8.69963C45.5283 8.49744 45.3585 8.33198 45.1509 8.33198H44.3962ZM37.9811 11.6408V12.3761C37.9811 12.5783 38.1509 12.7437 38.3585 12.7437H39.1132C39.3207 12.7437 39.4905 12.5783 39.4905 12.3761V11.6408C39.4905 11.4386 39.3207 11.2731 39.1132 11.2731H38.3585C38.1509 11.2731 37.9811 11.4386 37.9811 11.6408ZM41.3773 11.2731C41.1698 11.2731 41 11.4386 41 11.6408V12.3761C41 12.5783 41.1698 12.7437 41.3773 12.7437H42.1321C42.3396 12.7437 42.5094 12.5783 42.5094 12.3761V11.6408C42.5094 11.4386 42.3396 11.2731 42.1321 11.2731H41.3773ZM44.0188 11.6408V12.3761C44.0188 12.5783 44.1887 12.7437 44.3962 12.7437H45.1509C45.3585 12.7437 45.5283 12.5783 45.5283 12.3761V11.6408C45.5283 11.4386 45.3585 11.2731 45.1509 11.2731H44.3962C44.1887 11.2731 44.0188 11.4386 44.0188 11.6408Z" fill="white"></path></g><path d="M27.4158 1H10.812C10.1451 1 9.60449 1.60197 9.60449 2.34453V28.3949C9.60449 29.1374 10.1451 29.7394 10.812 29.7394H27.4158C28.0827 29.7394 28.6234 29.1374 28.6234 28.3949V2.34453C28.6234 1.60197 28.0827 1 27.4158 1Z" fill="white" stroke="#0015B5" stroke-width="0.8"></path><path d="M22.132 25.874H14.5848C14.168 25.874 13.8301 26.2503 13.8301 26.7144C13.8301 27.1785 14.168 27.5547 14.5848 27.5547H22.132C22.5488 27.5547 22.8867 27.1785 22.8867 26.7144C22.8867 26.2503 22.5488 25.874 22.132 25.874Z" fill="#0015B5"></path><path d="M25.9351 22.5127H12.2921C11.8913 22.5127 11.5664 22.8889 11.5664 23.353C11.5664 23.8171 11.8913 24.1934 12.2921 24.1934H25.9351C26.3358 24.1934 26.6607 23.8171 26.6607 23.353C26.6607 22.8889 26.3358 22.5127 25.9351 22.5127Z" fill="#0015B5"></path><path d="M25.9351 19.1514H12.2921C11.8913 19.1514 11.5664 19.5276 11.5664 19.9917C11.5664 20.4558 11.8913 20.832 12.2921 20.832H25.9351C26.3358 20.832 26.6607 20.4558 26.6607 19.9917C26.6607 19.5276 26.3358 19.1514 25.9351 19.1514Z" fill="#0015B5"></path><path d="M10.8117 1.00049H27.4155C28.0825 1.00049 28.6228 1.60208 28.6228 2.34469V16.2939H9.60449V2.34469C9.60449 1.60208 10.1448 1.00049 10.8117 1.00049Z" fill="#0015B5" stroke="#0015B5" stroke-width="0.8"></path><mask id="mask1_316_301" style="mask-type:luminance" maskUnits="userSpaceOnUse" x="13" y="3" width="12" height="12"><path d="M22.8867 3.18494H15.3395C14.5059 3.18494 13.8301 3.9374 13.8301 4.8656V13.2689C13.8301 14.1971 14.5059 14.9496 15.3395 14.9496H22.8867C23.7203 14.9496 24.3961 14.1971 24.3961 13.2689V4.8656C24.3961 3.9374 23.7203 3.18494 22.8867 3.18494Z" fill="white"></path></mask><g mask="url(#mask1_316_301)"><path d="M16.8489 3.18494C17.2664 3.18494 17.6037 3.51351 17.6037 3.92023V4.65552H20.6225V3.92023C20.6225 3.51351 20.9598 3.18494 21.3772 3.18494C21.7947 3.18494 22.132 3.51351 22.132 3.92023V4.65552H22.8867C23.7192 4.65552 24.3961 5.31501 24.3961 6.1261V12.7437C24.3961 13.5548 23.7192 14.2143 22.8867 14.2143H15.3395C14.507 14.2143 13.8301 13.5548 13.8301 12.7437V6.1261C13.8301 5.31501 14.507 4.65552 15.3395 4.65552H16.0942V3.92023C16.0942 3.51351 16.4315 3.18494 16.8489 3.18494ZM15.3395 8.69963V9.43492C15.3395 9.6371 15.5093 9.80256 15.7169 9.80256H16.4716C16.6791 9.80256 16.8489 9.6371 16.8489 9.43492V8.69963C16.8489 8.49744 16.6791 8.33198 16.4716 8.33198H15.7169C15.5093 8.33198 15.3395 8.49744 15.3395 8.69963ZM18.3584 8.69963V9.43492C18.3584 9.6371 18.5282 9.80256 18.7357 9.80256H19.4905C19.698 9.80256 19.8678 9.6371 19.8678 9.43492V8.69963C19.8678 8.49744 19.698 8.33198 19.4905 8.33198H18.7357C18.5282 8.33198 18.3584 8.49744 18.3584 8.69963ZM21.7546 8.33198C21.5471 8.33198 21.3772 8.49744 21.3772 8.69963V9.43492C21.3772 9.6371 21.5471 9.80256 21.7546 9.80256H22.5093C22.7169 9.80256 22.8867 9.6371 22.8867 9.43492V8.69963C22.8867 8.49744 22.7169 8.33198 22.5093 8.33198H21.7546ZM15.3395 11.6408V12.3761C15.3395 12.5783 15.5093 12.7437 15.7169 12.7437H16.4716C16.6791 12.7437 16.8489 12.5783 16.8489 12.3761V11.6408C16.8489 11.4386 16.6791 11.2731 16.4716 11.2731H15.7169C15.5093 11.2731 15.3395 11.4386 15.3395 11.6408ZM18.7357 11.2731C18.5282 11.2731 18.3584 11.4386 18.3584 11.6408V12.3761C18.3584 12.5783 18.5282 12.7437 18.7357 12.7437H19.4905C19.698 12.7437 19.8678 12.5783 19.8678 12.3761V11.6408C19.8678 11.4386 19.698 11.2731 19.4905 11.2731H18.7357ZM21.3772 11.6408V12.3761C21.3772 12.5783 21.5471 12.7437 21.7546 12.7437H22.5093C22.7169 12.7437 22.8867 12.5783 22.8867 12.3761V11.6408C22.8867 11.4386 22.7169 11.2731 22.5093 11.2731H21.7546C21.5471 11.2731 21.3772 11.4386 21.3772 11.6408Z" fill="white"></path></g><path d="M71.9432 1H55.3394C54.6725 1 54.1318 1.60197 54.1318 2.34453V28.3949C54.1318 29.1374 54.6725 29.7394 55.3394 29.7394H71.9432C72.6101 29.7394 73.1507 29.1374 73.1507 28.3949V2.34453C73.1507 1.60197 72.6101 1 71.9432 1Z" fill="white" stroke="#0015B5" stroke-width="0.8"></path><path d="M66.6603 25.874H59.1131C58.6963 25.874 58.3584 26.2503 58.3584 26.7144C58.3584 27.1785 58.6963 27.5547 59.1131 27.5547H66.6603C67.0771 27.5547 67.415 27.1785 67.415 26.7144C67.415 26.2503 67.0771 25.874 66.6603 25.874Z" fill="#0015B5"></path><path d="M70.4634 22.5127H56.8204C56.4196 22.5127 56.0947 22.8889 56.0947 23.353C56.0947 23.8171 56.4196 24.1934 56.8204 24.1934H70.4634C70.8642 24.1934 71.1891 23.8171 71.1891 23.353C71.1891 22.8889 70.8642 22.5127 70.4634 22.5127Z" fill="#0015B5"></path><path d="M70.4634 19.1514H56.8204C56.4196 19.1514 56.0947 19.5276 56.0947 19.9917C56.0947 20.4558 56.4196 20.832 56.8204 20.832H70.4634C70.8642 20.832 71.1891 20.4558 71.1891 19.9917C71.1891 19.5276 70.8642 19.1514 70.4634 19.1514Z" fill="#0015B5"></path><path d="M55.3391 1.00049H71.9429C72.61 1.00049 73.1504 1.60208 73.1504 2.34469V16.2939H54.1318V2.34469C54.1318 1.60208 54.6721 1.00049 55.3391 1.00049Z" fill="#0015B5" stroke="#0015B5" stroke-width="0.8"></path><mask id="mask2_316_301" style="mask-type:luminance" maskUnits="userSpaceOnUse" x="58" y="3" width="11" height="12"><path d="M67.415 3.18494H59.8678C59.0342 3.18494 58.3584 3.9374 58.3584 4.8656V13.2689C58.3584 14.1971 59.0342 14.9496 59.8678 14.9496H67.415C68.2486 14.9496 68.9244 14.1971 68.9244 13.2689V4.8656C68.9244 3.9374 68.2486 3.18494 67.415 3.18494Z" fill="white"></path></mask><g mask="url(#mask2_316_301)"><path d="M61.3773 3.18494C61.7947 3.18494 62.132 3.51351 62.132 3.92023V4.65552H65.1509V3.92023C65.1509 3.51351 65.4881 3.18494 65.9056 3.18494C66.323 3.18494 66.6603 3.51351 66.6603 3.92023V4.65552H67.415C68.2475 4.65552 68.9244 5.31501 68.9244 6.1261V12.7437C68.9244 13.5548 68.2475 14.2143 67.415 14.2143H59.8678C59.0353 14.2143 58.3584 13.5548 58.3584 12.7437V6.1261C58.3584 5.31501 59.0353 4.65552 59.8678 4.65552H60.6225V3.92023C60.6225 3.51351 60.9598 3.18494 61.3773 3.18494ZM59.8678 8.69963V9.43492C59.8678 9.6371 60.0376 9.80256 60.2452 9.80256H60.9999C61.2075 9.80256 61.3773 9.6371 61.3773 9.43492V8.69963C61.3773 8.49744 61.2075 8.33198 60.9999 8.33198H60.2452C60.0376 8.33198 59.8678 8.49744 59.8678 8.69963ZM62.8867 8.69963V9.43492C62.8867 9.6371 63.0565 9.80256 63.2641 9.80256H64.0188C64.2263 9.80256 64.3961 9.6371 64.3961 9.43492V8.69963C64.3961 8.49744 64.2263 8.33198 64.0188 8.33198H63.2641C63.0565 8.33198 62.8867 8.49744 62.8867 8.69963ZM66.2829 8.33198C66.0754 8.33198 65.9056 8.49744 65.9056 8.69963V9.43492C65.9056 9.6371 66.0754 9.80256 66.2829 9.80256H67.0376C67.2452 9.80256 67.415 9.6371 67.415 9.43492V8.69963C67.415 8.49744 67.2452 8.33198 67.0376 8.33198H66.2829ZM59.8678 11.6408V12.3761C59.8678 12.5783 60.0376 12.7437 60.2452 12.7437H60.9999C61.2075 12.7437 61.3773 12.5783 61.3773 12.3761V11.6408C61.3773 11.4386 61.2075 11.2731 60.9999 11.2731H60.2452C60.0376 11.2731 59.8678 11.4386 59.8678 11.6408ZM63.2641 11.2731C63.0565 11.2731 62.8867 11.4386 62.8867 11.6408V12.3761C62.8867 12.5783 63.0565 12.7437 63.2641 12.7437H64.0188C64.2263 12.7437 64.3961 12.5783 64.3961 12.3761V11.6408C64.3961 11.4386 64.2263 11.2731 64.0188 11.2731H63.2641ZM65.9056 11.6408V12.3761C65.9056 12.5783 66.0754 12.7437 66.2829 12.7437H67.0376C67.2452 12.7437 67.415 12.5783 67.415 12.3761V11.6408C67.415 11.4386 67.2452 11.2731 67.0376 11.2731H66.2829C66.0754 11.2731 65.9056 11.4386 65.9056 11.6408Z" fill="white"></path></g><path d="M35.3399 41C36.382 41 37.2267 40.0594 37.2267 38.8992C37.2267 37.7389 36.382 36.7983 35.3399 36.7983C34.2979 36.7983 33.4531 37.7389 33.4531 38.8992C33.4531 40.0594 34.2979 41 35.3399 41Z" fill="#9EA9B2"></path><path d="M47.4151 41C48.4572 41 49.3019 40.0594 49.3019 38.8992C49.3019 37.7389 48.4572 36.7983 47.4151 36.7983C46.3731 36.7983 45.5283 37.7389 45.5283 38.8992C45.5283 40.0594 46.3731 41 47.4151 41Z" fill="#9EA9B2"></path><path d="M41.377 41C42.4191 41 43.2638 40.0594 43.2638 38.8992C43.2638 37.7389 42.4191 36.7983 41.377 36.7983C40.335 36.7983 39.4902 37.7389 39.4902 38.8992C39.4902 40.0594 40.335 41 41.377 41Z" fill="#0015B5"></path></svg> 