<svg width="256" height="256" viewBox="0 0 256 256" fill="none" xmlns="http://www.w3.org/2000/svg">
<rect width="256" height="256" rx="15" fill="#121116"/>
<rect width="256" height="256" rx="15" stroke="#364154"/>
<rect x="58" y="58" width="140" height="140" stroke="#121116"/>
<path d="M128 58C130.761 58 133 60.2386 133 63V73C133 75.7614 130.761 78 128 78C125.239 78 123 75.7614 123 73V63C123 60.2386 125.239 58 128 58Z" fill="white"/>
<path fill-rule="evenodd" clip-rule="evenodd" d="M128 168C97.6756 168 87.6756 158 88.0003 128C88.325 98 97.6756 88 128 88C158.325 88 168 98 168 128C168 158 158.325 168 128 168Z" fill="white"/>
<path d="M133 183C133 180.239 130.761 178 128 178C125.239 178 123 180.239 123 183V193C123 195.761 125.239 198 128 198C130.761 198 133 195.761 133 193V183Z" fill="white"/>
<path d="M198 128C198 130.761 195.761 133 193 133H183C180.239 133 178 130.761 178 128C178 125.239 180.239 123 183 123H193C195.761 123 198 125.239 198 128Z" fill="white"/>
<path d="M73 133C75.7614 133 78 130.761 78 128C78 125.239 75.7614 123 73 123H63C60.2386 123 58 125.239 58 128C58 130.761 60.2386 133 63 133H73Z" fill="white"/>
<path d="M74.4645 74.4645C76.4171 72.5118 79.5829 72.5118 81.5355 74.4645L88.6066 81.5355C90.5592 83.4882 90.5592 86.654 88.6066 88.6066C86.654 90.5592 83.4882 90.5592 81.5355 88.6066L74.4645 81.5355C72.5118 79.5829 72.5118 76.4171 74.4645 74.4645Z" fill="white"/>
<path d="M81.5355 183.606C79.5829 185.558 76.4171 185.558 74.4645 183.606C72.5118 181.653 72.5118 178.487 74.4645 176.535L81.5355 169.464C83.4882 167.511 86.654 167.511 88.6066 169.464C90.5592 171.416 90.5592 174.582 88.6066 176.535L81.5355 183.606Z" fill="white"/>
<path d="M183.606 74.4645C181.653 72.5118 178.487 72.5118 176.535 74.4645L169.464 81.5355C167.511 83.4882 167.511 86.654 169.464 88.6066C171.416 90.5592 174.582 90.5592 176.535 88.6066L183.606 81.5355C185.558 79.5829 185.558 76.4171 183.606 74.4645Z" fill="white"/>
<path d="M176.535 183.606C178.487 185.558 181.653 185.558 183.606 183.606C185.558 181.653 185.558 178.487 183.606 176.535L176.535 169.464C174.582 167.511 171.416 167.511 169.464 169.464C167.511 171.416 167.511 174.582 169.464 176.535L176.535 183.606Z" fill="white"/>
</svg>
