<svg width="120" height="90" viewBox="0 0 120 90" fill="none" xmlns="http://www.w3.org/2000/svg">
<rect x="0.5" y="0.5" width="119" height="89" rx="2.5" fill="white" stroke="#8796A1"/>
<path d="M108 45L113 40L108 35M12 35L7 40L12 45" stroke="#58707F" stroke-width="2" stroke-linecap="round" stroke-linejoin="round"/>
<rect x="48.4" y="21.4" width="25.2" height="34.2" rx="1.6" fill="white" stroke="#58707F" stroke-width="0.8"/>
<rect x="54" y="51" width="12" height="2" rx="1" fill="#58707F"/>
<path d="M70.0385 47H51.9615C51.4305 47 51 47.4477 51 48C51 48.5523 51.4305 49 51.9615 49H70.0385C70.5695 49 71 48.5523 71 48C71 47.4477 70.5695 47 70.0385 47Z" fill="#58707F"/>
<path d="M70.0385 43H51.9615C51.4305 43 51 43.4477 51 44C51 44.5523 51.4305 45 51.9615 45H70.0385C70.5695 45 71 44.5523 71 44C71 43.4477 70.5695 43 70.0385 43Z" fill="#58707F"/>
<path d="M50 21.4004H72C72.8837 21.4004 73.5996 22.1163 73.5996 23V39.5996H48.4004V23C48.4004 22.1163 49.1163 21.4004 50 21.4004Z" fill="#58707F" stroke="#58707F" stroke-width="0.8"/>
<g clip-path="url(#clip0_160_253)">
<path d="M58 24C58.5531 24 59 24.391 59 24.875V25.75H63V24.875C63 24.391 63.4469 24 64 24C64.5531 24 65 24.391 65 24.875V25.75H66C67.1031 25.75 68 26.5348 68 27.5V35.375C68 36.3402 67.1031 37.125 66 37.125H56C54.8969 37.125 54 36.3402 54 35.375V27.5C54 26.5348 54.8969 25.75 56 25.75H57V24.875C57 24.391 57.4469 24 58 24ZM56 30.5625V31.4375C56 31.6781 56.225 31.875 56.5 31.875H57.5C57.775 31.875 58 31.6781 58 31.4375V30.5625C58 30.3219 57.775 30.125 57.5 30.125H56.5C56.225 30.125 56 30.3219 56 30.5625ZM60 30.5625V31.4375C60 31.6781 60.225 31.875 60.5 31.875H61.5C61.775 31.875 62 31.6781 62 31.4375V30.5625C62 30.3219 61.775 30.125 61.5 30.125H60.5C60.225 30.125 60 30.3219 60 30.5625ZM64.5 30.125C64.225 30.125 64 30.3219 64 30.5625V31.4375C64 31.6781 64.225 31.875 64.5 31.875H65.5C65.775 31.875 66 31.6781 66 31.4375V30.5625C66 30.3219 65.775 30.125 65.5 30.125H64.5ZM56 34.0625V34.9375C56 35.1781 56.225 35.375 56.5 35.375H57.5C57.775 35.375 58 35.1781 58 34.9375V34.0625C58 33.8219 57.775 33.625 57.5 33.625H56.5C56.225 33.625 56 33.8219 56 34.0625ZM60.5 33.625C60.225 33.625 60 33.8219 60 34.0625V34.9375C60 35.1781 60.225 35.375 60.5 35.375H61.5C61.775 35.375 62 35.1781 62 34.9375V34.0625C62 33.8219 61.775 33.625 61.5 33.625H60.5ZM64 34.0625V34.9375C64 35.1781 64.225 35.375 64.5 35.375H65.5C65.775 35.375 66 35.1781 66 34.9375V34.0625C66 33.8219 65.775 33.625 65.5 33.625H64.5C64.225 33.625 64 33.8219 64 34.0625Z" fill="white"/>
</g>
<rect x="18.4" y="21.4" width="25.2" height="34.2" rx="1.6" fill="white" stroke="#58707F" stroke-width="0.8"/>
<rect x="24" y="51" width="12" height="2" rx="1" fill="#58707F"/>
<path d="M40.0385 47H21.9615C21.4305 47 21 47.4477 21 48C21 48.5523 21.4305 49 21.9615 49H40.0385C40.5695 49 41 48.5523 41 48C41 47.4477 40.5695 47 40.0385 47Z" fill="#58707F"/>
<path d="M40.0385 43H21.9615C21.4305 43 21 43.4477 21 44C21 44.5523 21.4305 45 21.9615 45H40.0385C40.5695 45 41 44.5523 41 44C41 43.4477 40.5695 43 40.0385 43Z" fill="#58707F"/>
<path d="M20 21.4004H42C42.8837 21.4004 43.5996 22.1163 43.5996 23V39.5996H18.4004V23C18.4004 22.1163 19.1163 21.4004 20 21.4004Z" fill="#58707F" stroke="#58707F" stroke-width="0.8"/>
<g clip-path="url(#clip1_160_253)">
<path d="M28 24C28.5531 24 29 24.391 29 24.875V25.75H33V24.875C33 24.391 33.4469 24 34 24C34.5531 24 35 24.391 35 24.875V25.75H36C37.1031 25.75 38 26.5348 38 27.5V35.375C38 36.3402 37.1031 37.125 36 37.125H26C24.8969 37.125 24 36.3402 24 35.375V27.5C24 26.5348 24.8969 25.75 26 25.75H27V24.875C27 24.391 27.4469 24 28 24ZM26 30.5625V31.4375C26 31.6781 26.225 31.875 26.5 31.875H27.5C27.775 31.875 28 31.6781 28 31.4375V30.5625C28 30.3219 27.775 30.125 27.5 30.125H26.5C26.225 30.125 26 30.3219 26 30.5625ZM30 30.5625V31.4375C30 31.6781 30.225 31.875 30.5 31.875H31.5C31.775 31.875 32 31.6781 32 31.4375V30.5625C32 30.3219 31.775 30.125 31.5 30.125H30.5C30.225 30.125 30 30.3219 30 30.5625ZM34.5 30.125C34.225 30.125 34 30.3219 34 30.5625V31.4375C34 31.6781 34.225 31.875 34.5 31.875H35.5C35.775 31.875 36 31.6781 36 31.4375V30.5625C36 30.3219 35.775 30.125 35.5 30.125H34.5ZM26 34.0625V34.9375C26 35.1781 26.225 35.375 26.5 35.375H27.5C27.775 35.375 28 35.1781 28 34.9375V34.0625C28 33.8219 27.775 33.625 27.5 33.625H26.5C26.225 33.625 26 33.8219 26 34.0625ZM30.5 33.625C30.225 33.625 30 33.8219 30 34.0625V34.9375C30 35.1781 30.225 35.375 30.5 35.375H31.5C31.775 35.375 32 35.1781 32 34.9375V34.0625C32 33.8219 31.775 33.625 31.5 33.625H30.5ZM34 34.0625V34.9375C34 35.1781 34.225 35.375 34.5 35.375H35.5C35.775 35.375 36 35.1781 36 34.9375V34.0625C36 33.8219 35.775 33.625 35.5 33.625H34.5C34.225 33.625 34 33.8219 34 34.0625Z" fill="white"/>
</g>
<rect x="77.4" y="21.4" width="25.2" height="34.2" rx="1.6" fill="white" stroke="#58707F" stroke-width="0.8"/>
<rect x="83" y="51" width="12" height="2" rx="1" fill="#58707F"/>
<path d="M99.0385 47H80.9615C80.4305 47 80 47.4477 80 48C80 48.5523 80.4305 49 80.9615 49H99.0385C99.5695 49 100 48.5523 100 48C100 47.4477 99.5695 47 99.0385 47Z" fill="#58707F"/>
<path d="M99.0385 43H80.9615C80.4305 43 80 43.4477 80 44C80 44.5523 80.4305 45 80.9615 45H99.0385C99.5695 45 100 44.5523 100 44C100 43.4477 99.5695 43 99.0385 43Z" fill="#58707F"/>
<path d="M79 21.4004H101C101.884 21.4004 102.6 22.1163 102.6 23V39.5996H77.4004V23C77.4004 22.1163 78.1163 21.4004 79 21.4004Z" fill="#58707F" stroke="#58707F" stroke-width="0.8"/>
<g clip-path="url(#clip2_160_253)">
<path d="M87 24C87.5531 24 88 24.391 88 24.875V25.75H92V24.875C92 24.391 92.4469 24 93 24C93.5531 24 94 24.391 94 24.875V25.75H95C96.1031 25.75 97 26.5348 97 27.5V35.375C97 36.3402 96.1031 37.125 95 37.125H85C83.8969 37.125 83 36.3402 83 35.375V27.5C83 26.5348 83.8969 25.75 85 25.75H86V24.875C86 24.391 86.4469 24 87 24ZM85 30.5625V31.4375C85 31.6781 85.225 31.875 85.5 31.875H86.5C86.775 31.875 87 31.6781 87 31.4375V30.5625C87 30.3219 86.775 30.125 86.5 30.125H85.5C85.225 30.125 85 30.3219 85 30.5625ZM89 30.5625V31.4375C89 31.6781 89.225 31.875 89.5 31.875H90.5C90.775 31.875 91 31.6781 91 31.4375V30.5625C91 30.3219 90.775 30.125 90.5 30.125H89.5C89.225 30.125 89 30.3219 89 30.5625ZM93.5 30.125C93.225 30.125 93 30.3219 93 30.5625V31.4375C93 31.6781 93.225 31.875 93.5 31.875H94.5C94.775 31.875 95 31.6781 95 31.4375V30.5625C95 30.3219 94.775 30.125 94.5 30.125H93.5ZM85 34.0625V34.9375C85 35.1781 85.225 35.375 85.5 35.375H86.5C86.775 35.375 87 35.1781 87 34.9375V34.0625C87 33.8219 86.775 33.625 86.5 33.625H85.5C85.225 33.625 85 33.8219 85 34.0625ZM89.5 33.625C89.225 33.625 89 33.8219 89 34.0625V34.9375C89 35.1781 89.225 35.375 89.5 35.375H90.5C90.775 35.375 91 35.1781 91 34.9375V34.0625C91 33.8219 90.775 33.625 90.5 33.625H89.5ZM93 34.0625V34.9375C93 35.1781 93.225 35.375 93.5 35.375H94.5C94.775 35.375 95 35.1781 95 34.9375V34.0625C95 33.8219 94.775 33.625 94.5 33.625H93.5C93.225 33.625 93 33.8219 93 34.0625Z" fill="white"/>
</g>
<circle cx="52.5" cy="66.5" r="2.5" fill="#9EA9B2"/>
<circle cx="68.5" cy="66.5" r="2.5" fill="#9EA9B2"/>
<circle cx="60.5" cy="66.5" r="2.5" fill="#58707F"/>
<defs>
<clipPath id="clip0_160_253">
<rect x="54" y="24" width="14" height="14" rx="2" fill="white"/>
</clipPath>
<clipPath id="clip1_160_253">
<rect x="24" y="24" width="14" height="14" rx="2" fill="white"/>
</clipPath>
<clipPath id="clip2_160_253">
<rect x="83" y="24" width="14" height="14" rx="2" fill="white"/>
</clipPath>
</defs>
</svg>
