<svg width="120" height="90" viewBox="0 0 120 90" fill="none" xmlns="http://www.w3.org/2000/svg">
<rect x="0.5" y="0.5" width="119" height="89" rx="2.5" fill="white" stroke="#8796A1"/>
<rect x="44.2594" y="17.4" width="33.4808" height="45.3472" rx="1.6" fill="white" stroke="#58707F" stroke-width="0.8"/>
<rect x="51.7705" y="56.5552" width="15.8219" height="2.63698" rx="1.31849" fill="#58707F"/>
<path d="M72.9175 51.2808H49.0832C48.383 51.2808 47.8154 51.8711 47.8154 52.5993C47.8154 53.3274 48.383 53.9177 49.0832 53.9177H72.9175C73.6177 53.9177 74.1853 53.3274 74.1853 52.5993C74.1853 51.8711 73.6177 51.2808 72.9175 51.2808Z" fill="#58707F"/>
<path d="M72.9175 46.0068H49.0832C48.383 46.0068 47.8154 46.5971 47.8154 47.3253C47.8154 48.0535 48.383 48.6438 49.0832 48.6438H72.9175C73.6177 48.6438 74.1853 48.0535 74.1853 47.3253C74.1853 46.5971 73.6177 46.0068 72.9175 46.0068Z" fill="#58707F"/>
<path d="M45.8594 17.4004H76.1406C77.0241 17.4006 77.7402 18.1165 77.7402 19V41.6514H44.2598V19C44.2598 18.1163 44.9757 17.4004 45.8594 17.4004Z" fill="#58707F" stroke="#58707F" stroke-width="0.8"/>
<g clip-path="url(#clip0_160_522)">
<path d="M57.0445 20.9556C57.7738 20.9556 58.363 21.4711 58.363 22.1092V23.2629H63.6369V22.1092C63.6369 21.4711 64.2261 20.9556 64.9554 20.9556C65.6847 20.9556 66.2739 21.4711 66.2739 22.1092V23.2629H67.5924C69.0469 23.2629 70.2294 24.2976 70.2294 25.5703V35.9534C70.2294 37.2261 69.0469 38.2608 67.5924 38.2608H54.4075C52.953 38.2608 51.7705 37.2261 51.7705 35.9534V25.5703C51.7705 24.2976 52.953 23.2629 54.4075 23.2629H55.726V22.1092C55.726 21.4711 56.3152 20.9556 57.0445 20.9556ZM54.4075 29.6082V30.7618C54.4075 31.0791 54.7042 31.3387 55.0667 31.3387H56.3852C56.7478 31.3387 57.0445 31.0791 57.0445 30.7618V29.6082C57.0445 29.2909 56.7478 29.0313 56.3852 29.0313H55.0667C54.7042 29.0313 54.4075 29.2909 54.4075 29.6082ZM59.6815 29.6082V30.7618C59.6815 31.0791 59.9781 31.3387 60.3407 31.3387H61.6592C62.0218 31.3387 62.3184 31.0791 62.3184 30.7618V29.6082C62.3184 29.2909 62.0218 29.0313 61.6592 29.0313H60.3407C59.9781 29.0313 59.6815 29.2909 59.6815 29.6082ZM65.6147 29.0313C65.2521 29.0313 64.9554 29.2909 64.9554 29.6082V30.7618C64.9554 31.0791 65.2521 31.3387 65.6147 31.3387H66.9332C67.2957 31.3387 67.5924 31.0791 67.5924 30.7618V29.6082C67.5924 29.2909 67.2957 29.0313 66.9332 29.0313H65.6147ZM54.4075 34.2229V35.3766C54.4075 35.6938 54.7042 35.9534 55.0667 35.9534H56.3852C56.7478 35.9534 57.0445 35.6938 57.0445 35.3766V34.2229C57.0445 33.9056 56.7478 33.646 56.3852 33.646H55.0667C54.7042 33.646 54.4075 33.9056 54.4075 34.2229ZM60.3407 33.646C59.9781 33.646 59.6815 33.9056 59.6815 34.2229V35.3766C59.6815 35.6938 59.9781 35.9534 60.3407 35.9534H61.6592C62.0218 35.9534 62.3184 35.6938 62.3184 35.3766V34.2229C62.3184 33.9056 62.0218 33.646 61.6592 33.646H60.3407ZM64.9554 34.2229V35.3766C64.9554 35.6938 65.2521 35.9534 65.6147 35.9534H66.9332C67.2957 35.9534 67.5924 35.6938 67.5924 35.3766V34.2229C67.5924 33.9056 67.2957 33.646 66.9332 33.646H65.6147C65.2521 33.646 64.9554 33.9056 64.9554 34.2229Z" fill="white"/>
</g>
<rect x="13.193" y="21.7267" width="27.0531" height="36.6946" rx="1.6" fill="white" stroke="#58707F" stroke-width="0.8"/>
<rect x="19.2207" y="53.4648" width="12.8553" height="2.14255" rx="1.07127" fill="#58707F"/>
<path d="M36.4023 49.1797H17.0369C16.468 49.1797 16.0068 49.6593 16.0068 50.251C16.0068 50.8426 16.468 51.3222 17.0369 51.3222H36.4023C36.9711 51.3222 37.4323 50.8426 37.4323 50.251C37.4323 49.6593 36.9711 49.1797 36.4023 49.1797Z" fill="#58707F"/>
<path d="M36.4023 44.8945H17.0369C16.468 44.8945 16.0068 45.3742 16.0068 45.9658C16.0068 46.5575 16.468 47.0371 17.0369 47.0371H36.4023C36.9711 47.0371 37.4323 46.5575 37.4323 45.9658C37.4323 45.3742 36.9711 44.8945 36.4023 44.8945Z" fill="#58707F"/>
<path d="M14.793 21.7271H38.6465C39.53 21.7273 40.2461 22.4431 40.2461 23.3267V41.2808H13.1934V23.3267C13.1934 22.443 13.9093 21.7271 14.793 21.7271Z" fill="#58707F" stroke="#58707F" stroke-width="0.8"/>
<g clip-path="url(#clip1_160_522)">
<path d="M23.5058 24.54C24.0983 24.54 24.5771 24.9589 24.5771 25.4774V26.4148H28.8622V25.4774C28.8622 24.9589 29.3409 24.54 29.9334 24.54C30.526 24.54 31.0047 24.9589 31.0047 25.4774V26.4148H32.076C33.2577 26.4148 34.2185 27.2555 34.2185 28.2895V36.7258C34.2185 37.7598 33.2577 38.6005 32.076 38.6005H21.3633C20.1815 38.6005 19.2207 37.7598 19.2207 36.7258V28.2895C19.2207 27.2555 20.1815 26.4148 21.3633 26.4148H22.4345V25.4774C22.4345 24.9589 22.9133 24.54 23.5058 24.54ZM21.3633 31.5703V32.5076C21.3633 32.7654 21.6043 32.9763 21.8989 32.9763H22.9702C23.2648 32.9763 23.5058 32.7654 23.5058 32.5076V31.5703C23.5058 31.3125 23.2648 31.1016 22.9702 31.1016H21.8989C21.6043 31.1016 21.3633 31.3125 21.3633 31.5703ZM25.6484 31.5703V32.5076C25.6484 32.7654 25.8894 32.9763 26.184 32.9763H27.2553C27.5499 32.9763 27.7909 32.7654 27.7909 32.5076V31.5703C27.7909 31.3125 27.5499 31.1016 27.2553 31.1016H26.184C25.8894 31.1016 25.6484 31.3125 25.6484 31.5703ZM30.4691 31.1016C30.1745 31.1016 29.9334 31.3125 29.9334 31.5703V32.5076C29.9334 32.7654 30.1745 32.9763 30.4691 32.9763H31.5404C31.835 32.9763 32.076 32.7654 32.076 32.5076V31.5703C32.076 31.3125 31.835 31.1016 31.5404 31.1016H30.4691ZM21.3633 35.3197V36.2571C21.3633 36.5149 21.6043 36.7258 21.8989 36.7258H22.9702C23.2648 36.7258 23.5058 36.5149 23.5058 36.2571V35.3197C23.5058 35.062 23.2648 34.8511 22.9702 34.8511H21.8989C21.6043 34.8511 21.3633 35.062 21.3633 35.3197ZM26.184 34.8511C25.8894 34.8511 25.6484 35.062 25.6484 35.3197V36.2571C25.6484 36.5149 25.8894 36.7258 26.184 36.7258H27.2553C27.5499 36.7258 27.7909 36.5149 27.7909 36.2571V35.3197C27.7909 35.062 27.5499 34.8511 27.2553 34.8511H26.184ZM29.9334 35.3197V36.2571C29.9334 36.5149 30.1745 36.7258 30.4691 36.7258H31.5404C31.835 36.7258 32.076 36.5149 32.076 36.2571V35.3197C32.076 35.062 31.835 34.8511 31.5404 34.8511H30.4691C30.1745 34.8511 29.9334 35.062 29.9334 35.3197Z" fill="white"/>
</g>
<rect x="12.793" y="21.3267" width="27.8531" height="37.4946" rx="2" fill="white" fill-opacity="0.5"/>
<rect x="13.193" y="21.7267" width="27.0531" height="36.6946" rx="1.6" stroke="white" stroke-opacity="0.5" stroke-width="0.8"/>
<rect x="81.4" y="21.7267" width="27.0531" height="36.6946" rx="1.6" fill="white" stroke="#58707F" stroke-width="0.8"/>
<rect x="87.4277" y="53.4648" width="12.8553" height="2.14255" rx="1.07127" fill="#58707F"/>
<path d="M104.609 49.1797H85.2439C84.675 49.1797 84.2139 49.6593 84.2139 50.251C84.2139 50.8426 84.675 51.3222 85.2439 51.3222H104.609C105.178 51.3222 105.639 50.8426 105.639 50.251C105.639 49.6593 105.178 49.1797 104.609 49.1797Z" fill="#58707F"/>
<path d="M104.609 44.8945H85.2439C84.675 44.8945 84.2139 45.3742 84.2139 45.9658C84.2139 46.5575 84.675 47.0371 85.2439 47.0371H104.609C105.178 47.0371 105.639 46.5575 105.639 45.9658C105.639 45.3742 105.178 44.8945 104.609 44.8945Z" fill="#58707F"/>
<path d="M83 21.7271H106.854C107.737 21.7273 108.453 22.4431 108.453 23.3267V41.2808H81.4004V23.3267C81.4004 22.443 82.1163 21.7271 83 21.7271Z" fill="#58707F" stroke="#58707F" stroke-width="0.8"/>
<g clip-path="url(#clip2_160_522)">
<path d="M91.7128 24.54C92.3054 24.54 92.7841 24.9589 92.7841 25.4774V26.4148H97.0692V25.4774C97.0692 24.9589 97.5479 24.54 98.1405 24.54C98.733 24.54 99.2118 24.9589 99.2118 25.4774V26.4148H100.283C101.465 26.4148 102.426 27.2555 102.426 28.2895V36.7258C102.426 37.7598 101.465 38.6005 100.283 38.6005H89.5703C88.3885 38.6005 87.4277 37.7598 87.4277 36.7258V28.2895C87.4277 27.2555 88.3885 26.4148 89.5703 26.4148H90.6416V25.4774C90.6416 24.9589 91.1203 24.54 91.7128 24.54ZM89.5703 31.5703V32.5076C89.5703 32.7654 89.8113 32.9763 90.1059 32.9763H91.1772C91.4718 32.9763 91.7128 32.7654 91.7128 32.5076V31.5703C91.7128 31.3125 91.4718 31.1016 91.1772 31.1016H90.1059C89.8113 31.1016 89.5703 31.3125 89.5703 31.5703ZM93.8554 31.5703V32.5076C93.8554 32.7654 94.0964 32.9763 94.391 32.9763H95.4623C95.7569 32.9763 95.9979 32.7654 95.9979 32.5076V31.5703C95.9979 31.3125 95.7569 31.1016 95.4623 31.1016H94.391C94.0964 31.1016 93.8554 31.3125 93.8554 31.5703ZM98.6761 31.1016C98.3815 31.1016 98.1405 31.3125 98.1405 31.5703V32.5076C98.1405 32.7654 98.3815 32.9763 98.6761 32.9763H99.7474C100.042 32.9763 100.283 32.7654 100.283 32.5076V31.5703C100.283 31.3125 100.042 31.1016 99.7474 31.1016H98.6761ZM89.5703 35.3197V36.2571C89.5703 36.5149 89.8113 36.7258 90.1059 36.7258H91.1772C91.4718 36.7258 91.7128 36.5149 91.7128 36.2571V35.3197C91.7128 35.062 91.4718 34.8511 91.1772 34.8511H90.1059C89.8113 34.8511 89.5703 35.062 89.5703 35.3197ZM94.391 34.8511C94.0964 34.8511 93.8554 35.062 93.8554 35.3197V36.2571C93.8554 36.5149 94.0964 36.7258 94.391 36.7258H95.4623C95.7569 36.7258 95.9979 36.5149 95.9979 36.2571V35.3197C95.9979 35.062 95.7569 34.8511 95.4623 34.8511H94.391ZM98.1405 35.3197V36.2571C98.1405 36.5149 98.3815 36.7258 98.6761 36.7258H99.7474C100.042 36.7258 100.283 36.5149 100.283 36.2571V35.3197C100.283 35.062 100.042 34.8511 99.7474 34.8511H98.6761C98.3815 34.8511 98.1405 35.062 98.1405 35.3197Z" fill="white"/>
</g>
<rect x="81" y="21.3267" width="27.8531" height="37.4946" rx="2" fill="white" fill-opacity="0.5"/>
<rect x="81.4" y="21.7267" width="27.0531" height="36.6946" rx="1.6" stroke="white" stroke-opacity="0.5" stroke-width="0.8"/>
<circle cx="51.894" cy="73.2832" r="2.67819" fill="#9EA9B2"/>
<circle cx="69.0346" cy="73.2832" r="2.67819" fill="#9EA9B2"/>
<circle cx="60.4643" cy="73.2832" r="2.67819" fill="#58707F"/>
<defs>
<clipPath id="clip0_160_522">
<rect x="51.7705" y="20.9556" width="18.4589" height="18.4589" rx="2" fill="white"/>
</clipPath>
<clipPath id="clip1_160_522">
<rect x="19.2207" y="24.54" width="14.9978" height="14.9978" rx="2" fill="white"/>
</clipPath>
<clipPath id="clip2_160_522">
<rect x="87.4277" y="24.54" width="14.9978" height="14.9978" rx="2" fill="white"/>
</clipPath>
</defs>
</svg>
