<svg width="80" height="90" viewBox="0 0 80 90" fill="none" xmlns="http://www.w3.org/2000/svg">
<rect x="0.5" y="0.5" width="79" height="89" rx="2.5" fill="white" stroke="#8796A1"/>
<rect x="14.4" y="10.4" width="51.2" height="69.2" rx="1.6" fill="white" stroke="#58707F" stroke-width="0.8"/>
<rect x="26" y="69" width="24" height="6" rx="3" fill="#58707F"/>
<rect x="29" y="71" width="18" height="2" rx="1" fill="white"/>
<path d="M58.0769 62H21.9231C20.861 62 20 62.8954 20 64C20 65.1046 20.861 66 21.9231 66H58.0769C59.139 66 60 65.1046 60 64C60 62.8954 59.139 62 58.0769 62Z" fill="#58707F"/>
<path d="M58.0769 54H21.9231C20.861 54 20 54.8954 20 56C20 57.1046 20.861 58 21.9231 58H58.0769C59.139 58 60 57.1046 60 56C60 54.8954 59.139 54 58.0769 54Z" fill="#58707F"/>
<path d="M16 10.4004H64C64.8837 10.4004 65.5996 11.1163 65.5996 12V47.5996H14.4004V12C14.4004 11.1163 15.1163 10.4004 16 10.4004Z" fill="#58707F" stroke="#58707F" stroke-width="0.8"/>
<path d="M34 16C35.1063 16 36 16.782 36 17.75V19.5H44V17.75C44 16.782 44.8937 16 46 16C47.1063 16 48 16.782 48 17.75V19.5H50C52.2062 19.5 54 21.0695 54 23V38.75C54 40.6805 52.2062 42.25 50 42.25H30C27.7938 42.25 26 40.6805 26 38.75V23C26 21.0695 27.7938 19.5 30 19.5H32V17.75C32 16.782 32.8937 16 34 16ZM30 29.125V30.875C30 31.3563 30.45 31.75 31 31.75H33C33.55 31.75 34 31.3563 34 30.875V29.125C34 28.6437 33.55 28.25 33 28.25H31C30.45 28.25 30 28.6437 30 29.125ZM38 29.125V30.875C38 31.3563 38.45 31.75 39 31.75H41C41.55 31.75 42 31.3563 42 30.875V29.125C42 28.6437 41.55 28.25 41 28.25H39C38.45 28.25 38 28.6437 38 29.125ZM47 28.25C46.45 28.25 46 28.6437 46 29.125V30.875C46 31.3563 46.45 31.75 47 31.75H49C49.55 31.75 50 31.3563 50 30.875V29.125C50 28.6437 49.55 28.25 49 28.25H47ZM30 36.125V37.875C30 38.3563 30.45 38.75 31 38.75H33C33.55 38.75 34 38.3563 34 37.875V36.125C34 35.6437 33.55 35.25 33 35.25H31C30.45 35.25 30 35.6437 30 36.125ZM39 35.25C38.45 35.25 38 35.6437 38 36.125V37.875C38 38.3563 38.45 38.75 39 38.75H41C41.55 38.75 42 38.3563 42 37.875V36.125C42 35.6437 41.55 35.25 41 35.25H39ZM46 36.125V37.875C46 38.3563 46.45 38.75 47 38.75H49C49.55 38.75 50 38.3563 50 37.875V36.125C50 35.6437 49.55 35.25 49 35.25H47C46.45 35.25 46 35.6437 46 36.125Z" fill="white"/>
</svg>
