<svg width="80" height="90" viewBox="0 0 80 90" fill="none" xmlns="http://www.w3.org/2000/svg">
<rect x="0.5" y="0.5" width="79" height="89" rx="2.5" fill="white" stroke="#8796A1"/>
<rect x="-0.4" y="0.4" width="63.0068" height="18.2063" rx="1.6" transform="matrix(-1 0 0 1 71.0066 24)" fill="white" stroke="#58707F" stroke-width="0.8"/>
<rect width="33.261" height="1.35759" rx="0.678796" transform="matrix(-1 0 0 1 47.3696 31.4668)" fill="#58707F"/>
<rect width="28.5094" height="1.35759" rx="0.678796" transform="matrix(-1 0 0 1 47.3696 34.1819)" fill="#58707F"/>
<rect width="10.8607" height="1.35759" rx="0.678796" transform="matrix(-1 0 0 1 47.3696 36.8972)" fill="#58707F"/>
<path d="M31.8617 27.394H46.5864C47.019 27.394 47.3696 27.7739 47.3696 28.2425C47.3696 28.7111 47.019 29.091 46.5864 29.091H31.8617C31.4292 29.091 31.0785 28.7111 31.0785 28.2425C31.0785 27.7739 31.4292 27.394 31.8617 27.394Z" fill="#58707F"/>
<path d="M69.8066 24.4004H50.4854V42.6064H69.8066C70.6903 42.6064 71.4062 41.8895 71.4062 41.0059V26C71.4062 25.1163 70.6903 24.4004 69.8066 24.4004Z" fill="#58707F" stroke="#58707F" stroke-width="0.8"/>
<g clip-path="url(#clip0_544_158)">
<path d="M62.9826 28.7517C62.6071 28.7517 62.3038 29.0171 62.3038 29.3457V29.9396H59.5886V29.3457C59.5886 29.0171 59.2853 28.7517 58.9098 28.7517C58.5343 28.7517 58.231 29.0171 58.231 29.3457V29.9396H57.5522C56.8034 29.9396 56.1946 30.4723 56.1946 31.1275V36.473C56.1946 37.1282 56.8034 37.6609 57.5522 37.6609H64.3402C65.089 37.6609 65.6978 37.1282 65.6978 36.473V31.1275C65.6978 30.4723 65.089 29.9396 64.3402 29.9396H63.6614V29.3457C63.6614 29.0171 63.358 28.7517 62.9826 28.7517ZM64.3402 33.2063V33.8003C64.3402 33.9636 64.1874 34.0972 64.0008 34.0972H63.322C63.1353 34.0972 62.9826 33.9636 62.9826 33.8003V33.2063C62.9826 33.043 63.1353 32.9093 63.322 32.9093H64.0008C64.1874 32.9093 64.3402 33.043 64.3402 33.2063ZM61.625 33.2063V33.8003C61.625 33.9636 61.4722 34.0972 61.2856 34.0972H60.6068C60.4201 34.0972 60.2674 33.9636 60.2674 33.8003V33.2063C60.2674 33.043 60.4201 32.9093 60.6068 32.9093H61.2856C61.4722 32.9093 61.625 33.043 61.625 33.2063ZM58.5704 32.9093C58.7571 32.9093 58.9098 33.043 58.9098 33.2063V33.8003C58.9098 33.9636 58.7571 34.0972 58.5704 34.0972H57.8916C57.7049 34.0972 57.5522 33.9636 57.5522 33.8003V33.2063C57.5522 33.043 57.7049 32.9093 57.8916 32.9093H58.5704ZM64.3402 35.5821V36.176C64.3402 36.3394 64.1874 36.473 64.0008 36.473H63.322C63.1353 36.473 62.9826 36.3394 62.9826 36.176V35.5821C62.9826 35.4188 63.1353 35.2851 63.322 35.2851H64.0008C64.1874 35.2851 64.3402 35.4188 64.3402 35.5821ZM61.2856 35.2851C61.4722 35.2851 61.625 35.4188 61.625 35.5821V36.176C61.625 36.3394 61.4722 36.473 61.2856 36.473H60.6068C60.4201 36.473 60.2674 36.3394 60.2674 36.176V35.5821C60.2674 35.4188 60.4201 35.2851 60.6068 35.2851H61.2856ZM58.9098 35.5821V36.176C58.9098 36.3394 58.7571 36.473 58.5704 36.473H57.8916C57.7049 36.473 57.5522 36.3394 57.5522 36.176V35.5821C57.5522 35.4188 57.7049 35.2851 57.8916 35.2851H58.5704C58.7571 35.2851 58.9098 35.4188 58.9098 35.5821Z" fill="white"/>
</g>
<rect x="-0.4" y="0.4" width="63.0068" height="18.2063" rx="1.6" transform="matrix(-1 0 0 1 71.0066 46.2373)" fill="white" stroke="#58707F" stroke-width="0.8"/>
<rect width="33.261" height="1.35759" rx="0.678796" transform="matrix(-1 0 0 1 47.3696 53.7043)" fill="#58707F"/>
<rect width="28.5094" height="1.35759" rx="0.678796" transform="matrix(-1 0 0 1 47.3696 56.4194)" fill="#58707F"/>
<rect width="10.8607" height="1.35759" rx="0.678796" transform="matrix(-1 0 0 1 47.3696 59.1345)" fill="#58707F"/>
<path d="M31.8617 49.6313H46.5864C47.019 49.6313 47.3696 50.0112 47.3696 50.4798C47.3696 50.9485 47.019 51.3283 46.5864 51.3283H31.8617C31.4292 51.3283 31.0785 50.9485 31.0785 50.4798C31.0785 50.0112 31.4292 49.6313 31.8617 49.6313Z" fill="#58707F"/>
<path d="M69.8066 46.6377H50.4854V64.8438H69.8066C70.6903 64.8438 71.4062 64.1268 71.4062 63.2432V48.2373C71.4062 47.3536 70.6903 46.6377 69.8066 46.6377Z" fill="#58707F" stroke="#58707F" stroke-width="0.8"/>
<g clip-path="url(#clip1_544_158)">
<path d="M62.9826 50.9888C62.6071 50.9888 62.3038 51.2542 62.3038 51.5827V52.1767H59.5886V51.5827C59.5886 51.2542 59.2853 50.9888 58.9098 50.9888C58.5343 50.9888 58.231 51.2542 58.231 51.5827V52.1767H57.5522C56.8034 52.1767 56.1946 52.7094 56.1946 53.3646V58.7101C56.1946 59.3653 56.8034 59.898 57.5522 59.898H64.3402C65.089 59.898 65.6978 59.3653 65.6978 58.7101V53.3646C65.6978 52.7094 65.089 52.1767 64.3402 52.1767H63.6614V51.5827C63.6614 51.2542 63.358 50.9888 62.9826 50.9888ZM64.3402 55.4434V56.0373C64.3402 56.2007 64.1874 56.3343 64.0008 56.3343H63.322C63.1353 56.3343 62.9826 56.2007 62.9826 56.0373V55.4434C62.9826 55.28 63.1353 55.1464 63.322 55.1464H64.0008C64.1874 55.1464 64.3402 55.28 64.3402 55.4434ZM61.625 55.4434V56.0373C61.625 56.2007 61.4722 56.3343 61.2856 56.3343H60.6068C60.4201 56.3343 60.2674 56.2007 60.2674 56.0373V55.4434C60.2674 55.28 60.4201 55.1464 60.6068 55.1464H61.2856C61.4722 55.1464 61.625 55.28 61.625 55.4434ZM58.5704 55.1464C58.7571 55.1464 58.9098 55.28 58.9098 55.4434V56.0373C58.9098 56.2007 58.7571 56.3343 58.5704 56.3343H57.8916C57.7049 56.3343 57.5522 56.2007 57.5522 56.0373V55.4434C57.5522 55.28 57.7049 55.1464 57.8916 55.1464H58.5704ZM64.3402 57.8192V58.4131C64.3402 58.5764 64.1874 58.7101 64.0008 58.7101H63.322C63.1353 58.7101 62.9826 58.5764 62.9826 58.4131V57.8192C62.9826 57.6558 63.1353 57.5222 63.322 57.5222H64.0008C64.1874 57.5222 64.3402 57.6558 64.3402 57.8192ZM61.2856 57.5222C61.4722 57.5222 61.625 57.6558 61.625 57.8192V58.4131C61.625 58.5764 61.4722 58.7101 61.2856 58.7101H60.6068C60.4201 58.7101 60.2674 58.5764 60.2674 58.4131V57.8192C60.2674 57.6558 60.4201 57.5222 60.6068 57.5222H61.2856ZM58.9098 57.8192V58.4131C58.9098 58.5764 58.7571 58.7101 58.5704 58.7101H57.8916C57.7049 58.7101 57.5522 58.5764 57.5522 58.4131V57.8192C57.5522 57.6558 57.7049 57.5222 57.8916 57.5222H58.5704C58.7571 57.5222 58.9098 57.6558 58.9098 57.8192Z" fill="white"/>
</g>
<defs>
<clipPath id="clip0_544_158">
<rect width="9.50315" height="9.50315" rx="2" transform="matrix(-1 0 0 1 65.6978 28.7517)" fill="white"/>
</clipPath>
<clipPath id="clip1_544_158">
<rect width="9.50315" height="9.50315" rx="2" transform="matrix(-1 0 0 1 65.6978 50.9888)" fill="white"/>
</clipPath>
</defs>
</svg>
