<svg width="80" height="90" viewBox="0 0 80 90" fill="none" xmlns="http://www.w3.org/2000/svg">
<rect x="0.5" y="0.5" width="79" height="89" rx="2.5" fill="white" stroke="#8796A1"/>
<rect x="8.4" y="24.4" width="63.0068" height="18.2063" rx="1.6" fill="white" stroke="#58707F" stroke-width="0.8"/>
<rect x="32.4365" y="31.4673" width="33.261" height="1.35759" rx="0.678796" fill="#58707F"/>
<rect x="32.4365" y="34.1816" width="28.5094" height="1.35759" rx="0.678796" fill="#58707F"/>
<rect x="32.4365" y="36.8972" width="10.8607" height="1.35759" rx="0.678796" fill="#58707F"/>
<path d="M47.9444 27.3943H33.2197C32.7872 27.3943 32.4365 27.7742 32.4365 28.2428C32.4365 28.7114 32.7872 29.0913 33.2197 29.0913H47.9444C48.377 29.0913 48.7276 28.7114 48.7276 28.2428C48.7276 27.7742 48.377 27.3943 47.9444 27.3943Z" fill="#58707F"/>
<path d="M10 24.4004H29.3213V42.6064H10C9.11634 42.6064 8.40039 41.8895 8.40039 41.0059V26C8.40039 25.1163 9.11634 24.4004 10 24.4004Z" fill="#58707F" stroke="#58707F" stroke-width="0.8"/>
<g clip-path="url(#clip0_543_124)">
<path d="M16.8241 28.752C17.1995 28.752 17.5029 29.0174 17.5029 29.3459V29.9398H20.2181V29.3459C20.2181 29.0174 20.5214 28.752 20.8968 28.752C21.2723 28.752 21.5756 29.0174 21.5756 29.3459V29.9398H22.2544C23.0032 29.9398 23.612 30.4725 23.612 31.1277V36.4733C23.612 37.1285 23.0032 37.6612 22.2544 37.6612H15.4665C14.7177 37.6612 14.1089 37.1285 14.1089 36.4733V31.1277C14.1089 30.4725 14.7177 29.9398 15.4665 29.9398H16.1453V29.3459C16.1453 29.0174 16.4486 28.752 16.8241 28.752ZM15.4665 33.2066V33.8005C15.4665 33.9638 15.6192 34.0975 15.8059 34.0975H16.4847C16.6713 34.0975 16.8241 33.9638 16.8241 33.8005V33.2066C16.8241 33.0432 16.6713 32.9096 16.4847 32.9096H15.8059C15.6192 32.9096 15.4665 33.0432 15.4665 33.2066ZM18.1817 33.2066V33.8005C18.1817 33.9638 18.3344 34.0975 18.5211 34.0975H19.1999C19.3865 34.0975 19.5393 33.9638 19.5393 33.8005V33.2066C19.5393 33.0432 19.3865 32.9096 19.1999 32.9096H18.5211C18.3344 32.9096 18.1817 33.0432 18.1817 33.2066ZM21.2362 32.9096C21.0496 32.9096 20.8968 33.0432 20.8968 33.2066V33.8005C20.8968 33.9638 21.0496 34.0975 21.2362 34.0975H21.915C22.1017 34.0975 22.2544 33.9638 22.2544 33.8005V33.2066C22.2544 33.0432 22.1017 32.9096 21.915 32.9096H21.2362ZM15.4665 35.5823V36.1763C15.4665 36.3396 15.6192 36.4733 15.8059 36.4733H16.4847C16.6713 36.4733 16.8241 36.3396 16.8241 36.1763V35.5823C16.8241 35.419 16.6713 35.2854 16.4847 35.2854H15.8059C15.6192 35.2854 15.4665 35.419 15.4665 35.5823ZM18.5211 35.2854C18.3344 35.2854 18.1817 35.419 18.1817 35.5823V36.1763C18.1817 36.3396 18.3344 36.4733 18.5211 36.4733H19.1999C19.3865 36.4733 19.5393 36.3396 19.5393 36.1763V35.5823C19.5393 35.419 19.3865 35.2854 19.1999 35.2854H18.5211ZM20.8968 35.5823V36.1763C20.8968 36.3396 21.0496 36.4733 21.2362 36.4733H21.915C22.1017 36.4733 22.2544 36.3396 22.2544 36.1763V35.5823C22.2544 35.419 22.1017 35.2854 21.915 35.2854H21.2362C21.0496 35.2854 20.8968 35.419 20.8968 35.5823Z" fill="white"/>
</g>
<rect x="8.4" y="46.6378" width="63.0068" height="18.2063" rx="1.6" fill="white" stroke="#58707F" stroke-width="0.8"/>
<rect x="32.4365" y="53.7043" width="33.261" height="1.35759" rx="0.678796" fill="#58707F"/>
<rect x="32.4365" y="56.4197" width="28.5094" height="1.35759" rx="0.678796" fill="#58707F"/>
<rect x="32.4365" y="59.135" width="10.8607" height="1.35759" rx="0.678796" fill="#58707F"/>
<path d="M47.9444 49.6316H33.2197C32.7872 49.6316 32.4365 50.0115 32.4365 50.4801C32.4365 50.9487 32.7872 51.3286 33.2197 51.3286H47.9444C48.377 51.3286 48.7276 50.9487 48.7276 50.4801C48.7276 50.0115 48.377 49.6316 47.9444 49.6316Z" fill="#58707F"/>
<path d="M10 46.6382H29.3213V64.8442H10C9.11634 64.8442 8.40039 64.1273 8.40039 63.2437V48.2378C8.40039 47.3541 9.11634 46.6382 10 46.6382Z" fill="#58707F" stroke="#58707F" stroke-width="0.8"/>
<g clip-path="url(#clip1_543_124)">
<path d="M16.8241 50.9893C17.1995 50.9893 17.5029 51.2547 17.5029 51.5832V52.1772H20.2181V51.5832C20.2181 51.2547 20.5214 50.9893 20.8968 50.9893C21.2723 50.9893 21.5756 51.2547 21.5756 51.5832V52.1772H22.2544C23.0032 52.1772 23.612 52.7098 23.612 53.365V58.7106C23.612 59.3658 23.0032 59.8985 22.2544 59.8985H15.4665C14.7177 59.8985 14.1089 59.3658 14.1089 58.7106V53.365C14.1089 52.7098 14.7177 52.1772 15.4665 52.1772H16.1453V51.5832C16.1453 51.2547 16.4486 50.9893 16.8241 50.9893ZM15.4665 55.4439V56.0378C15.4665 56.2011 15.6192 56.3348 15.8059 56.3348H16.4847C16.6713 56.3348 16.8241 56.2011 16.8241 56.0378V55.4439C16.8241 55.2805 16.6713 55.1469 16.4847 55.1469H15.8059C15.6192 55.1469 15.4665 55.2805 15.4665 55.4439ZM18.1817 55.4439V56.0378C18.1817 56.2011 18.3344 56.3348 18.5211 56.3348H19.1999C19.3865 56.3348 19.5393 56.2011 19.5393 56.0378V55.4439C19.5393 55.2805 19.3865 55.1469 19.1999 55.1469H18.5211C18.3344 55.1469 18.1817 55.2805 18.1817 55.4439ZM21.2362 55.1469C21.0496 55.1469 20.8968 55.2805 20.8968 55.4439V56.0378C20.8968 56.2011 21.0496 56.3348 21.2362 56.3348H21.915C22.1017 56.3348 22.2544 56.2011 22.2544 56.0378V55.4439C22.2544 55.2805 22.1017 55.1469 21.915 55.1469H21.2362ZM15.4665 57.8196V58.4136C15.4665 58.5769 15.6192 58.7106 15.8059 58.7106H16.4847C16.6713 58.7106 16.8241 58.5769 16.8241 58.4136V57.8196C16.8241 57.6563 16.6713 57.5227 16.4847 57.5227H15.8059C15.6192 57.5227 15.4665 57.6563 15.4665 57.8196ZM18.5211 57.5227C18.3344 57.5227 18.1817 57.6563 18.1817 57.8196V58.4136C18.1817 58.5769 18.3344 58.7106 18.5211 58.7106H19.1999C19.3865 58.7106 19.5393 58.5769 19.5393 58.4136V57.8196C19.5393 57.6563 19.3865 57.5227 19.1999 57.5227H18.5211ZM20.8968 57.8196V58.4136C20.8968 58.5769 21.0496 58.7106 21.2362 58.7106H21.915C22.1017 58.7106 22.2544 58.5769 22.2544 58.4136V57.8196C22.2544 57.6563 22.1017 57.5227 21.915 57.5227H21.2362C21.0496 57.5227 20.8968 57.6563 20.8968 57.8196Z" fill="white"/>
</g>
<defs>
<clipPath id="clip0_543_124">
<rect x="14.1089" y="28.752" width="9.50314" height="9.50314" rx="2" fill="white"/>
</clipPath>
<clipPath id="clip1_543_124">
<rect x="14.1089" y="50.9893" width="9.50314" height="9.50314" rx="2" fill="white"/>
</clipPath>
</defs>
</svg>
