<svg width="100" height="70" viewBox="0 0 100 70" fill="none" xmlns="http://www.w3.org/2000/svg">
<g clip-path="url(#clip0_205_83)">
<mask id="mask0_205_83" style="mask-type:luminance" maskUnits="userSpaceOnUse" x="0" y="0" width="100" height="70">
<path d="M100 0H0V70H100V0Z" fill="white"/>
</mask>
<g mask="url(#mask0_205_83)">
<path d="M97 0.75H3C1.75736 0.75 0.75 1.75736 0.75 3V67C0.75 68.2426 1.75736 69.25 3 69.25H97C98.2426 69.25 99.25 68.2426 99.25 67V3C99.25 1.75736 98.2426 0.75 97 0.75Z" stroke="#58707F" stroke-width="1.5"/>
<path d="M32.8889 54C31.5444 54 30.3939 53.576 29.4373 52.7282C28.4807 51.8803 28.0016 50.8598 28 49.6667V19.3333C28 18.1417 28.4791 17.1219 29.4373 16.274C30.3956 15.4261 31.5461 15.0014 32.8889 15H45.1111V54H32.8889ZM50 54C49.3074 54 48.7273 53.792 48.2596 53.376C47.7918 52.96 47.5572 52.4458 47.5556 51.8333C47.5556 51.2194 47.7902 50.7052 48.2596 50.2907C48.7289 49.8761 49.309 49.6681 50 49.6667C50.6926 49.6667 51.2736 49.8747 51.7429 50.2907C52.2122 50.7067 52.4461 51.2209 52.4444 51.8333C52.4444 52.4472 52.2098 52.9622 51.7404 53.3782C51.2711 53.7942 50.691 54.0014 50 54ZM50 45.3333C49.3074 45.3333 48.7273 45.1253 48.2596 44.7093C47.7918 44.2933 47.5572 43.7791 47.5556 43.1667C47.5556 42.5528 47.7902 42.0386 48.2596 41.624C48.7289 41.2094 49.309 41.0014 50 41C50.6926 41 51.2736 41.208 51.7429 41.624C52.2122 42.04 52.4461 42.5542 52.4444 43.1667C52.4444 43.7806 52.2098 44.2955 51.7404 44.7115C51.2711 45.1275 50.691 45.3348 50 45.3333ZM50 36.6667C49.3074 36.6667 48.7273 36.4587 48.2596 36.0427C47.7918 35.6267 47.5572 35.1124 47.5556 34.5C47.5556 33.8861 47.7902 33.3719 48.2596 32.9573C48.7289 32.5428 49.309 32.3348 50 32.3333C50.6926 32.3333 51.2736 32.5413 51.7429 32.9573C52.2122 33.3733 52.4461 33.8876 52.4444 34.5C52.4444 35.1139 52.2098 35.6288 51.7404 36.0448C51.2711 36.4608 50.691 36.6681 50 36.6667ZM50 28C49.3074 28 48.7273 27.792 48.2596 27.376C47.7918 26.96 47.5572 26.4458 47.5556 25.8333C47.5556 25.2194 47.7902 24.7052 48.2596 24.2907C48.7289 23.8761 49.309 23.6681 50 23.6667C50.6926 23.6667 51.2736 23.8747 51.7429 24.2907C52.2122 24.7067 52.4461 25.2209 52.4444 25.8333C52.4444 26.4472 52.2098 26.9622 51.7404 27.3782C51.2711 27.7942 50.691 28.0014 50 28ZM50 19.3333C49.3074 19.3333 48.7273 19.1253 48.2596 18.7093C47.7918 18.2933 47.5572 17.7791 47.5556 17.1667C47.5556 16.5528 47.7902 16.0386 48.2596 15.624C48.7289 15.2094 49.309 15.0014 50 15C50.6926 15 51.2736 15.208 51.7429 15.624C52.2122 16.04 52.4461 16.5542 52.4444 17.1667C52.4444 17.7806 52.2098 18.2955 51.7404 18.7115C51.2711 19.1275 50.691 19.3348 50 19.3333ZM54.8889 49.6667C54.1963 49.6667 53.6161 49.4587 53.1484 49.0427C52.6807 48.6267 52.4461 48.1124 52.4444 47.5C52.4444 46.8861 52.6791 46.3719 53.1484 45.9573C53.6178 45.5428 54.1979 45.3348 54.8889 45.3333C55.5815 45.3333 56.1624 45.5413 56.6318 45.9573C57.1011 46.3733 57.335 46.8875 57.3333 47.5C57.3333 48.1139 57.0987 48.6288 56.6293 49.0448C56.16 49.4608 55.5798 49.6681 54.8889 49.6667ZM54.8889 41C54.1963 41 53.6161 40.792 53.1484 40.376C52.6807 39.96 52.4461 39.4458 52.4444 38.8333C52.4444 38.2194 52.6791 37.7052 53.1484 37.2907C53.6178 36.8761 54.1979 36.6681 54.8889 36.6667C55.5815 36.6667 56.1624 36.8747 56.6318 37.2907C57.1011 37.7067 57.335 38.2209 57.3333 38.8333C57.3333 39.4472 57.0987 39.9622 56.6293 40.3782C56.16 40.7942 55.5798 41.0014 54.8889 41ZM54.8889 32.3333C54.1963 32.3333 53.6161 32.1253 53.1484 31.7093C52.6807 31.2933 52.4461 30.7791 52.4444 30.1667C52.4444 29.5528 52.6791 29.0386 53.1484 28.624C53.6178 28.2094 54.1979 28.0014 54.8889 28C55.5815 28 56.1624 28.208 56.6318 28.624C57.1011 29.04 57.335 29.5542 57.3333 30.1667C57.3333 30.7806 57.0987 31.2955 56.6293 31.7115C56.16 32.1275 55.5798 32.3348 54.8889 32.3333ZM54.8889 23.6667C54.1963 23.6667 53.6161 23.4587 53.1484 23.0427C52.6807 22.6267 52.4461 22.1124 52.4444 21.5C52.4444 20.8861 52.6791 20.3719 53.1484 19.9573C53.6178 19.5428 54.1979 19.3348 54.8889 19.3333C55.5815 19.3333 56.1624 19.5413 56.6318 19.9573C57.1011 20.3733 57.335 20.8876 57.3333 21.5C57.3333 22.1139 57.0987 22.6288 56.6293 23.0448C56.16 23.4608 55.5798 23.6681 54.8889 23.6667ZM59.7778 54C59.0852 54 58.505 53.792 58.0373 53.376C57.5696 52.96 57.335 52.4458 57.3333 51.8333C57.3333 51.2194 57.568 50.7052 58.0373 50.2907C58.5067 49.8761 59.0868 49.6681 59.7778 49.6667C60.4704 49.6667 61.0513 49.8747 61.5207 50.2907C61.99 50.7067 62.2238 51.2209 62.2222 51.8333C62.2222 52.4472 61.9875 52.9622 61.5182 53.3782C61.0489 53.7942 60.4687 54.0014 59.7778 54ZM59.7778 45.3333C59.0852 45.3333 58.505 45.1253 58.0373 44.7093C57.5696 44.2933 57.335 43.7791 57.3333 43.1667C57.3333 42.5528 57.568 42.0386 58.0373 41.624C58.5067 41.2094 59.0868 41.0014 59.7778 41C60.4704 41 61.0513 41.208 61.5207 41.624C61.99 42.04 62.2238 42.5542 62.2222 43.1667C62.2222 43.7806 61.9875 44.2955 61.5182 44.7115C61.0489 45.1275 60.4687 45.3348 59.7778 45.3333ZM59.7778 36.6667C59.0852 36.6667 58.505 36.4587 58.0373 36.0427C57.5696 35.6267 57.335 35.1124 57.3333 34.5C57.3333 33.8861 57.568 33.3719 58.0373 32.9573C58.5067 32.5428 59.0868 32.3348 59.7778 32.3333C60.4704 32.3333 61.0513 32.5413 61.5207 32.9573C61.99 33.3733 62.2238 33.8876 62.2222 34.5C62.2222 35.1139 61.9875 35.6288 61.5182 36.0448C61.0489 36.4608 60.4687 36.6681 59.7778 36.6667ZM59.7778 28C59.0852 28 58.505 27.792 58.0373 27.376C57.5696 26.96 57.335 26.4458 57.3333 25.8333C57.3333 25.2194 57.568 24.7052 58.0373 24.2907C58.5067 23.8761 59.0868 23.6681 59.7778 23.6667C60.4704 23.6667 61.0513 23.8747 61.5207 24.2907C61.99 24.7067 62.2238 25.2209 62.2222 25.8333C62.2222 26.4472 61.9875 26.9622 61.5182 27.3782C61.0489 27.7942 60.4687 28.0014 59.7778 28ZM59.7778 19.3333C59.0852 19.3333 58.505 19.1253 58.0373 18.7093C57.5696 18.2933 57.335 17.7791 57.3333 17.1667C57.3333 16.5528 57.568 16.0386 58.0373 15.624C58.5067 15.2094 59.0868 15.0014 59.7778 15C60.4704 15 61.0513 15.208 61.5207 15.624C61.99 16.04 62.2238 16.5542 62.2222 17.1667C62.2222 17.7806 61.9875 18.2955 61.5182 18.7115C61.0489 19.1275 60.4687 19.3348 59.7778 19.3333ZM64.6667 49.6667C63.9741 49.6667 63.3939 49.4587 62.9262 49.0427C62.4585 48.6267 62.2238 48.1124 62.2222 47.5C62.2222 46.8861 62.4569 46.3719 62.9262 45.9573C63.3955 45.5428 63.9757 45.3348 64.6667 45.3333C65.3593 45.3333 65.9402 45.5413 66.4095 45.9573C66.8789 46.3733 67.1127 46.8875 67.1111 47.5C67.1111 48.1139 66.8764 48.6288 66.4071 49.0448C65.9378 49.4608 65.3576 49.6681 64.6667 49.6667ZM64.6667 41C63.9741 41 63.3939 40.792 62.9262 40.376C62.4585 39.96 62.2238 39.4458 62.2222 38.8333C62.2222 38.2194 62.4569 37.7052 62.9262 37.2907C63.3955 36.8761 63.9757 36.6681 64.6667 36.6667C65.3593 36.6667 65.9402 36.8747 66.4095 37.2907C66.8789 37.7067 67.1127 38.2209 67.1111 38.8333C67.1111 39.4472 66.8764 39.9622 66.4071 40.3782C65.9378 40.7942 65.3576 41.0014 64.6667 41ZM64.6667 32.3333C63.9741 32.3333 63.3939 32.1253 62.9262 31.7093C62.4585 31.2933 62.2238 30.7791 62.2222 30.1667C62.2222 29.5528 62.4569 29.0386 62.9262 28.624C63.3955 28.2094 63.9757 28.0014 64.6667 28C65.3593 28 65.9402 28.208 66.4095 28.624C66.8789 29.04 67.1127 29.5542 67.1111 30.1667C67.1111 30.7806 66.8764 31.2955 66.4071 31.7115C65.9378 32.1275 65.3576 32.3348 64.6667 32.3333ZM64.6667 23.6667C63.9741 23.6667 63.3939 23.4587 62.9262 23.0427C62.4585 22.6267 62.2238 22.1124 62.2222 21.5C62.2222 20.8861 62.4569 20.3719 62.9262 19.9573C63.3955 19.5428 63.9757 19.3348 64.6667 19.3333C65.3593 19.3333 65.9402 19.5413 66.4095 19.9573C66.8789 20.3733 67.1127 20.8876 67.1111 21.5C67.1111 22.1139 66.8764 22.6288 66.4071 23.0448C65.9378 23.4608 65.3576 23.6681 64.6667 23.6667ZM69.5555 54C68.863 54 68.2828 53.792 67.8151 53.376C67.3474 52.96 67.1127 52.4458 67.1111 51.8333C67.1111 51.2194 67.3458 50.7052 67.8151 50.2907C68.2844 49.8761 68.8646 49.6681 69.5555 49.6667C70.2481 49.6667 70.8291 49.8747 71.2984 50.2907C71.7678 50.7067 72.0016 51.2209 72 51.8333C72 52.4472 71.7653 52.9622 71.296 53.3782C70.8267 53.7942 70.2465 54.0014 69.5555 54ZM69.5555 45.3333C68.863 45.3333 68.2828 45.1253 67.8151 44.7093C67.3474 44.2933 67.1127 43.7791 67.1111 43.1667C67.1111 42.5528 67.3458 42.0386 67.8151 41.624C68.2844 41.2094 68.8646 41.0014 69.5555 41C70.2481 41 70.8291 41.208 71.2984 41.624C71.7678 42.04 72.0016 42.5542 72 43.1667C72 43.7806 71.7653 44.2955 71.296 44.7115C70.8267 45.1275 70.2465 45.3348 69.5555 45.3333ZM69.5555 36.6667C68.863 36.6667 68.2828 36.4587 67.8151 36.0427C67.3474 35.6267 67.1127 35.1124 67.1111 34.5C67.1111 33.8861 67.3458 33.3719 67.8151 32.9573C68.2844 32.5428 68.8646 32.3348 69.5555 32.3333C70.2481 32.3333 70.8291 32.5413 71.2984 32.9573C71.7678 33.3733 72.0016 33.8876 72 34.5C72 35.1139 71.7653 35.6288 71.296 36.0448C70.8267 36.4608 70.2465 36.6681 69.5555 36.6667ZM69.5555 28C68.863 28 68.2828 27.792 67.8151 27.376C67.3474 26.96 67.1127 26.4458 67.1111 25.8333C67.1111 25.2194 67.3458 24.7052 67.8151 24.2907C68.2844 23.8761 68.8646 23.6681 69.5555 23.6667C70.2481 23.6667 70.8291 23.8747 71.2984 24.2907C71.7678 24.7067 72.0016 25.2209 72 25.8333C72 26.4472 71.7653 26.9622 71.296 27.3782C70.8267 27.7942 70.2465 28.0014 69.5555 28ZM69.5555 19.3333C68.863 19.3333 68.2828 19.1253 67.8151 18.7093C67.3474 18.2933 67.1127 17.7791 67.1111 17.1667C67.1111 16.5528 67.3458 16.0386 67.8151 15.624C68.2844 15.2094 68.8646 15.0014 69.5555 15C70.2481 15 70.8291 15.208 71.2984 15.624C71.7678 16.04 72.0016 16.5542 72 17.1667C72 17.7806 71.7653 18.2955 71.296 18.7115C70.8267 19.1275 70.2465 19.3348 69.5555 19.3333Z" fill="#58707F"/>
<path d="M77 38L80 35L77 32" stroke="#58707F" stroke-width="1.8" stroke-linecap="round" stroke-linejoin="round"/>
<path d="M23 32L20 35L23 38" stroke="#58707F" stroke-width="1.8" stroke-linecap="round" stroke-linejoin="round"/>
</g>
</g>
<defs>
<clipPath id="clip0_205_83">
<rect width="100" height="70" fill="white"/>
</clipPath>
</defs>
</svg>
