<svg width="120" height="90" viewBox="0 0 120 90" fill="none" xmlns="http://www.w3.org/2000/svg">
<rect x="0.5" y="0.5" width="119" height="89" rx="2.5" fill="white" stroke="#8796A1"/>
<rect x="20.4" y="14.4" width="24.2" height="29.2" rx="1.6" fill="white" stroke="#58707F" stroke-width="0.8"/>
<rect x="26" y="39" width="11.4353" height="1.90588" rx="0.952941" fill="#58707F"/>
<path d="M41.0009 34.9644H23.7747C23.2686 34.9644 22.8584 35.391 22.8584 35.9173C22.8584 36.4436 23.2686 36.8702 23.7747 36.8702H41.0009C41.507 36.8702 41.9172 36.4436 41.9172 35.9173C41.9172 35.391 41.507 34.9644 41.0009 34.9644Z" fill="#58707F"/>
<path d="M22 14.5H42.7764C43.6048 14.5 44.2764 15.1716 44.2764 16V31.6055H20.5V16C20.5 15.1716 21.1716 14.5 22 14.5Z" fill="#58707F" stroke="#58707F"/>
<g clip-path="url(#clip0_160_382)">
<path d="M29.5295 16.8584C30.0566 16.8584 30.4825 17.231 30.4825 17.6922V18.526H34.2942V17.6922C34.2942 17.231 34.7201 16.8584 35.2472 16.8584C35.7743 16.8584 36.2001 17.231 36.2001 17.6922V18.526H37.1531C38.2043 18.526 39.0589 19.2739 39.0589 20.1937V27.6981C39.0589 28.6179 38.2043 29.3658 37.1531 29.3658H27.6237C26.5724 29.3658 25.7178 28.6179 25.7178 27.6981V20.1937C25.7178 19.2739 26.5724 18.526 27.6237 18.526H28.5766V17.6922C28.5766 17.231 29.0024 16.8584 29.5295 16.8584ZM27.6237 23.1121V23.9459C27.6237 24.1752 27.8381 24.3628 28.1001 24.3628H29.0531C29.3151 24.3628 29.5295 24.1752 29.5295 23.9459V23.1121C29.5295 22.8828 29.3151 22.6952 29.0531 22.6952H28.1001C27.8381 22.6952 27.6237 22.8828 27.6237 23.1121ZM31.4354 23.1121V23.9459C31.4354 24.1752 31.6498 24.3628 31.9119 24.3628H32.8648C33.1269 24.3628 33.3413 24.1752 33.3413 23.9459V23.1121C33.3413 22.8828 33.1269 22.6952 32.8648 22.6952H31.9119C31.6498 22.6952 31.4354 22.8828 31.4354 23.1121ZM35.7237 22.6952C35.4616 22.6952 35.2472 22.8828 35.2472 23.1121V23.9459C35.2472 24.1752 35.4616 24.3628 35.7237 24.3628H36.6766C36.9387 24.3628 37.1531 24.1752 37.1531 23.9459V23.1121C37.1531 22.8828 36.9387 22.6952 36.6766 22.6952H35.7237ZM27.6237 26.4474V27.2812C27.6237 27.5105 27.8381 27.6981 28.1001 27.6981H29.0531C29.3151 27.6981 29.5295 27.5105 29.5295 27.2812V26.4474C29.5295 26.2181 29.3151 26.0305 29.0531 26.0305H28.1001C27.8381 26.0305 27.6237 26.2181 27.6237 26.4474ZM31.9119 26.0305C31.6498 26.0305 31.4354 26.2181 31.4354 26.4474V27.2812C31.4354 27.5105 31.6498 27.6981 31.9119 27.6981H32.8648C33.1269 27.6981 33.3413 27.5105 33.3413 27.2812V26.4474C33.3413 26.2181 33.1269 26.0305 32.8648 26.0305H31.9119ZM35.2472 26.4474V27.2812C35.2472 27.5105 35.4616 27.6981 35.7237 27.6981H36.6766C36.9387 27.6981 37.1531 27.5105 37.1531 27.2812V26.4474C37.1531 26.2181 36.9387 26.0305 36.6766 26.0305H35.7237C35.4616 26.0305 35.2472 26.2181 35.2472 26.4474Z" fill="white"/>
</g>
<rect x="48.4" y="14.4" width="24.2" height="29.2" rx="1.6" fill="white" stroke="#58707F" stroke-width="0.8"/>
<rect x="54" y="39" width="11.4353" height="1.90588" rx="0.952941" fill="#58707F"/>
<path d="M69.0009 34.9644H51.7747C51.2686 34.9644 50.8584 35.391 50.8584 35.9173C50.8584 36.4436 51.2686 36.8702 51.7747 36.8702H69.0009C69.507 36.8702 69.9172 36.4436 69.9172 35.9173C69.9172 35.391 69.507 34.9644 69.0009 34.9644Z" fill="#58707F"/>
<path d="M50 14.4004H70.7764C71.66 14.4004 72.377 15.1163 72.377 16V31.7061H48.4004V16C48.4004 15.1163 49.1163 14.4004 50 14.4004Z" fill="#58707F" stroke="#58707F" stroke-width="0.8"/>
<g clip-path="url(#clip1_160_382)">
<path d="M57.5295 16.8584C58.0566 16.8584 58.4825 17.231 58.4825 17.6922V18.526H62.2942V17.6922C62.2942 17.231 62.7201 16.8584 63.2472 16.8584C63.7743 16.8584 64.2001 17.231 64.2001 17.6922V18.526H65.1531C66.2043 18.526 67.0589 19.2739 67.0589 20.1937V27.6981C67.0589 28.6179 66.2043 29.3658 65.1531 29.3658H55.6237C54.5724 29.3658 53.7178 28.6179 53.7178 27.6981V20.1937C53.7178 19.2739 54.5724 18.526 55.6237 18.526H56.5766V17.6922C56.5766 17.231 57.0024 16.8584 57.5295 16.8584ZM55.6237 23.1121V23.9459C55.6237 24.1752 55.8381 24.3628 56.1001 24.3628H57.0531C57.3151 24.3628 57.5295 24.1752 57.5295 23.9459V23.1121C57.5295 22.8828 57.3151 22.6952 57.0531 22.6952H56.1001C55.8381 22.6952 55.6237 22.8828 55.6237 23.1121ZM59.4354 23.1121V23.9459C59.4354 24.1752 59.6498 24.3628 59.9119 24.3628H60.8648C61.1269 24.3628 61.3413 24.1752 61.3413 23.9459V23.1121C61.3413 22.8828 61.1269 22.6952 60.8648 22.6952H59.9119C59.6498 22.6952 59.4354 22.8828 59.4354 23.1121ZM63.7237 22.6952C63.4616 22.6952 63.2472 22.8828 63.2472 23.1121V23.9459C63.2472 24.1752 63.4616 24.3628 63.7237 24.3628H64.6766C64.9387 24.3628 65.1531 24.1752 65.1531 23.9459V23.1121C65.1531 22.8828 64.9387 22.6952 64.6766 22.6952H63.7237ZM55.6237 26.4474V27.2812C55.6237 27.5105 55.8381 27.6981 56.1001 27.6981H57.0531C57.3151 27.6981 57.5295 27.5105 57.5295 27.2812V26.4474C57.5295 26.2181 57.3151 26.0305 57.0531 26.0305H56.1001C55.8381 26.0305 55.6237 26.2181 55.6237 26.4474ZM59.9119 26.0305C59.6498 26.0305 59.4354 26.2181 59.4354 26.4474V27.2812C59.4354 27.5105 59.6498 27.6981 59.9119 27.6981H60.8648C61.1269 27.6981 61.3413 27.5105 61.3413 27.2812V26.4474C61.3413 26.2181 61.1269 26.0305 60.8648 26.0305H59.9119ZM63.2472 26.4474V27.2812C63.2472 27.5105 63.4616 27.6981 63.7237 27.6981H64.6766C64.9387 27.6981 65.1531 27.5105 65.1531 27.2812V26.4474C65.1531 26.2181 64.9387 26.0305 64.6766 26.0305H63.7237C63.4616 26.0305 63.2472 26.2181 63.2472 26.4474Z" fill="white"/>
</g>
<rect x="76.4" y="14.4" width="24.2" height="29.2" rx="1.6" fill="white" stroke="#58707F" stroke-width="0.8"/>
<rect x="82" y="39" width="11.4353" height="1.90588" rx="0.952941" fill="#58707F"/>
<path d="M97.0009 34.9644H79.7747C79.2686 34.9644 78.8584 35.391 78.8584 35.9173C78.8584 36.4436 79.2686 36.8702 79.7747 36.8702H97.0009C97.507 36.8702 97.9172 36.4436 97.9172 35.9173C97.9172 35.391 97.507 34.9644 97.0009 34.9644Z" fill="#58707F"/>
<path d="M78 14.4004H98.7764C99.66 14.4004 100.377 15.1163 100.377 16V31.7061H76.4004V16C76.4004 15.1163 77.1163 14.4004 78 14.4004Z" fill="#58707F" stroke="#58707F" stroke-width="0.8"/>
<g clip-path="url(#clip2_160_382)">
<path d="M85.5295 16.8584C86.0566 16.8584 86.4825 17.231 86.4825 17.6922V18.526H90.2942V17.6922C90.2942 17.231 90.7201 16.8584 91.2472 16.8584C91.7743 16.8584 92.2001 17.231 92.2001 17.6922V18.526H93.1531C94.2043 18.526 95.0589 19.2739 95.0589 20.1937V27.6981C95.0589 28.6179 94.2043 29.3658 93.1531 29.3658H83.6237C82.5724 29.3658 81.7178 28.6179 81.7178 27.6981V20.1937C81.7178 19.2739 82.5724 18.526 83.6237 18.526H84.5766V17.6922C84.5766 17.231 85.0024 16.8584 85.5295 16.8584ZM83.6237 23.1121V23.9459C83.6237 24.1752 83.8381 24.3628 84.1001 24.3628H85.0531C85.3151 24.3628 85.5295 24.1752 85.5295 23.9459V23.1121C85.5295 22.8828 85.3151 22.6952 85.0531 22.6952H84.1001C83.8381 22.6952 83.6237 22.8828 83.6237 23.1121ZM87.4354 23.1121V23.9459C87.4354 24.1752 87.6498 24.3628 87.9119 24.3628H88.8648C89.1269 24.3628 89.3413 24.1752 89.3413 23.9459V23.1121C89.3413 22.8828 89.1269 22.6952 88.8648 22.6952H87.9119C87.6498 22.6952 87.4354 22.8828 87.4354 23.1121ZM91.7237 22.6952C91.4616 22.6952 91.2472 22.8828 91.2472 23.1121V23.9459C91.2472 24.1752 91.4616 24.3628 91.7237 24.3628H92.6766C92.9387 24.3628 93.1531 24.1752 93.1531 23.9459V23.1121C93.1531 22.8828 92.9387 22.6952 92.6766 22.6952H91.7237ZM83.6237 26.4474V27.2812C83.6237 27.5105 83.8381 27.6981 84.1001 27.6981H85.0531C85.3151 27.6981 85.5295 27.5105 85.5295 27.2812V26.4474C85.5295 26.2181 85.3151 26.0305 85.0531 26.0305H84.1001C83.8381 26.0305 83.6237 26.2181 83.6237 26.4474ZM87.9119 26.0305C87.6498 26.0305 87.4354 26.2181 87.4354 26.4474V27.2812C87.4354 27.5105 87.6498 27.6981 87.9119 27.6981H88.8648C89.1269 27.6981 89.3413 27.5105 89.3413 27.2812V26.4474C89.3413 26.2181 89.1269 26.0305 88.8648 26.0305H87.9119ZM91.2472 26.4474V27.2812C91.2472 27.5105 91.4616 27.6981 91.7237 27.6981H92.6766C92.9387 27.6981 93.1531 27.5105 93.1531 27.2812V26.4474C93.1531 26.2181 92.9387 26.0305 92.6766 26.0305H91.7237C91.4616 26.0305 91.2472 26.2181 91.2472 26.4474Z" fill="white"/>
</g>
<rect x="20.4" y="47.4" width="24.2" height="29.2" rx="1.6" fill="white" stroke="#58707F" stroke-width="0.8"/>
<rect x="26" y="72" width="11.4353" height="1.90588" rx="0.952941" fill="#58707F"/>
<path d="M41.0009 67.9644H23.7747C23.2686 67.9644 22.8584 68.391 22.8584 68.9173C22.8584 69.4436 23.2686 69.8702 23.7747 69.8702H41.0009C41.507 69.8702 41.9172 69.4436 41.9172 68.9173C41.9172 68.391 41.507 67.9644 41.0009 67.9644Z" fill="#58707F"/>
<path d="M22 47.4004H42.7764C43.66 47.4004 44.377 48.1163 44.377 49V64.7061H20.4004V49C20.4004 48.1163 21.1163 47.4004 22 47.4004Z" fill="#58707F" stroke="#58707F" stroke-width="0.8"/>
<g clip-path="url(#clip3_160_382)">
<path d="M29.5295 49.8584C30.0566 49.8584 30.4825 50.231 30.4825 50.6922V51.526H34.2942V50.6922C34.2942 50.231 34.7201 49.8584 35.2472 49.8584C35.7743 49.8584 36.2001 50.231 36.2001 50.6922V51.526H37.1531C38.2043 51.526 39.0589 52.2739 39.0589 53.1937V60.6981C39.0589 61.6179 38.2043 62.3658 37.1531 62.3658H27.6237C26.5724 62.3658 25.7178 61.6179 25.7178 60.6981V53.1937C25.7178 52.2739 26.5724 51.526 27.6237 51.526H28.5766V50.6922C28.5766 50.231 29.0024 49.8584 29.5295 49.8584ZM27.6237 56.1121V56.9459C27.6237 57.1752 27.8381 57.3628 28.1001 57.3628H29.0531C29.3151 57.3628 29.5295 57.1752 29.5295 56.9459V56.1121C29.5295 55.8828 29.3151 55.6952 29.0531 55.6952H28.1001C27.8381 55.6952 27.6237 55.8828 27.6237 56.1121ZM31.4354 56.1121V56.9459C31.4354 57.1752 31.6498 57.3628 31.9119 57.3628H32.8648C33.1269 57.3628 33.3413 57.1752 33.3413 56.9459V56.1121C33.3413 55.8828 33.1269 55.6952 32.8648 55.6952H31.9119C31.6498 55.6952 31.4354 55.8828 31.4354 56.1121ZM35.7237 55.6952C35.4616 55.6952 35.2472 55.8828 35.2472 56.1121V56.9459C35.2472 57.1752 35.4616 57.3628 35.7237 57.3628H36.6766C36.9387 57.3628 37.1531 57.1752 37.1531 56.9459V56.1121C37.1531 55.8828 36.9387 55.6952 36.6766 55.6952H35.7237ZM27.6237 59.4474V60.2812C27.6237 60.5105 27.8381 60.6981 28.1001 60.6981H29.0531C29.3151 60.6981 29.5295 60.5105 29.5295 60.2812V59.4474C29.5295 59.2181 29.3151 59.0305 29.0531 59.0305H28.1001C27.8381 59.0305 27.6237 59.2181 27.6237 59.4474ZM31.9119 59.0305C31.6498 59.0305 31.4354 59.2181 31.4354 59.4474V60.2812C31.4354 60.5105 31.6498 60.6981 31.9119 60.6981H32.8648C33.1269 60.6981 33.3413 60.5105 33.3413 60.2812V59.4474C33.3413 59.2181 33.1269 59.0305 32.8648 59.0305H31.9119ZM35.2472 59.4474V60.2812C35.2472 60.5105 35.4616 60.6981 35.7237 60.6981H36.6766C36.9387 60.6981 37.1531 60.5105 37.1531 60.2812V59.4474C37.1531 59.2181 36.9387 59.0305 36.6766 59.0305H35.7237C35.4616 59.0305 35.2472 59.2181 35.2472 59.4474Z" fill="white"/>
</g>
<rect x="48.4" y="47.4" width="24.2" height="29.2" rx="1.6" fill="white" stroke="#58707F" stroke-width="0.8"/>
<rect x="54" y="72" width="11.4353" height="1.90588" rx="0.952941" fill="#58707F"/>
<path d="M69.0009 67.9644H51.7747C51.2686 67.9644 50.8584 68.391 50.8584 68.9173C50.8584 69.4436 51.2686 69.8702 51.7747 69.8702H69.0009C69.507 69.8702 69.9172 69.4436 69.9172 68.9173C69.9172 68.391 69.507 67.9644 69.0009 67.9644Z" fill="#58707F"/>
<path d="M50 47.4004H70.7764C71.66 47.4004 72.377 48.1163 72.377 49V64.7061H48.4004V49C48.4004 48.1163 49.1163 47.4004 50 47.4004Z" fill="#58707F" stroke="#58707F" stroke-width="0.8"/>
<g clip-path="url(#clip4_160_382)">
<path d="M57.5295 49.8584C58.0566 49.8584 58.4825 50.231 58.4825 50.6922V51.526H62.2942V50.6922C62.2942 50.231 62.7201 49.8584 63.2472 49.8584C63.7743 49.8584 64.2001 50.231 64.2001 50.6922V51.526H65.1531C66.2043 51.526 67.0589 52.2739 67.0589 53.1937V60.6981C67.0589 61.6179 66.2043 62.3658 65.1531 62.3658H55.6237C54.5724 62.3658 53.7178 61.6179 53.7178 60.6981V53.1937C53.7178 52.2739 54.5724 51.526 55.6237 51.526H56.5766V50.6922C56.5766 50.231 57.0024 49.8584 57.5295 49.8584ZM55.6237 56.1121V56.9459C55.6237 57.1752 55.8381 57.3628 56.1001 57.3628H57.0531C57.3151 57.3628 57.5295 57.1752 57.5295 56.9459V56.1121C57.5295 55.8828 57.3151 55.6952 57.0531 55.6952H56.1001C55.8381 55.6952 55.6237 55.8828 55.6237 56.1121ZM59.4354 56.1121V56.9459C59.4354 57.1752 59.6498 57.3628 59.9119 57.3628H60.8648C61.1269 57.3628 61.3413 57.1752 61.3413 56.9459V56.1121C61.3413 55.8828 61.1269 55.6952 60.8648 55.6952H59.9119C59.6498 55.6952 59.4354 55.8828 59.4354 56.1121ZM63.7237 55.6952C63.4616 55.6952 63.2472 55.8828 63.2472 56.1121V56.9459C63.2472 57.1752 63.4616 57.3628 63.7237 57.3628H64.6766C64.9387 57.3628 65.1531 57.1752 65.1531 56.9459V56.1121C65.1531 55.8828 64.9387 55.6952 64.6766 55.6952H63.7237ZM55.6237 59.4474V60.2812C55.6237 60.5105 55.8381 60.6981 56.1001 60.6981H57.0531C57.3151 60.6981 57.5295 60.5105 57.5295 60.2812V59.4474C57.5295 59.2181 57.3151 59.0305 57.0531 59.0305H56.1001C55.8381 59.0305 55.6237 59.2181 55.6237 59.4474ZM59.9119 59.0305C59.6498 59.0305 59.4354 59.2181 59.4354 59.4474V60.2812C59.4354 60.5105 59.6498 60.6981 59.9119 60.6981H60.8648C61.1269 60.6981 61.3413 60.5105 61.3413 60.2812V59.4474C61.3413 59.2181 61.1269 59.0305 60.8648 59.0305H59.9119ZM63.2472 59.4474V60.2812C63.2472 60.5105 63.4616 60.6981 63.7237 60.6981H64.6766C64.9387 60.6981 65.1531 60.5105 65.1531 60.2812V59.4474C65.1531 59.2181 64.9387 59.0305 64.6766 59.0305H63.7237C63.4616 59.0305 63.2472 59.2181 63.2472 59.4474Z" fill="white"/>
</g>
<rect x="76.4" y="47.4" width="24.2" height="29.2" rx="1.6" fill="white" stroke="#58707F" stroke-width="0.8"/>
<rect x="82" y="72" width="11.4353" height="1.90588" rx="0.952941" fill="#58707F"/>
<path d="M97.0009 67.9644H79.7747C79.2686 67.9644 78.8584 68.391 78.8584 68.9173C78.8584 69.4436 79.2686 69.8702 79.7747 69.8702H97.0009C97.507 69.8702 97.9172 69.4436 97.9172 68.9173C97.9172 68.391 97.507 67.9644 97.0009 67.9644Z" fill="#58707F"/>
<path d="M78 47.4004H98.7764C99.66 47.4004 100.377 48.1163 100.377 49V64.7061H76.4004V49C76.4004 48.1163 77.1163 47.4004 78 47.4004Z" fill="#58707F" stroke="#58707F" stroke-width="0.8"/>
<g clip-path="url(#clip5_160_382)">
<path d="M85.5295 49.8584C86.0566 49.8584 86.4825 50.231 86.4825 50.6922V51.526H90.2942V50.6922C90.2942 50.231 90.7201 49.8584 91.2472 49.8584C91.7743 49.8584 92.2001 50.231 92.2001 50.6922V51.526H93.1531C94.2043 51.526 95.0589 52.2739 95.0589 53.1937V60.6981C95.0589 61.6179 94.2043 62.3658 93.1531 62.3658H83.6237C82.5724 62.3658 81.7178 61.6179 81.7178 60.6981V53.1937C81.7178 52.2739 82.5724 51.526 83.6237 51.526H84.5766V50.6922C84.5766 50.231 85.0024 49.8584 85.5295 49.8584ZM83.6237 56.1121V56.9459C83.6237 57.1752 83.8381 57.3628 84.1001 57.3628H85.0531C85.3151 57.3628 85.5295 57.1752 85.5295 56.9459V56.1121C85.5295 55.8828 85.3151 55.6952 85.0531 55.6952H84.1001C83.8381 55.6952 83.6237 55.8828 83.6237 56.1121ZM87.4354 56.1121V56.9459C87.4354 57.1752 87.6498 57.3628 87.9119 57.3628H88.8648C89.1269 57.3628 89.3413 57.1752 89.3413 56.9459V56.1121C89.3413 55.8828 89.1269 55.6952 88.8648 55.6952H87.9119C87.6498 55.6952 87.4354 55.8828 87.4354 56.1121ZM91.7237 55.6952C91.4616 55.6952 91.2472 55.8828 91.2472 56.1121V56.9459C91.2472 57.1752 91.4616 57.3628 91.7237 57.3628H92.6766C92.9387 57.3628 93.1531 57.1752 93.1531 56.9459V56.1121C93.1531 55.8828 92.9387 55.6952 92.6766 55.6952H91.7237ZM83.6237 59.4474V60.2812C83.6237 60.5105 83.8381 60.6981 84.1001 60.6981H85.0531C85.3151 60.6981 85.5295 60.5105 85.5295 60.2812V59.4474C85.5295 59.2181 85.3151 59.0305 85.0531 59.0305H84.1001C83.8381 59.0305 83.6237 59.2181 83.6237 59.4474ZM87.9119 59.0305C87.6498 59.0305 87.4354 59.2181 87.4354 59.4474V60.2812C87.4354 60.5105 87.6498 60.6981 87.9119 60.6981H88.8648C89.1269 60.6981 89.3413 60.5105 89.3413 60.2812V59.4474C89.3413 59.2181 89.1269 59.0305 88.8648 59.0305H87.9119ZM91.2472 59.4474V60.2812C91.2472 60.5105 91.4616 60.6981 91.7237 60.6981H92.6766C92.9387 60.6981 93.1531 60.5105 93.1531 60.2812V59.4474C93.1531 59.2181 92.9387 59.0305 92.6766 59.0305H91.7237C91.4616 59.0305 91.2472 59.2181 91.2472 59.4474Z" fill="white"/>
</g>
<defs>
<clipPath id="clip0_160_382">
<rect x="25.7178" y="16.8584" width="13.3412" height="13.3412" rx="2" fill="white"/>
</clipPath>
<clipPath id="clip1_160_382">
<rect x="53.7178" y="16.8584" width="13.3412" height="13.3412" rx="2" fill="white"/>
</clipPath>
<clipPath id="clip2_160_382">
<rect x="81.7178" y="16.8584" width="13.3412" height="13.3412" rx="2" fill="white"/>
</clipPath>
<clipPath id="clip3_160_382">
<rect x="25.7178" y="49.8584" width="13.3412" height="13.3412" rx="2" fill="white"/>
</clipPath>
<clipPath id="clip4_160_382">
<rect x="53.7178" y="49.8584" width="13.3412" height="13.3412" rx="2" fill="white"/>
</clipPath>
<clipPath id="clip5_160_382">
<rect x="81.7178" y="49.8584" width="13.3412" height="13.3412" rx="2" fill="white"/>
</clipPath>
</defs>
</svg>
