<svg width="120" height="90" viewBox="0 0 120 90" fill="none" xmlns="http://www.w3.org/2000/svg">
<rect x="0.5" y="0.5" width="119" height="89" rx="2.5" fill="white" stroke="#8796A1"/>
<rect x="19.4" y="8.20005" width="26.2" height="31.6" rx="1.6" fill="white" stroke="#58707F" stroke-width="0.8"/>
<rect x="25.4795" y="34.8" width="12.3501" height="2.05835" rx="1.02918" fill="#58707F"/>
<path d="M41.6809 30.4419H23.0765C22.53 30.4419 22.0869 30.9027 22.0869 31.4711C22.0869 32.0395 22.53 32.5002 23.0765 32.5002H41.6809C42.2274 32.5002 42.6704 32.0395 42.6704 31.4711C42.6704 30.9027 42.2274 30.4419 41.6809 30.4419Z" fill="#58707F"/>
<path d="M21 8.30005H43.7588C44.5871 8.30016 45.2588 8.97169 45.2588 9.80005V26.8547H19.5V9.80005C19.5 8.97162 20.1716 8.30005 21 8.30005Z" fill="#58707F" stroke="#58707F"/>
<g clip-path="url(#clip0_870_1202)">
<path d="M29.2925 10.8875C29.8618 10.8875 30.3217 11.2899 30.3217 11.788V12.6885H34.4384V11.788C34.4384 11.2899 34.8983 10.8875 35.4675 10.8875C36.0368 10.8875 36.4967 11.2899 36.4967 11.788V12.6885H37.5259C38.6612 12.6885 39.5843 13.4962 39.5843 14.4896V22.5943C39.5843 23.5877 38.6612 24.3954 37.5259 24.3954H27.2341C26.0988 24.3954 25.1758 23.5877 25.1758 22.5943V14.4896C25.1758 13.4962 26.0988 12.6885 27.2341 12.6885H28.2633V11.788C28.2633 11.2899 28.7232 10.8875 29.2925 10.8875ZM27.2341 17.6414V18.542C27.2341 18.7896 27.4657 18.9922 27.7487 18.9922H28.7779C29.0609 18.9922 29.2925 18.7896 29.2925 18.542V17.6414C29.2925 17.3938 29.0609 17.1912 28.7779 17.1912H27.7487C27.4657 17.1912 27.2341 17.3938 27.2341 17.6414ZM31.3508 17.6414V18.542C31.3508 18.7896 31.5824 18.9922 31.8654 18.9922H32.8946C33.1776 18.9922 33.4092 18.7896 33.4092 18.542V17.6414C33.4092 17.3938 33.1776 17.1912 32.8946 17.1912H31.8654C31.5824 17.1912 31.3508 17.3938 31.3508 17.6414ZM35.9821 17.1912C35.6991 17.1912 35.4675 17.3938 35.4675 17.6414V18.542C35.4675 18.7896 35.6991 18.9922 35.9821 18.9922H37.0113C37.2943 18.9922 37.5259 18.7896 37.5259 18.542V17.6414C37.5259 17.3938 37.2943 17.1912 37.0113 17.1912H35.9821ZM27.2341 21.2435V22.1441C27.2341 22.3917 27.4657 22.5943 27.7487 22.5943H28.7779C29.0609 22.5943 29.2925 22.3917 29.2925 22.1441V21.2435C29.2925 20.9959 29.0609 20.7933 28.7779 20.7933H27.7487C27.4657 20.7933 27.2341 20.9959 27.2341 21.2435ZM31.8654 20.7933C31.5824 20.7933 31.3508 20.9959 31.3508 21.2435V22.1441C31.3508 22.3917 31.5824 22.5943 31.8654 22.5943H32.8946C33.1776 22.5943 33.4092 22.3917 33.4092 22.1441V21.2435C33.4092 20.9959 33.1776 20.7933 32.8946 20.7933H31.8654ZM35.4675 21.2435V22.1441C35.4675 22.3917 35.6991 22.5943 35.9821 22.5943H37.0113C37.2943 22.5943 37.5259 22.3917 37.5259 22.1441V21.2435C37.5259 20.9959 37.2943 20.7933 37.0113 20.7933H35.9821C35.6991 20.7933 35.4675 20.9959 35.4675 21.2435Z" fill="white"/>
</g>
<rect x="46.4" y="50.4" width="26.2" height="31.6" rx="1.6" fill="white" stroke="#58707F" stroke-width="0.8"/>
<rect x="52.4795" y="77" width="12.3501" height="2.05835" rx="1.02918" fill="#58707F"/>
<path d="M68.6809 72.6418H50.0765C49.53 72.6418 49.0869 73.1026 49.0869 73.671C49.0869 74.2394 49.53 74.7002 50.0765 74.7002H68.6809C69.2274 74.7002 69.6704 74.2394 69.6704 73.671C69.6704 73.1026 69.2274 72.6418 68.6809 72.6418Z" fill="#58707F"/>
<path d="M48 50.5H70.7588C71.5871 50.5001 72.2588 51.1716 72.2588 52V69.0547H46.5V52C46.5 51.1716 47.1716 50.5 48 50.5Z" fill="#58707F" stroke="#58707F"/>
<g clip-path="url(#clip1_870_1202)">
<path d="M56.2925 53.0874C56.8618 53.0874 57.3217 53.4898 57.3217 53.9879V54.8885H61.4384V53.9879C61.4384 53.4898 61.8983 53.0874 62.4675 53.0874C63.0368 53.0874 63.4967 53.4898 63.4967 53.9879V54.8885H64.5259C65.6612 54.8885 66.5843 55.6961 66.5843 56.6895V64.7943C66.5843 65.7877 65.6612 66.5953 64.5259 66.5953H54.2341C53.0988 66.5953 52.1758 65.7877 52.1758 64.7943V56.6895C52.1758 55.6961 53.0988 54.8885 54.2341 54.8885H55.2633V53.9879C55.2633 53.4898 55.7232 53.0874 56.2925 53.0874ZM54.2341 59.8414V60.7419C54.2341 60.9895 54.4657 61.1922 54.7487 61.1922H55.7779C56.0609 61.1922 56.2925 60.9895 56.2925 60.7419V59.8414C56.2925 59.5937 56.0609 59.3911 55.7779 59.3911H54.7487C54.4657 59.3911 54.2341 59.5937 54.2341 59.8414ZM58.3508 59.8414V60.7419C58.3508 60.9895 58.5824 61.1922 58.8654 61.1922H59.8946C60.1776 61.1922 60.4092 60.9895 60.4092 60.7419V59.8414C60.4092 59.5937 60.1776 59.3911 59.8946 59.3911H58.8654C58.5824 59.3911 58.3508 59.5937 58.3508 59.8414ZM62.9821 59.3911C62.6991 59.3911 62.4675 59.5937 62.4675 59.8414V60.7419C62.4675 60.9895 62.6991 61.1922 62.9821 61.1922H64.0113C64.2943 61.1922 64.5259 60.9895 64.5259 60.7419V59.8414C64.5259 59.5937 64.2943 59.3911 64.0113 59.3911H62.9821ZM54.2341 63.4435V64.344C54.2341 64.5917 54.4657 64.7943 54.7487 64.7943H55.7779C56.0609 64.7943 56.2925 64.5917 56.2925 64.344V63.4435C56.2925 63.1958 56.0609 62.9932 55.7779 62.9932H54.7487C54.4657 62.9932 54.2341 63.1958 54.2341 63.4435ZM58.8654 62.9932C58.5824 62.9932 58.3508 63.1958 58.3508 63.4435V64.344C58.3508 64.5917 58.5824 64.7943 58.8654 64.7943H59.8946C60.1776 64.7943 60.4092 64.5917 60.4092 64.344V63.4435C60.4092 63.1958 60.1776 62.9932 59.8946 62.9932H58.8654ZM62.4675 63.4435V64.344C62.4675 64.5917 62.6991 64.7943 62.9821 64.7943H64.0113C64.2943 64.7943 64.5259 64.5917 64.5259 64.344V63.4435C64.5259 63.1958 64.2943 62.9932 64.0113 62.9932H62.9821C62.6991 62.9932 62.4675 63.1958 62.4675 63.4435Z" fill="white"/>
</g>
<rect x="73.4" y="8.4" width="26.2" height="31.6" rx="1.6" fill="white" stroke="#58707F" stroke-width="0.8"/>
<rect x="79.4795" y="35" width="12.3501" height="2.05835" rx="1.02918" fill="#58707F"/>
<path d="M95.6809 30.6418H77.0765C76.53 30.6418 76.0869 31.1026 76.0869 31.671C76.0869 32.2394 76.53 32.7002 77.0765 32.7002H95.6809C96.2274 32.7002 96.6704 32.2394 96.6704 31.671C96.6704 31.1026 96.2274 30.6418 95.6809 30.6418Z" fill="#58707F"/>
<path d="M75 8.5H97.7588C98.5871 8.50011 99.2588 9.17164 99.2588 10V27.0547H73.5V10C73.5 9.17157 74.1716 8.5 75 8.5Z" fill="#58707F" stroke="#58707F"/>
<g clip-path="url(#clip2_870_1202)">
<path d="M83.2925 11.0874C83.8618 11.0874 84.3217 11.4898 84.3217 11.9879V12.8885H88.4384V11.9879C88.4384 11.4898 88.8983 11.0874 89.4675 11.0874C90.0368 11.0874 90.4967 11.4898 90.4967 11.9879V12.8885H91.5259C92.6612 12.8885 93.5843 13.6961 93.5843 14.6895V22.7943C93.5843 23.7877 92.6612 24.5953 91.5259 24.5953H81.2341C80.0988 24.5953 79.1758 23.7877 79.1758 22.7943V14.6895C79.1758 13.6961 80.0988 12.8885 81.2341 12.8885H82.2633V11.9879C82.2633 11.4898 82.7232 11.0874 83.2925 11.0874ZM81.2341 17.8414V18.7419C81.2341 18.9895 81.4657 19.1922 81.7487 19.1922H82.7779C83.0609 19.1922 83.2925 18.9895 83.2925 18.7419V17.8414C83.2925 17.5937 83.0609 17.3911 82.7779 17.3911H81.7487C81.4657 17.3911 81.2341 17.5937 81.2341 17.8414ZM85.3508 17.8414V18.7419C85.3508 18.9895 85.5824 19.1922 85.8654 19.1922H86.8946C87.1776 19.1922 87.4092 18.9895 87.4092 18.7419V17.8414C87.4092 17.5937 87.1776 17.3911 86.8946 17.3911H85.8654C85.5824 17.3911 85.3508 17.5937 85.3508 17.8414ZM89.9821 17.3911C89.6991 17.3911 89.4675 17.5937 89.4675 17.8414V18.7419C89.4675 18.9895 89.6991 19.1922 89.9821 19.1922H91.0113C91.2943 19.1922 91.5259 18.9895 91.5259 18.7419V17.8414C91.5259 17.5937 91.2943 17.3911 91.0113 17.3911H89.9821ZM81.2341 21.4435V22.344C81.2341 22.5917 81.4657 22.7943 81.7487 22.7943H82.7779C83.0609 22.7943 83.2925 22.5917 83.2925 22.344V21.4435C83.2925 21.1958 83.0609 20.9932 82.7779 20.9932H81.7487C81.4657 20.9932 81.2341 21.1958 81.2341 21.4435ZM85.8654 20.9932C85.5824 20.9932 85.3508 21.1958 85.3508 21.4435V22.344C85.3508 22.5917 85.5824 22.7943 85.8654 22.7943H86.8946C87.1776 22.7943 87.4092 22.5917 87.4092 22.344V21.4435C87.4092 21.1958 87.1776 20.9932 86.8946 20.9932H85.8654ZM89.4675 21.4435V22.344C89.4675 22.5917 89.6991 22.7943 89.9821 22.7943H91.0113C91.2943 22.7943 91.5259 22.5917 91.5259 22.344V21.4435C91.5259 21.1958 91.2943 20.9932 91.0113 20.9932H89.9821C89.6991 20.9932 89.4675 21.1958 89.4675 21.4435Z" fill="white"/>
</g>
<path d="M12 44H106V46H12V44Z" fill="#9EA9B2"/>
<circle cx="32" cy="45" r="2.5" fill="white" stroke="#58707F"/>
<circle cx="86" cy="45" r="2.5" fill="white" stroke="#58707F"/>
<circle cx="59" cy="45" r="2.5" fill="white" stroke="#58707F"/>
<rect x="31" y="40" width="2" height="3" fill="#58707F"/>
<rect x="85" y="40" width="2" height="3" fill="#58707F"/>
<rect x="58" y="47" width="2" height="4" fill="#58707F"/>
<circle cx="107" cy="45" r="3.5" fill="#58707F" stroke="#58707F"/>
<path d="M108.898 45.2124L106.923 46.9119C106.786 47.0294 106.566 47.0294 106.431 46.9119L106.102 46.6295C105.966 46.512 105.966 46.3221 106.102 46.2059L107.502 45.0012L106.102 43.7966C105.966 43.6792 105.966 43.4892 106.102 43.373L106.429 43.0881C106.566 42.9706 106.786 42.9706 106.921 43.0881L108.896 44.7876C109.034 44.905 109.034 45.095 108.898 45.2124Z" fill="white"/>
<circle cx="13" cy="45" r="3.5" fill="#58707F" stroke="#58707F"/>
<path d="M11.1022 44.7876L13.0771 43.0881C13.2137 42.9706 13.4344 42.9706 13.5694 43.0881L13.8976 43.3705C14.0341 43.488 14.0341 43.6779 13.8976 43.7941L12.4977 44.9988L13.8976 46.2034C14.0341 46.3208 14.0341 46.5108 13.8976 46.627L13.5709 46.9119C13.4344 47.0294 13.2137 47.0294 13.0786 46.9119L11.1036 45.2124C10.9657 45.095 10.9657 44.905 11.1022 44.7876Z" fill="white"/>
<defs>
<clipPath id="clip0_870_1202">
<rect x="25.1758" y="10.8875" width="14.4085" height="14.4085" rx="2" fill="white"/>
</clipPath>
<clipPath id="clip1_870_1202">
<rect x="52.1758" y="53.0874" width="14.4085" height="14.4085" rx="2" fill="white"/>
</clipPath>
<clipPath id="clip2_870_1202">
<rect x="79.1758" y="11.0874" width="14.4085" height="14.4085" rx="2" fill="white"/>
</clipPath>
</defs>
</svg>
