<svg width="90" height="60" viewBox="0 0 90 60" fill="none" xmlns="http://www.w3.org/2000/svg">
<rect x="0.5" y="0.5" width="89" height="59" rx="2.5" fill="white" stroke="#8796A1"/>
<rect x="8.4" y="6.4" width="75.0064" height="21.7806" rx="1.6" fill="white" stroke="#58707F" stroke-width="0.8"/>
<rect x="37.0322" y="14.8708" width="39.5161" height="1.6129" rx="0.806452" fill="#58707F"/>
<rect x="37.0322" y="18.0967" width="33.871" height="1.6129" rx="0.806452" fill="#58707F"/>
<rect x="37.0322" y="21.3225" width="12.9032" height="1.6129" rx="0.806452" fill="#58707F"/>
<path d="M55.4565 10.0322H37.9627C37.4488 10.0322 37.0322 10.4836 37.0322 11.0403C37.0322 11.597 37.4488 12.0484 37.9627 12.0484H55.4565C55.9705 12.0484 56.3871 11.597 56.3871 11.0403C56.3871 10.4836 55.9705 10.0322 55.4565 10.0322Z" fill="#58707F"/>
<path d="M10 6.40039H33.4062V28.1807H10C9.11648 28.1807 8.40061 27.4645 8.40039 26.5811V8C8.40039 7.11634 9.11635 6.40039 10 6.40039Z" fill="#58707F" stroke="#58707F" stroke-width="0.8"/>
<g clip-path="url(#clip0_161_753)">
<path d="M18.4841 11.6453C18.9302 11.6453 19.2906 11.9606 19.2906 12.3509V13.0566H22.5164V12.3509C22.5164 11.9606 22.8767 11.6453 23.3228 11.6453C23.7689 11.6453 24.1293 11.9606 24.1293 12.3509V13.0566H24.9357C25.8253 13.0566 26.5486 13.6894 26.5486 14.4678V20.8187C26.5486 21.5971 25.8253 22.2299 24.9357 22.2299H16.8712C15.9816 22.2299 15.2583 21.5971 15.2583 20.8187V14.4678C15.2583 13.6894 15.9816 13.0566 16.8712 13.0566H17.6777V12.3509C17.6777 11.9606 18.038 11.6453 18.4841 11.6453ZM16.8712 16.9376V17.6432C16.8712 17.8373 17.0527 17.9961 17.2744 17.9961H18.0809C18.3027 17.9961 18.4841 17.8373 18.4841 17.6432V16.9376C18.4841 16.7435 18.3027 16.5848 18.0809 16.5848H17.2744C17.0527 16.5848 16.8712 16.7435 16.8712 16.9376ZM20.097 16.9376V17.6432C20.097 17.8373 20.2785 17.9961 20.5002 17.9961H21.3067C21.5285 17.9961 21.7099 17.8373 21.7099 17.6432V16.9376C21.7099 16.7435 21.5285 16.5848 21.3067 16.5848H20.5002C20.2785 16.5848 20.097 16.7435 20.097 16.9376ZM23.726 16.5848C23.5043 16.5848 23.3228 16.7435 23.3228 16.9376V17.6432C23.3228 17.8373 23.5043 17.9961 23.726 17.9961H24.5325C24.7543 17.9961 24.9357 17.8373 24.9357 17.6432V16.9376C24.9357 16.7435 24.7543 16.5848 24.5325 16.5848H23.726ZM16.8712 19.7602V20.4658C16.8712 20.6599 17.0527 20.8187 17.2744 20.8187H18.0809C18.3027 20.8187 18.4841 20.6599 18.4841 20.4658V19.7602C18.4841 19.5661 18.3027 19.4074 18.0809 19.4074H17.2744C17.0527 19.4074 16.8712 19.5661 16.8712 19.7602ZM20.5002 19.4074C20.2785 19.4074 20.097 19.5661 20.097 19.7602V20.4658C20.097 20.6599 20.2785 20.8187 20.5002 20.8187H21.3067C21.5285 20.8187 21.7099 20.6599 21.7099 20.4658V19.7602C21.7099 19.5661 21.5285 19.4074 21.3067 19.4074H20.5002ZM23.3228 19.7602V20.4658C23.3228 20.6599 23.5043 20.8187 23.726 20.8187H24.5325C24.7543 20.8187 24.9357 20.6599 24.9357 20.4658V19.7602C24.9357 19.5661 24.7543 19.4074 24.5325 19.4074H23.726C23.5043 19.4074 23.3228 19.5661 23.3228 19.7602Z" fill="white"/>
</g>
<rect x="8.4" y="32.8194" width="75.0064" height="21.7806" rx="1.6" fill="white" stroke="#58707F" stroke-width="0.8"/>
<rect x="37.0322" y="41.2903" width="39.5161" height="1.6129" rx="0.806452" fill="#58707F"/>
<rect x="37.0322" y="44.5161" width="33.871" height="1.6129" rx="0.806452" fill="#58707F"/>
<rect x="37.0322" y="47.7419" width="12.9032" height="1.6129" rx="0.806452" fill="#58707F"/>
<path d="M55.4565 36.4517H37.9627C37.4488 36.4517 37.0322 36.903 37.0322 37.4597C37.0322 38.0165 37.4488 38.4678 37.9627 38.4678H55.4565C55.9705 38.4678 56.3871 38.0165 56.3871 37.4597C56.3871 36.903 55.9705 36.4517 55.4565 36.4517Z" fill="#58707F"/>
<path d="M10 32.8198H33.4062V54.6001H10C9.11648 54.6001 8.40061 53.884 8.40039 53.0005V34.4194C8.40039 33.5358 9.11635 32.8198 10 32.8198Z" fill="#58707F" stroke="#58707F" stroke-width="0.8"/>
<g clip-path="url(#clip1_161_753)">
<path d="M18.4841 38.0645C18.9302 38.0645 19.2906 38.3798 19.2906 38.7701V39.4757H22.5164V38.7701C22.5164 38.3798 22.8767 38.0645 23.3228 38.0645C23.7689 38.0645 24.1293 38.3798 24.1293 38.7701V39.4757H24.9357C25.8253 39.4757 26.5486 40.1086 26.5486 40.887V47.2378C26.5486 48.0163 25.8253 48.6491 24.9357 48.6491H16.8712C15.9816 48.6491 15.2583 48.0163 15.2583 47.2378V40.887C15.2583 40.1086 15.9816 39.4757 16.8712 39.4757H17.6777V38.7701C17.6777 38.3798 18.038 38.0645 18.4841 38.0645ZM16.8712 43.3568V44.0624C16.8712 44.2565 17.0527 44.4153 17.2744 44.4153H18.0809C18.3027 44.4153 18.4841 44.2565 18.4841 44.0624V43.3568C18.4841 43.1627 18.3027 43.004 18.0809 43.004H17.2744C17.0527 43.004 16.8712 43.1627 16.8712 43.3568ZM20.097 43.3568V44.0624C20.097 44.2565 20.2785 44.4153 20.5002 44.4153H21.3067C21.5285 44.4153 21.7099 44.2565 21.7099 44.0624V43.3568C21.7099 43.1627 21.5285 43.004 21.3067 43.004H20.5002C20.2785 43.004 20.097 43.1627 20.097 43.3568ZM23.726 43.004C23.5043 43.004 23.3228 43.1627 23.3228 43.3568V44.0624C23.3228 44.2565 23.5043 44.4153 23.726 44.4153H24.5325C24.7543 44.4153 24.9357 44.2565 24.9357 44.0624V43.3568C24.9357 43.1627 24.7543 43.004 24.5325 43.004H23.726ZM16.8712 46.1794V46.885C16.8712 47.0791 17.0527 47.2378 17.2744 47.2378H18.0809C18.3027 47.2378 18.4841 47.0791 18.4841 46.885V46.1794C18.4841 45.9853 18.3027 45.8265 18.0809 45.8265H17.2744C17.0527 45.8265 16.8712 45.9853 16.8712 46.1794ZM20.5002 45.8265C20.2785 45.8265 20.097 45.9853 20.097 46.1794V46.885C20.097 47.0791 20.2785 47.2378 20.5002 47.2378H21.3067C21.5285 47.2378 21.7099 47.0791 21.7099 46.885V46.1794C21.7099 45.9853 21.5285 45.8265 21.3067 45.8265H20.5002ZM23.3228 46.1794V46.885C23.3228 47.0791 23.5043 47.2378 23.726 47.2378H24.5325C24.7543 47.2378 24.9357 47.0791 24.9357 46.885V46.1794C24.9357 45.9853 24.7543 45.8265 24.5325 45.8265H23.726C23.5043 45.8265 23.3228 45.9853 23.3228 46.1794Z" fill="white"/>
</g>
<defs>
<clipPath id="clip0_161_753">
<rect x="15.2583" y="11.6453" width="11.2903" height="11.2903" rx="2" fill="white"/>
</clipPath>
<clipPath id="clip1_161_753">
<rect x="15.2583" y="38.0645" width="11.2903" height="11.2903" rx="2" fill="white"/>
</clipPath>
</defs>
</svg>
