<svg width="120" height="90" viewBox="0 0 120 90" fill="none" xmlns="http://www.w3.org/2000/svg">
<rect x="0.5" y="0.5" width="119" height="89" rx="2.5" fill="white" stroke="#8796A1"/>
<rect x="0.5" y="0.5" width="119" height="89" rx="2.5" fill="white" stroke="#8796A1"/>
<rect x="13.4" y="13.4" width="93.2" height="19.2" rx="1.6" fill="white" stroke="#58707F" stroke-width="0.8"/>
<rect x="39" y="23" width="49" height="2" rx="1" fill="#58707F"/>
<rect x="39" y="27" width="42" height="2" rx="1" fill="#58707F"/>
<path d="M61.8462 17H40.1538C39.5166 17 39 17.5596 39 18.25C39 18.9404 39.5166 19.5 40.1538 19.5H61.8462C62.4834 19.5 63 18.9404 63 18.25C63 17.5596 62.4834 17 61.8462 17Z" fill="#58707F"/>
<path d="M15 13.4004H32.5996V32.5996H15C14.1163 32.5996 13.4004 31.8837 13.4004 31V15C13.4004 14.1163 14.1163 13.4004 15 13.4004Z" fill="#58707F" stroke="#58707F" stroke-width="0.8"/>
<g clip-path="url(#clip0_694_92)">
<path d="M20.8571 18C21.2522 18 21.5714 18.2793 21.5714 18.625V19.25H24.4286V18.625C24.4286 18.2793 24.7478 18 25.1429 18C25.5379 18 25.8571 18.2793 25.8571 18.625V19.25H26.5714C27.3594 19.25 28 19.8105 28 20.5V26.125C28 26.8145 27.3594 27.375 26.5714 27.375H19.4286C18.6406 27.375 18 26.8145 18 26.125V20.5C18 19.8105 18.6406 19.25 19.4286 19.25H20.1429V18.625C20.1429 18.2793 20.4621 18 20.8571 18ZM19.4286 22.6875V23.3125C19.4286 23.4844 19.5893 23.625 19.7857 23.625H20.5C20.6964 23.625 20.8571 23.4844 20.8571 23.3125V22.6875C20.8571 22.5156 20.6964 22.375 20.5 22.375H19.7857C19.5893 22.375 19.4286 22.5156 19.4286 22.6875ZM22.2857 22.6875V23.3125C22.2857 23.4844 22.4464 23.625 22.6429 23.625H23.3571C23.5536 23.625 23.7143 23.4844 23.7143 23.3125V22.6875C23.7143 22.5156 23.5536 22.375 23.3571 22.375H22.6429C22.4464 22.375 22.2857 22.5156 22.2857 22.6875ZM25.5 22.375C25.3036 22.375 25.1429 22.5156 25.1429 22.6875V23.3125C25.1429 23.4844 25.3036 23.625 25.5 23.625H26.2143C26.4107 23.625 26.5714 23.4844 26.5714 23.3125V22.6875C26.5714 22.5156 26.4107 22.375 26.2143 22.375H25.5ZM19.4286 25.1875V25.8125C19.4286 25.9844 19.5893 26.125 19.7857 26.125H20.5C20.6964 26.125 20.8571 25.9844 20.8571 25.8125V25.1875C20.8571 25.0156 20.6964 24.875 20.5 24.875H19.7857C19.5893 24.875 19.4286 25.0156 19.4286 25.1875ZM22.6429 24.875C22.4464 24.875 22.2857 25.0156 22.2857 25.1875V25.8125C22.2857 25.9844 22.4464 26.125 22.6429 26.125H23.3571C23.5536 26.125 23.7143 25.9844 23.7143 25.8125V25.1875C23.7143 25.0156 23.5536 24.875 23.3571 24.875H22.6429ZM25.1429 25.1875V25.8125C25.1429 25.9844 25.3036 26.125 25.5 26.125H26.2143C26.4107 26.125 26.5714 25.9844 26.5714 25.8125V25.1875C26.5714 25.0156 26.4107 24.875 26.2143 24.875H25.5C25.3036 24.875 25.1429 25.0156 25.1429 25.1875Z" fill="white"/>
</g>
<rect x="13.4" y="35.4" width="93.2" height="19.2" rx="1.6" fill="white" stroke="#58707F" stroke-width="0.8"/>
<rect x="39" y="45" width="49" height="2" rx="1" fill="#58707F"/>
<rect x="39" y="49" width="42" height="2" rx="1" fill="#58707F"/>
<path d="M61.8462 39H40.1538C39.5166 39 39 39.5596 39 40.25C39 40.9404 39.5166 41.5 40.1538 41.5H61.8462C62.4834 41.5 63 40.9404 63 40.25C63 39.5596 62.4834 39 61.8462 39Z" fill="#58707F"/>
<path d="M15 35.4004H32.5996V54.5996H15C14.1163 54.5996 13.4004 53.8837 13.4004 53V37C13.4004 36.1163 14.1163 35.4004 15 35.4004Z" fill="#58707F" stroke="#58707F" stroke-width="0.8"/>
<g clip-path="url(#clip1_694_92)">
<path d="M20.8571 40C21.2522 40 21.5714 40.2793 21.5714 40.625V41.25H24.4286V40.625C24.4286 40.2793 24.7478 40 25.1429 40C25.5379 40 25.8571 40.2793 25.8571 40.625V41.25H26.5714C27.3594 41.25 28 41.8105 28 42.5V48.125C28 48.8145 27.3594 49.375 26.5714 49.375H19.4286C18.6406 49.375 18 48.8145 18 48.125V42.5C18 41.8105 18.6406 41.25 19.4286 41.25H20.1429V40.625C20.1429 40.2793 20.4621 40 20.8571 40ZM19.4286 44.6875V45.3125C19.4286 45.4844 19.5893 45.625 19.7857 45.625H20.5C20.6964 45.625 20.8571 45.4844 20.8571 45.3125V44.6875C20.8571 44.5156 20.6964 44.375 20.5 44.375H19.7857C19.5893 44.375 19.4286 44.5156 19.4286 44.6875ZM22.2857 44.6875V45.3125C22.2857 45.4844 22.4464 45.625 22.6429 45.625H23.3571C23.5536 45.625 23.7143 45.4844 23.7143 45.3125V44.6875C23.7143 44.5156 23.5536 44.375 23.3571 44.375H22.6429C22.4464 44.375 22.2857 44.5156 22.2857 44.6875ZM25.5 44.375C25.3036 44.375 25.1429 44.5156 25.1429 44.6875V45.3125C25.1429 45.4844 25.3036 45.625 25.5 45.625H26.2143C26.4107 45.625 26.5714 45.4844 26.5714 45.3125V44.6875C26.5714 44.5156 26.4107 44.375 26.2143 44.375H25.5ZM19.4286 47.1875V47.8125C19.4286 47.9844 19.5893 48.125 19.7857 48.125H20.5C20.6964 48.125 20.8571 47.9844 20.8571 47.8125V47.1875C20.8571 47.0156 20.6964 46.875 20.5 46.875H19.7857C19.5893 46.875 19.4286 47.0156 19.4286 47.1875ZM22.6429 46.875C22.4464 46.875 22.2857 47.0156 22.2857 47.1875V47.8125C22.2857 47.9844 22.4464 48.125 22.6429 48.125H23.3571C23.5536 48.125 23.7143 47.9844 23.7143 47.8125V47.1875C23.7143 47.0156 23.5536 46.875 23.3571 46.875H22.6429ZM25.1429 47.1875V47.8125C25.1429 47.9844 25.3036 48.125 25.5 48.125H26.2143C26.4107 48.125 26.5714 47.9844 26.5714 47.8125V47.1875C26.5714 47.0156 26.4107 46.875 26.2143 46.875H25.5C25.3036 46.875 25.1429 47.0156 25.1429 47.1875Z" fill="white"/>
</g>
<rect x="13.4" y="57.4" width="93.2" height="19.2" rx="1.6" fill="white" stroke="#58707F" stroke-width="0.8"/>
<rect x="39" y="67" width="49" height="2" rx="1" fill="#58707F"/>
<rect x="39" y="71" width="42" height="2" rx="1" fill="#58707F"/>
<path d="M61.8462 61H40.1538C39.5166 61 39 61.5596 39 62.25C39 62.9404 39.5166 63.5 40.1538 63.5H61.8462C62.4834 63.5 63 62.9404 63 62.25C63 61.5596 62.4834 61 61.8462 61Z" fill="#58707F"/>
<path d="M15 57.4004H32.5996V76.5996H15C14.1163 76.5996 13.4004 75.8837 13.4004 75V59C13.4004 58.1163 14.1163 57.4004 15 57.4004Z" fill="#58707F" stroke="#58707F" stroke-width="0.8"/>
<g clip-path="url(#clip2_694_92)">
<path d="M20.8571 62C21.2522 62 21.5714 62.2793 21.5714 62.625V63.25H24.4286V62.625C24.4286 62.2793 24.7478 62 25.1429 62C25.5379 62 25.8571 62.2793 25.8571 62.625V63.25H26.5714C27.3594 63.25 28 63.8105 28 64.5V70.125C28 70.8145 27.3594 71.375 26.5714 71.375H19.4286C18.6406 71.375 18 70.8145 18 70.125V64.5C18 63.8105 18.6406 63.25 19.4286 63.25H20.1429V62.625C20.1429 62.2793 20.4621 62 20.8571 62ZM19.4286 66.6875V67.3125C19.4286 67.4844 19.5893 67.625 19.7857 67.625H20.5C20.6964 67.625 20.8571 67.4844 20.8571 67.3125V66.6875C20.8571 66.5156 20.6964 66.375 20.5 66.375H19.7857C19.5893 66.375 19.4286 66.5156 19.4286 66.6875ZM22.2857 66.6875V67.3125C22.2857 67.4844 22.4464 67.625 22.6429 67.625H23.3571C23.5536 67.625 23.7143 67.4844 23.7143 67.3125V66.6875C23.7143 66.5156 23.5536 66.375 23.3571 66.375H22.6429C22.4464 66.375 22.2857 66.5156 22.2857 66.6875ZM25.5 66.375C25.3036 66.375 25.1429 66.5156 25.1429 66.6875V67.3125C25.1429 67.4844 25.3036 67.625 25.5 67.625H26.2143C26.4107 67.625 26.5714 67.4844 26.5714 67.3125V66.6875C26.5714 66.5156 26.4107 66.375 26.2143 66.375H25.5ZM19.4286 69.1875V69.8125C19.4286 69.9844 19.5893 70.125 19.7857 70.125H20.5C20.6964 70.125 20.8571 69.9844 20.8571 69.8125V69.1875C20.8571 69.0156 20.6964 68.875 20.5 68.875H19.7857C19.5893 68.875 19.4286 69.0156 19.4286 69.1875ZM22.6429 68.875C22.4464 68.875 22.2857 69.0156 22.2857 69.1875V69.8125C22.2857 69.9844 22.4464 70.125 22.6429 70.125H23.3571C23.5536 70.125 23.7143 69.9844 23.7143 69.8125V69.1875C23.7143 69.0156 23.5536 68.875 23.3571 68.875H22.6429ZM25.1429 69.1875V69.8125C25.1429 69.9844 25.3036 70.125 25.5 70.125H26.2143C26.4107 70.125 26.5714 69.9844 26.5714 69.8125V69.1875C26.5714 69.0156 26.4107 68.875 26.2143 68.875H25.5C25.3036 68.875 25.1429 69.0156 25.1429 69.1875Z" fill="white"/>
</g>
<rect x="13.4" y="13.4" width="93.2" height="19.2" rx="1.6" fill="white" stroke="#58707F" stroke-width="0.8"/>
<rect x="39" y="23" width="49" height="2" rx="1" fill="#58707F"/>
<rect x="39" y="27" width="42" height="2" rx="1" fill="#58707F"/>
<path d="M61.8462 17H40.1538C39.5166 17 39 17.5596 39 18.25C39 18.9404 39.5166 19.5 40.1538 19.5H61.8462C62.4834 19.5 63 18.9404 63 18.25C63 17.5596 62.4834 17 61.8462 17Z" fill="#58707F"/>
<path d="M15 13.4004H32.5996V32.5996H15C14.1163 32.5996 13.4004 31.8837 13.4004 31V15C13.4004 14.1163 14.1163 13.4004 15 13.4004Z" fill="#58707F" stroke="#58707F" stroke-width="0.8"/>
<g clip-path="url(#clip3_694_92)">
<path d="M20.8571 18C21.2522 18 21.5714 18.2793 21.5714 18.625V19.25H24.4286V18.625C24.4286 18.2793 24.7478 18 25.1429 18C25.5379 18 25.8571 18.2793 25.8571 18.625V19.25H26.5714C27.3594 19.25 28 19.8105 28 20.5V26.125C28 26.8145 27.3594 27.375 26.5714 27.375H19.4286C18.6406 27.375 18 26.8145 18 26.125V20.5C18 19.8105 18.6406 19.25 19.4286 19.25H20.1429V18.625C20.1429 18.2793 20.4621 18 20.8571 18ZM19.4286 22.6875V23.3125C19.4286 23.4844 19.5893 23.625 19.7857 23.625H20.5C20.6964 23.625 20.8571 23.4844 20.8571 23.3125V22.6875C20.8571 22.5156 20.6964 22.375 20.5 22.375H19.7857C19.5893 22.375 19.4286 22.5156 19.4286 22.6875ZM22.2857 22.6875V23.3125C22.2857 23.4844 22.4464 23.625 22.6429 23.625H23.3571C23.5536 23.625 23.7143 23.4844 23.7143 23.3125V22.6875C23.7143 22.5156 23.5536 22.375 23.3571 22.375H22.6429C22.4464 22.375 22.2857 22.5156 22.2857 22.6875ZM25.5 22.375C25.3036 22.375 25.1429 22.5156 25.1429 22.6875V23.3125C25.1429 23.4844 25.3036 23.625 25.5 23.625H26.2143C26.4107 23.625 26.5714 23.4844 26.5714 23.3125V22.6875C26.5714 22.5156 26.4107 22.375 26.2143 22.375H25.5ZM19.4286 25.1875V25.8125C19.4286 25.9844 19.5893 26.125 19.7857 26.125H20.5C20.6964 26.125 20.8571 25.9844 20.8571 25.8125V25.1875C20.8571 25.0156 20.6964 24.875 20.5 24.875H19.7857C19.5893 24.875 19.4286 25.0156 19.4286 25.1875ZM22.6429 24.875C22.4464 24.875 22.2857 25.0156 22.2857 25.1875V25.8125C22.2857 25.9844 22.4464 26.125 22.6429 26.125H23.3571C23.5536 26.125 23.7143 25.9844 23.7143 25.8125V25.1875C23.7143 25.0156 23.5536 24.875 23.3571 24.875H22.6429ZM25.1429 25.1875V25.8125C25.1429 25.9844 25.3036 26.125 25.5 26.125H26.2143C26.4107 26.125 26.5714 25.9844 26.5714 25.8125V25.1875C26.5714 25.0156 26.4107 24.875 26.2143 24.875H25.5C25.3036 24.875 25.1429 25.0156 25.1429 25.1875Z" fill="white"/>
</g>
<rect x="13.4" y="35.4" width="93.2" height="19.2" rx="1.6" fill="white" stroke="#58707F" stroke-width="0.8"/>
<rect x="39" y="45" width="49" height="2" rx="1" fill="#58707F"/>
<rect x="39" y="49" width="42" height="2" rx="1" fill="#58707F"/>
<path d="M61.8462 39H40.1538C39.5166 39 39 39.5596 39 40.25C39 40.9404 39.5166 41.5 40.1538 41.5H61.8462C62.4834 41.5 63 40.9404 63 40.25C63 39.5596 62.4834 39 61.8462 39Z" fill="#58707F"/>
<path d="M15 35.4004H32.5996V54.5996H15C14.1163 54.5996 13.4004 53.8837 13.4004 53V37C13.4004 36.1163 14.1163 35.4004 15 35.4004Z" fill="#58707F" stroke="#58707F" stroke-width="0.8"/>
<g clip-path="url(#clip4_694_92)">
<path d="M20.8571 40C21.2522 40 21.5714 40.2793 21.5714 40.625V41.25H24.4286V40.625C24.4286 40.2793 24.7478 40 25.1429 40C25.5379 40 25.8571 40.2793 25.8571 40.625V41.25H26.5714C27.3594 41.25 28 41.8105 28 42.5V48.125C28 48.8145 27.3594 49.375 26.5714 49.375H19.4286C18.6406 49.375 18 48.8145 18 48.125V42.5C18 41.8105 18.6406 41.25 19.4286 41.25H20.1429V40.625C20.1429 40.2793 20.4621 40 20.8571 40ZM19.4286 44.6875V45.3125C19.4286 45.4844 19.5893 45.625 19.7857 45.625H20.5C20.6964 45.625 20.8571 45.4844 20.8571 45.3125V44.6875C20.8571 44.5156 20.6964 44.375 20.5 44.375H19.7857C19.5893 44.375 19.4286 44.5156 19.4286 44.6875ZM22.2857 44.6875V45.3125C22.2857 45.4844 22.4464 45.625 22.6429 45.625H23.3571C23.5536 45.625 23.7143 45.4844 23.7143 45.3125V44.6875C23.7143 44.5156 23.5536 44.375 23.3571 44.375H22.6429C22.4464 44.375 22.2857 44.5156 22.2857 44.6875ZM25.5 44.375C25.3036 44.375 25.1429 44.5156 25.1429 44.6875V45.3125C25.1429 45.4844 25.3036 45.625 25.5 45.625H26.2143C26.4107 45.625 26.5714 45.4844 26.5714 45.3125V44.6875C26.5714 44.5156 26.4107 44.375 26.2143 44.375H25.5ZM19.4286 47.1875V47.8125C19.4286 47.9844 19.5893 48.125 19.7857 48.125H20.5C20.6964 48.125 20.8571 47.9844 20.8571 47.8125V47.1875C20.8571 47.0156 20.6964 46.875 20.5 46.875H19.7857C19.5893 46.875 19.4286 47.0156 19.4286 47.1875ZM22.6429 46.875C22.4464 46.875 22.2857 47.0156 22.2857 47.1875V47.8125C22.2857 47.9844 22.4464 48.125 22.6429 48.125H23.3571C23.5536 48.125 23.7143 47.9844 23.7143 47.8125V47.1875C23.7143 47.0156 23.5536 46.875 23.3571 46.875H22.6429ZM25.1429 47.1875V47.8125C25.1429 47.9844 25.3036 48.125 25.5 48.125H26.2143C26.4107 48.125 26.5714 47.9844 26.5714 47.8125V47.1875C26.5714 47.0156 26.4107 46.875 26.2143 46.875H25.5C25.3036 46.875 25.1429 47.0156 25.1429 47.1875Z" fill="white"/>
</g>
<rect x="13.4" y="57.4" width="93.2" height="19.2" rx="1.6" fill="white" stroke="#58707F" stroke-width="0.8"/>
<rect x="39" y="67" width="49" height="2" rx="1" fill="#58707F"/>
<rect x="39" y="71" width="42" height="2" rx="1" fill="#58707F"/>
<path d="M61.8462 61H40.1538C39.5166 61 39 61.5596 39 62.25C39 62.9404 39.5166 63.5 40.1538 63.5H61.8462C62.4834 63.5 63 62.9404 63 62.25C63 61.5596 62.4834 61 61.8462 61Z" fill="#58707F"/>
<path d="M15 57.4004H32.5996V76.5996H15C14.1163 76.5996 13.4004 75.8837 13.4004 75V59C13.4004 58.1163 14.1163 57.4004 15 57.4004Z" fill="#58707F" stroke="#58707F" stroke-width="0.8"/>
<g clip-path="url(#clip5_694_92)">
<path d="M20.8571 62C21.2522 62 21.5714 62.2793 21.5714 62.625V63.25H24.4286V62.625C24.4286 62.2793 24.7478 62 25.1429 62C25.5379 62 25.8571 62.2793 25.8571 62.625V63.25H26.5714C27.3594 63.25 28 63.8105 28 64.5V70.125C28 70.8145 27.3594 71.375 26.5714 71.375H19.4286C18.6406 71.375 18 70.8145 18 70.125V64.5C18 63.8105 18.6406 63.25 19.4286 63.25H20.1429V62.625C20.1429 62.2793 20.4621 62 20.8571 62ZM19.4286 66.6875V67.3125C19.4286 67.4844 19.5893 67.625 19.7857 67.625H20.5C20.6964 67.625 20.8571 67.4844 20.8571 67.3125V66.6875C20.8571 66.5156 20.6964 66.375 20.5 66.375H19.7857C19.5893 66.375 19.4286 66.5156 19.4286 66.6875ZM22.2857 66.6875V67.3125C22.2857 67.4844 22.4464 67.625 22.6429 67.625H23.3571C23.5536 67.625 23.7143 67.4844 23.7143 67.3125V66.6875C23.7143 66.5156 23.5536 66.375 23.3571 66.375H22.6429C22.4464 66.375 22.2857 66.5156 22.2857 66.6875ZM25.5 66.375C25.3036 66.375 25.1429 66.5156 25.1429 66.6875V67.3125C25.1429 67.4844 25.3036 67.625 25.5 67.625H26.2143C26.4107 67.625 26.5714 67.4844 26.5714 67.3125V66.6875C26.5714 66.5156 26.4107 66.375 26.2143 66.375H25.5ZM19.4286 69.1875V69.8125C19.4286 69.9844 19.5893 70.125 19.7857 70.125H20.5C20.6964 70.125 20.8571 69.9844 20.8571 69.8125V69.1875C20.8571 69.0156 20.6964 68.875 20.5 68.875H19.7857C19.5893 68.875 19.4286 69.0156 19.4286 69.1875ZM22.6429 68.875C22.4464 68.875 22.2857 69.0156 22.2857 69.1875V69.8125C22.2857 69.9844 22.4464 70.125 22.6429 70.125H23.3571C23.5536 70.125 23.7143 69.9844 23.7143 69.8125V69.1875C23.7143 69.0156 23.5536 68.875 23.3571 68.875H22.6429ZM25.1429 69.1875V69.8125C25.1429 69.9844 25.3036 70.125 25.5 70.125H26.2143C26.4107 70.125 26.5714 69.9844 26.5714 69.8125V69.1875C26.5714 69.0156 26.4107 68.875 26.2143 68.875H25.5C25.3036 68.875 25.1429 69.0156 25.1429 69.1875Z" fill="white"/>
</g>
<defs>
<clipPath id="clip0_694_92">
<rect x="18" y="18" width="10" height="10" rx="2" fill="white"/>
</clipPath>
<clipPath id="clip1_694_92">
<rect x="18" y="40" width="10" height="10" rx="2" fill="white"/>
</clipPath>
<clipPath id="clip2_694_92">
<rect x="18" y="62" width="10" height="10" rx="2" fill="white"/>
</clipPath>
<clipPath id="clip3_694_92">
<rect x="18" y="18" width="10" height="10" rx="2" fill="white"/>
</clipPath>
<clipPath id="clip4_694_92">
<rect x="18" y="40" width="10" height="10" rx="2" fill="white"/>
</clipPath>
<clipPath id="clip5_694_92">
<rect x="18" y="62" width="10" height="10" rx="2" fill="white"/>
</clipPath>
</defs>
</svg>
