<svg width="120" height="90" viewBox="0 0 120 90" fill="none" xmlns="http://www.w3.org/2000/svg">
<rect x="0.5" y="0.5" width="119" height="89" rx="2.5" fill="white" stroke="#8796A1"/>
<rect x="13.4" y="14.4" width="93.2" height="27.2" rx="1.6" fill="white" stroke="#58707F" stroke-width="0.8"/>
<rect x="49" y="25" width="49" height="2" rx="1" fill="#58707F"/>
<rect x="49" y="29" width="42" height="2" rx="1" fill="#58707F"/>
<rect x="49" y="33" width="16" height="2" rx="1" fill="#58707F"/>
<path d="M71.8462 19H50.1538C49.5166 19 49 19.5596 49 20.25C49 20.9404 49.5166 21.5 50.1538 21.5H71.8462C72.4834 21.5 73 20.9404 73 20.25C73 19.5596 72.4834 19 71.8462 19Z" fill="#58707F"/>
<path d="M15 14.4004H44.5996V41.5996H15C14.1163 41.5996 13.4004 40.8837 13.4004 40V16C13.4004 15.1163 14.1163 14.4004 15 14.4004Z" fill="#58707F" stroke="#58707F" stroke-width="0.8"/>
<g clip-path="url(#clip0_160_582)">
<path d="M26 21C26.5531 21 27 21.391 27 21.875V22.75H31V21.875C31 21.391 31.4469 21 32 21C32.5531 21 33 21.391 33 21.875V22.75H34C35.1031 22.75 36 23.5348 36 24.5V32.375C36 33.3402 35.1031 34.125 34 34.125H24C22.8969 34.125 22 33.3402 22 32.375V24.5C22 23.5348 22.8969 22.75 24 22.75H25V21.875C25 21.391 25.4469 21 26 21ZM24 27.5625V28.4375C24 28.6781 24.225 28.875 24.5 28.875H25.5C25.775 28.875 26 28.6781 26 28.4375V27.5625C26 27.3219 25.775 27.125 25.5 27.125H24.5C24.225 27.125 24 27.3219 24 27.5625ZM28 27.5625V28.4375C28 28.6781 28.225 28.875 28.5 28.875H29.5C29.775 28.875 30 28.6781 30 28.4375V27.5625C30 27.3219 29.775 27.125 29.5 27.125H28.5C28.225 27.125 28 27.3219 28 27.5625ZM32.5 27.125C32.225 27.125 32 27.3219 32 27.5625V28.4375C32 28.6781 32.225 28.875 32.5 28.875H33.5C33.775 28.875 34 28.6781 34 28.4375V27.5625C34 27.3219 33.775 27.125 33.5 27.125H32.5ZM24 31.0625V31.9375C24 32.1781 24.225 32.375 24.5 32.375H25.5C25.775 32.375 26 32.1781 26 31.9375V31.0625C26 30.8219 25.775 30.625 25.5 30.625H24.5C24.225 30.625 24 30.8219 24 31.0625ZM28.5 30.625C28.225 30.625 28 30.8219 28 31.0625V31.9375C28 32.1781 28.225 32.375 28.5 32.375H29.5C29.775 32.375 30 32.1781 30 31.9375V31.0625C30 30.8219 29.775 30.625 29.5 30.625H28.5ZM32 31.0625V31.9375C32 32.1781 32.225 32.375 32.5 32.375H33.5C33.775 32.375 34 32.1781 34 31.9375V31.0625C34 30.8219 33.775 30.625 33.5 30.625H32.5C32.225 30.625 32 30.8219 32 31.0625Z" fill="white"/>
</g>
<rect x="13.4" y="48.4" width="93.2" height="27.2" rx="1.6" fill="white" stroke="#58707F" stroke-width="0.8"/>
<rect x="49" y="59" width="49" height="2" rx="1" fill="#58707F"/>
<rect x="49" y="63" width="42" height="2" rx="1" fill="#58707F"/>
<rect x="49" y="67" width="16" height="2" rx="1" fill="#58707F"/>
<path d="M71.8462 53H50.1538C49.5166 53 49 53.5596 49 54.25C49 54.9404 49.5166 55.5 50.1538 55.5H71.8462C72.4834 55.5 73 54.9404 73 54.25C73 53.5596 72.4834 53 71.8462 53Z" fill="#58707F"/>
<path d="M15 48.4004H44.5996V75.5996H15C14.1163 75.5996 13.4004 74.8837 13.4004 74V50C13.4004 49.1163 14.1163 48.4004 15 48.4004Z" fill="#58707F" stroke="#58707F" stroke-width="0.8"/>
<g clip-path="url(#clip1_160_582)">
<path d="M26 55C26.5531 55 27 55.391 27 55.875V56.75H31V55.875C31 55.391 31.4469 55 32 55C32.5531 55 33 55.391 33 55.875V56.75H34C35.1031 56.75 36 57.5348 36 58.5V66.375C36 67.3402 35.1031 68.125 34 68.125H24C22.8969 68.125 22 67.3402 22 66.375V58.5C22 57.5348 22.8969 56.75 24 56.75H25V55.875C25 55.391 25.4469 55 26 55ZM24 61.5625V62.4375C24 62.6781 24.225 62.875 24.5 62.875H25.5C25.775 62.875 26 62.6781 26 62.4375V61.5625C26 61.3219 25.775 61.125 25.5 61.125H24.5C24.225 61.125 24 61.3219 24 61.5625ZM28 61.5625V62.4375C28 62.6781 28.225 62.875 28.5 62.875H29.5C29.775 62.875 30 62.6781 30 62.4375V61.5625C30 61.3219 29.775 61.125 29.5 61.125H28.5C28.225 61.125 28 61.3219 28 61.5625ZM32.5 61.125C32.225 61.125 32 61.3219 32 61.5625V62.4375C32 62.6781 32.225 62.875 32.5 62.875H33.5C33.775 62.875 34 62.6781 34 62.4375V61.5625C34 61.3219 33.775 61.125 33.5 61.125H32.5ZM24 65.0625V65.9375C24 66.1781 24.225 66.375 24.5 66.375H25.5C25.775 66.375 26 66.1781 26 65.9375V65.0625C26 64.8219 25.775 64.625 25.5 64.625H24.5C24.225 64.625 24 64.8219 24 65.0625ZM28.5 64.625C28.225 64.625 28 64.8219 28 65.0625V65.9375C28 66.1781 28.225 66.375 28.5 66.375H29.5C29.775 66.375 30 66.1781 30 65.9375V65.0625C30 64.8219 29.775 64.625 29.5 64.625H28.5ZM32 65.0625V65.9375C32 66.1781 32.225 66.375 32.5 66.375H33.5C33.775 66.375 34 66.1781 34 65.9375V65.0625C34 64.8219 33.775 64.625 33.5 64.625H32.5C32.225 64.625 32 64.8219 32 65.0625Z" fill="white"/>
</g>
<defs>
<clipPath id="clip0_160_582">
<rect x="22" y="21" width="14" height="14" rx="2" fill="white"/>
</clipPath>
<clipPath id="clip1_160_582">
<rect x="22" y="55" width="14" height="14" rx="2" fill="white"/>
</clipPath>
</defs>
</svg>
