<svg width="120" height="90" viewBox="0 0 120 90" fill="none" xmlns="http://www.w3.org/2000/svg">
<rect x="0.5" y="0.5" width="119" height="89" rx="2.5" fill="white" stroke="#8796A1"/>
<rect x="20.4" y="14.4" width="24.2" height="29.2" rx="1.6" fill="white" stroke="#58707F" stroke-width="0.8"/>
<rect x="26" y="39" width="11.4353" height="1.90588" rx="0.952941" fill="#58707F"/>
<path d="M41.0009 34.9646H23.7747C23.2686 34.9646 22.8584 35.3912 22.8584 35.9175C22.8584 36.4438 23.2686 36.8705 23.7747 36.8705H41.0009C41.507 36.8705 41.9172 36.4438 41.9172 35.9175C41.9172 35.3912 41.507 34.9646 41.0009 34.9646Z" fill="#58707F"/>
<path d="M22 14.5H42.7764C43.6048 14.5 44.2764 15.1716 44.2764 16V31.6055H20.5V16C20.5 15.1716 21.1716 14.5 22 14.5Z" fill="#58707F" stroke="#58707F"/>
<g clip-path="url(#clip0_615_144)">
<path d="M29.5295 16.8586C30.0566 16.8586 30.4825 17.2313 30.4825 17.6925V18.5263H34.2942V17.6925C34.2942 17.2313 34.7201 16.8586 35.2472 16.8586C35.7743 16.8586 36.2001 17.2313 36.2001 17.6925V18.5263H37.1531C38.2043 18.5263 39.0589 19.2741 39.0589 20.1939V27.6983C39.0589 28.6182 38.2043 29.366 37.1531 29.366H27.6237C26.5724 29.366 25.7178 28.6182 25.7178 27.6983V20.1939C25.7178 19.2741 26.5724 18.5263 27.6237 18.5263H28.5766V17.6925C28.5766 17.2313 29.0024 16.8586 29.5295 16.8586ZM27.6237 23.1123V23.9461C27.6237 24.1754 27.8381 24.3631 28.1001 24.3631H29.0531C29.3151 24.3631 29.5295 24.1754 29.5295 23.9461V23.1123C29.5295 22.883 29.3151 22.6954 29.0531 22.6954H28.1001C27.8381 22.6954 27.6237 22.883 27.6237 23.1123ZM31.4354 23.1123V23.9461C31.4354 24.1754 31.6498 24.3631 31.9119 24.3631H32.8648C33.1269 24.3631 33.3413 24.1754 33.3413 23.9461V23.1123C33.3413 22.883 33.1269 22.6954 32.8648 22.6954H31.9119C31.6498 22.6954 31.4354 22.883 31.4354 23.1123ZM35.7237 22.6954C35.4616 22.6954 35.2472 22.883 35.2472 23.1123V23.9461C35.2472 24.1754 35.4616 24.3631 35.7237 24.3631H36.6766C36.9387 24.3631 37.1531 24.1754 37.1531 23.9461V23.1123C37.1531 22.883 36.9387 22.6954 36.6766 22.6954H35.7237ZM27.6237 26.4476V27.2814C27.6237 27.5107 27.8381 27.6983 28.1001 27.6983H29.0531C29.3151 27.6983 29.5295 27.5107 29.5295 27.2814V26.4476C29.5295 26.2183 29.3151 26.0307 29.0531 26.0307H28.1001C27.8381 26.0307 27.6237 26.2183 27.6237 26.4476ZM31.9119 26.0307C31.6498 26.0307 31.4354 26.2183 31.4354 26.4476V27.2814C31.4354 27.5107 31.6498 27.6983 31.9119 27.6983H32.8648C33.1269 27.6983 33.3413 27.5107 33.3413 27.2814V26.4476C33.3413 26.2183 33.1269 26.0307 32.8648 26.0307H31.9119ZM35.2472 26.4476V27.2814C35.2472 27.5107 35.4616 27.6983 35.7237 27.6983H36.6766C36.9387 27.6983 37.1531 27.5107 37.1531 27.2814V26.4476C37.1531 26.2183 36.9387 26.0307 36.6766 26.0307H35.7237C35.4616 26.0307 35.2472 26.2183 35.2472 26.4476Z" fill="white"/>
</g>
<rect x="48.4" y="14.4" width="24.2" height="25.2" rx="1.6" fill="white" stroke="#58707F" stroke-width="0.8"/>
<path d="M69.0009 34.9646H51.7747C51.2686 34.9646 50.8584 35.3912 50.8584 35.9175C50.8584 36.4438 51.2686 36.8705 51.7747 36.8705H69.0009C69.507 36.8705 69.9172 36.4438 69.9172 35.9175C69.9172 35.3912 69.507 34.9646 69.0009 34.9646Z" fill="#58707F"/>
<path d="M50 14.4004H70.7764C71.66 14.4004 72.377 15.1163 72.377 16V31.7061H48.4004V16C48.4004 15.1163 49.1163 14.4004 50 14.4004Z" fill="#58707F" stroke="#58707F" stroke-width="0.8"/>
<g clip-path="url(#clip1_615_144)">
<path d="M57.5295 16.8586C58.0566 16.8586 58.4825 17.2313 58.4825 17.6925V18.5263H62.2942V17.6925C62.2942 17.2313 62.7201 16.8586 63.2472 16.8586C63.7743 16.8586 64.2001 17.2313 64.2001 17.6925V18.5263H65.1531C66.2043 18.5263 67.0589 19.2741 67.0589 20.1939V27.6983C67.0589 28.6182 66.2043 29.366 65.1531 29.366H55.6237C54.5724 29.366 53.7178 28.6182 53.7178 27.6983V20.1939C53.7178 19.2741 54.5724 18.5263 55.6237 18.5263H56.5766V17.6925C56.5766 17.2313 57.0024 16.8586 57.5295 16.8586ZM55.6237 23.1123V23.9461C55.6237 24.1754 55.8381 24.3631 56.1001 24.3631H57.0531C57.3151 24.3631 57.5295 24.1754 57.5295 23.9461V23.1123C57.5295 22.883 57.3151 22.6954 57.0531 22.6954H56.1001C55.8381 22.6954 55.6237 22.883 55.6237 23.1123ZM59.4354 23.1123V23.9461C59.4354 24.1754 59.6498 24.3631 59.9119 24.3631H60.8648C61.1269 24.3631 61.3413 24.1754 61.3413 23.9461V23.1123C61.3413 22.883 61.1269 22.6954 60.8648 22.6954H59.9119C59.6498 22.6954 59.4354 22.883 59.4354 23.1123ZM63.7237 22.6954C63.4616 22.6954 63.2472 22.883 63.2472 23.1123V23.9461C63.2472 24.1754 63.4616 24.3631 63.7237 24.3631H64.6766C64.9387 24.3631 65.1531 24.1754 65.1531 23.9461V23.1123C65.1531 22.883 64.9387 22.6954 64.6766 22.6954H63.7237ZM55.6237 26.4476V27.2814C55.6237 27.5107 55.8381 27.6983 56.1001 27.6983H57.0531C57.3151 27.6983 57.5295 27.5107 57.5295 27.2814V26.4476C57.5295 26.2183 57.3151 26.0307 57.0531 26.0307H56.1001C55.8381 26.0307 55.6237 26.2183 55.6237 26.4476ZM59.9119 26.0307C59.6498 26.0307 59.4354 26.2183 59.4354 26.4476V27.2814C59.4354 27.5107 59.6498 27.6983 59.9119 27.6983H60.8648C61.1269 27.6983 61.3413 27.5107 61.3413 27.2814V26.4476C61.3413 26.2183 61.1269 26.0307 60.8648 26.0307H59.9119ZM63.2472 26.4476V27.2814C63.2472 27.5107 63.4616 27.6983 63.7237 27.6983H64.6766C64.9387 27.6983 65.1531 27.5107 65.1531 27.2814V26.4476C65.1531 26.2183 64.9387 26.0307 64.6766 26.0307H63.7237C63.4616 26.0307 63.2472 26.2183 63.2472 26.4476Z" fill="white"/>
</g>
<rect x="76.4" y="14.4" width="24.2" height="29.2" rx="1.6" fill="white" stroke="#58707F" stroke-width="0.8"/>
<rect x="82" y="39" width="11.4353" height="1.90588" rx="0.952941" fill="#58707F"/>
<path d="M97.0009 34.9646H79.7747C79.2686 34.9646 78.8584 35.3912 78.8584 35.9175C78.8584 36.4438 79.2686 36.8705 79.7747 36.8705H97.0009C97.507 36.8705 97.9172 36.4438 97.9172 35.9175C97.9172 35.3912 97.507 34.9646 97.0009 34.9646Z" fill="#58707F"/>
<path d="M78 14.4004H98.7764C99.66 14.4004 100.377 15.1163 100.377 16V31.7061H76.4004V16C76.4004 15.1163 77.1163 14.4004 78 14.4004Z" fill="#58707F" stroke="#58707F" stroke-width="0.8"/>
<g clip-path="url(#clip2_615_144)">
<path d="M85.5295 16.8586C86.0566 16.8586 86.4825 17.2313 86.4825 17.6925V18.5263H90.2942V17.6925C90.2942 17.2313 90.7201 16.8586 91.2472 16.8586C91.7743 16.8586 92.2001 17.2313 92.2001 17.6925V18.5263H93.1531C94.2043 18.5263 95.0589 19.2741 95.0589 20.1939V27.6983C95.0589 28.6182 94.2043 29.366 93.1531 29.366H83.6237C82.5724 29.366 81.7178 28.6182 81.7178 27.6983V20.1939C81.7178 19.2741 82.5724 18.5263 83.6237 18.5263H84.5766V17.6925C84.5766 17.2313 85.0024 16.8586 85.5295 16.8586ZM83.6237 23.1123V23.9461C83.6237 24.1754 83.8381 24.3631 84.1001 24.3631H85.0531C85.3151 24.3631 85.5295 24.1754 85.5295 23.9461V23.1123C85.5295 22.883 85.3151 22.6954 85.0531 22.6954H84.1001C83.8381 22.6954 83.6237 22.883 83.6237 23.1123ZM87.4354 23.1123V23.9461C87.4354 24.1754 87.6498 24.3631 87.9119 24.3631H88.8648C89.1269 24.3631 89.3413 24.1754 89.3413 23.9461V23.1123C89.3413 22.883 89.1269 22.6954 88.8648 22.6954H87.9119C87.6498 22.6954 87.4354 22.883 87.4354 23.1123ZM91.7237 22.6954C91.4616 22.6954 91.2472 22.883 91.2472 23.1123V23.9461C91.2472 24.1754 91.4616 24.3631 91.7237 24.3631H92.6766C92.9387 24.3631 93.1531 24.1754 93.1531 23.9461V23.1123C93.1531 22.883 92.9387 22.6954 92.6766 22.6954H91.7237ZM83.6237 26.4476V27.2814C83.6237 27.5107 83.8381 27.6983 84.1001 27.6983H85.0531C85.3151 27.6983 85.5295 27.5107 85.5295 27.2814V26.4476C85.5295 26.2183 85.3151 26.0307 85.0531 26.0307H84.1001C83.8381 26.0307 83.6237 26.2183 83.6237 26.4476ZM87.9119 26.0307C87.6498 26.0307 87.4354 26.2183 87.4354 26.4476V27.2814C87.4354 27.5107 87.6498 27.6983 87.9119 27.6983H88.8648C89.1269 27.6983 89.3413 27.5107 89.3413 27.2814V26.4476C89.3413 26.2183 89.1269 26.0307 88.8648 26.0307H87.9119ZM91.2472 26.4476V27.2814C91.2472 27.5107 91.4616 27.6983 91.7237 27.6983H92.6766C92.9387 27.6983 93.1531 27.5107 93.1531 27.2814V26.4476C93.1531 26.2183 92.9387 26.0307 92.6766 26.0307H91.7237C91.4616 26.0307 91.2472 26.2183 91.2472 26.4476Z" fill="white"/>
</g>
<rect x="20.4" y="47.4" width="24.2" height="25.2" rx="1.6" fill="white" stroke="#58707F" stroke-width="0.8"/>
<path d="M41.0009 67.9646H23.7747C23.2686 67.9646 22.8584 68.3912 22.8584 68.9175C22.8584 69.4438 23.2686 69.8705 23.7747 69.8705H41.0009C41.507 69.8705 41.9172 69.4438 41.9172 68.9175C41.9172 68.3912 41.507 67.9646 41.0009 67.9646Z" fill="#58707F"/>
<path d="M22 47.4004H42.7764C43.66 47.4004 44.377 48.1163 44.377 49V64.7061H20.4004V49C20.4004 48.1163 21.1163 47.4004 22 47.4004Z" fill="#58707F" stroke="#58707F" stroke-width="0.8"/>
<g clip-path="url(#clip3_615_144)">
<path d="M29.5295 49.8586C30.0566 49.8586 30.4825 50.2313 30.4825 50.6925V51.5263H34.2942V50.6925C34.2942 50.2313 34.7201 49.8586 35.2472 49.8586C35.7743 49.8586 36.2001 50.2313 36.2001 50.6925V51.5263H37.1531C38.2043 51.5263 39.0589 52.2741 39.0589 53.1939V60.6983C39.0589 61.6182 38.2043 62.366 37.1531 62.366H27.6237C26.5724 62.366 25.7178 61.6182 25.7178 60.6983V53.1939C25.7178 52.2741 26.5724 51.5263 27.6237 51.5263H28.5766V50.6925C28.5766 50.2313 29.0024 49.8586 29.5295 49.8586ZM27.6237 56.1123V56.9461C27.6237 57.1754 27.8381 57.3631 28.1001 57.3631H29.0531C29.3151 57.3631 29.5295 57.1754 29.5295 56.9461V56.1123C29.5295 55.883 29.3151 55.6954 29.0531 55.6954H28.1001C27.8381 55.6954 27.6237 55.883 27.6237 56.1123ZM31.4354 56.1123V56.9461C31.4354 57.1754 31.6498 57.3631 31.9119 57.3631H32.8648C33.1269 57.3631 33.3413 57.1754 33.3413 56.9461V56.1123C33.3413 55.883 33.1269 55.6954 32.8648 55.6954H31.9119C31.6498 55.6954 31.4354 55.883 31.4354 56.1123ZM35.7237 55.6954C35.4616 55.6954 35.2472 55.883 35.2472 56.1123V56.9461C35.2472 57.1754 35.4616 57.3631 35.7237 57.3631H36.6766C36.9387 57.3631 37.1531 57.1754 37.1531 56.9461V56.1123C37.1531 55.883 36.9387 55.6954 36.6766 55.6954H35.7237ZM27.6237 59.4476V60.2814C27.6237 60.5107 27.8381 60.6983 28.1001 60.6983H29.0531C29.3151 60.6983 29.5295 60.5107 29.5295 60.2814V59.4476C29.5295 59.2183 29.3151 59.0307 29.0531 59.0307H28.1001C27.8381 59.0307 27.6237 59.2183 27.6237 59.4476ZM31.9119 59.0307C31.6498 59.0307 31.4354 59.2183 31.4354 59.4476V60.2814C31.4354 60.5107 31.6498 60.6983 31.9119 60.6983H32.8648C33.1269 60.6983 33.3413 60.5107 33.3413 60.2814V59.4476C33.3413 59.2183 33.1269 59.0307 32.8648 59.0307H31.9119ZM35.2472 59.4476V60.2814C35.2472 60.5107 35.4616 60.6983 35.7237 60.6983H36.6766C36.9387 60.6983 37.1531 60.5107 37.1531 60.2814V59.4476C37.1531 59.2183 36.9387 59.0307 36.6766 59.0307H35.7237C35.4616 59.0307 35.2472 59.2183 35.2472 59.4476Z" fill="white"/>
</g>
<rect x="48.4" y="42.4" width="24.2" height="29.2" rx="1.6" fill="white" stroke="#58707F" stroke-width="0.8"/>
<rect x="54" y="67" width="11.4353" height="1.90588" rx="0.952941" fill="#58707F"/>
<path d="M69.0009 62.9646H51.7747C51.2686 62.9646 50.8584 63.3912 50.8584 63.9175C50.8584 64.4438 51.2686 64.8705 51.7747 64.8705H69.0009C69.507 64.8705 69.9172 64.4438 69.9172 63.9175C69.9172 63.3912 69.507 62.9646 69.0009 62.9646Z" fill="#58707F"/>
<path d="M50 42.4004H70.7764C71.66 42.4004 72.377 43.1163 72.377 44V59.7061H48.4004V44C48.4004 43.1163 49.1163 42.4004 50 42.4004Z" fill="#58707F" stroke="#58707F" stroke-width="0.8"/>
<g clip-path="url(#clip4_615_144)">
<path d="M57.5295 44.8586C58.0566 44.8586 58.4825 45.2313 58.4825 45.6925V46.5263H62.2942V45.6925C62.2942 45.2313 62.7201 44.8586 63.2472 44.8586C63.7743 44.8586 64.2001 45.2313 64.2001 45.6925V46.5263H65.1531C66.2043 46.5263 67.0589 47.2741 67.0589 48.1939V55.6983C67.0589 56.6182 66.2043 57.366 65.1531 57.366H55.6237C54.5724 57.366 53.7178 56.6182 53.7178 55.6983V48.1939C53.7178 47.2741 54.5724 46.5263 55.6237 46.5263H56.5766V45.6925C56.5766 45.2313 57.0024 44.8586 57.5295 44.8586ZM55.6237 51.1123V51.9461C55.6237 52.1754 55.8381 52.3631 56.1001 52.3631H57.0531C57.3151 52.3631 57.5295 52.1754 57.5295 51.9461V51.1123C57.5295 50.883 57.3151 50.6954 57.0531 50.6954H56.1001C55.8381 50.6954 55.6237 50.883 55.6237 51.1123ZM59.4354 51.1123V51.9461C59.4354 52.1754 59.6498 52.3631 59.9119 52.3631H60.8648C61.1269 52.3631 61.3413 52.1754 61.3413 51.9461V51.1123C61.3413 50.883 61.1269 50.6954 60.8648 50.6954H59.9119C59.6498 50.6954 59.4354 50.883 59.4354 51.1123ZM63.7237 50.6954C63.4616 50.6954 63.2472 50.883 63.2472 51.1123V51.9461C63.2472 52.1754 63.4616 52.3631 63.7237 52.3631H64.6766C64.9387 52.3631 65.1531 52.1754 65.1531 51.9461V51.1123C65.1531 50.883 64.9387 50.6954 64.6766 50.6954H63.7237ZM55.6237 54.4476V55.2814C55.6237 55.5107 55.8381 55.6983 56.1001 55.6983H57.0531C57.3151 55.6983 57.5295 55.5107 57.5295 55.2814V54.4476C57.5295 54.2183 57.3151 54.0307 57.0531 54.0307H56.1001C55.8381 54.0307 55.6237 54.2183 55.6237 54.4476ZM59.9119 54.0307C59.6498 54.0307 59.4354 54.2183 59.4354 54.4476V55.2814C59.4354 55.5107 59.6498 55.6983 59.9119 55.6983H60.8648C61.1269 55.6983 61.3413 55.5107 61.3413 55.2814V54.4476C61.3413 54.2183 61.1269 54.0307 60.8648 54.0307H59.9119ZM63.2472 54.4476V55.2814C63.2472 55.5107 63.4616 55.6983 63.7237 55.6983H64.6766C64.9387 55.6983 65.1531 55.5107 65.1531 55.2814V54.4476C65.1531 54.2183 64.9387 54.0307 64.6766 54.0307H63.7237C63.4616 54.0307 63.2472 54.2183 63.2472 54.4476Z" fill="white"/>
</g>
<rect x="76.4" y="47.4" width="24.2" height="25.2" rx="1.6" fill="white" stroke="#58707F" stroke-width="0.8"/>
<path d="M97.0009 67.9646H79.7747C79.2686 67.9646 78.8584 68.3912 78.8584 68.9175C78.8584 69.4438 79.2686 69.8705 79.7747 69.8705H97.0009C97.507 69.8705 97.9172 69.4438 97.9172 68.9175C97.9172 68.3912 97.507 67.9646 97.0009 67.9646Z" fill="#58707F"/>
<path d="M78 47.4004H98.7764C99.66 47.4004 100.377 48.1163 100.377 49V64.7061H76.4004V49C76.4004 48.1163 77.1163 47.4004 78 47.4004Z" fill="#58707F" stroke="#58707F" stroke-width="0.8"/>
<g clip-path="url(#clip5_615_144)">
<path d="M85.5295 49.8586C86.0566 49.8586 86.4825 50.2313 86.4825 50.6925V51.5263H90.2942V50.6925C90.2942 50.2313 90.7201 49.8586 91.2472 49.8586C91.7743 49.8586 92.2001 50.2313 92.2001 50.6925V51.5263H93.1531C94.2043 51.5263 95.0589 52.2741 95.0589 53.1939V60.6983C95.0589 61.6182 94.2043 62.366 93.1531 62.366H83.6237C82.5724 62.366 81.7178 61.6182 81.7178 60.6983V53.1939C81.7178 52.2741 82.5724 51.5263 83.6237 51.5263H84.5766V50.6925C84.5766 50.2313 85.0024 49.8586 85.5295 49.8586ZM83.6237 56.1123V56.9461C83.6237 57.1754 83.8381 57.3631 84.1001 57.3631H85.0531C85.3151 57.3631 85.5295 57.1754 85.5295 56.9461V56.1123C85.5295 55.883 85.3151 55.6954 85.0531 55.6954H84.1001C83.8381 55.6954 83.6237 55.883 83.6237 56.1123ZM87.4354 56.1123V56.9461C87.4354 57.1754 87.6498 57.3631 87.9119 57.3631H88.8648C89.1269 57.3631 89.3413 57.1754 89.3413 56.9461V56.1123C89.3413 55.883 89.1269 55.6954 88.8648 55.6954H87.9119C87.6498 55.6954 87.4354 55.883 87.4354 56.1123ZM91.7237 55.6954C91.4616 55.6954 91.2472 55.883 91.2472 56.1123V56.9461C91.2472 57.1754 91.4616 57.3631 91.7237 57.3631H92.6766C92.9387 57.3631 93.1531 57.1754 93.1531 56.9461V56.1123C93.1531 55.883 92.9387 55.6954 92.6766 55.6954H91.7237ZM83.6237 59.4476V60.2814C83.6237 60.5107 83.8381 60.6983 84.1001 60.6983H85.0531C85.3151 60.6983 85.5295 60.5107 85.5295 60.2814V59.4476C85.5295 59.2183 85.3151 59.0307 85.0531 59.0307H84.1001C83.8381 59.0307 83.6237 59.2183 83.6237 59.4476ZM87.9119 59.0307C87.6498 59.0307 87.4354 59.2183 87.4354 59.4476V60.2814C87.4354 60.5107 87.6498 60.6983 87.9119 60.6983H88.8648C89.1269 60.6983 89.3413 60.5107 89.3413 60.2814V59.4476C89.3413 59.2183 89.1269 59.0307 88.8648 59.0307H87.9119ZM91.2472 59.4476V60.2814C91.2472 60.5107 91.4616 60.6983 91.7237 60.6983H92.6766C92.9387 60.6983 93.1531 60.5107 93.1531 60.2814V59.4476C93.1531 59.2183 92.9387 59.0307 92.6766 59.0307H91.7237C91.4616 59.0307 91.2472 59.2183 91.2472 59.4476Z" fill="white"/>
</g>
<defs>
<clipPath id="clip0_615_144">
<rect x="25.7178" y="16.8586" width="13.3412" height="13.3412" rx="2" fill="white"/>
</clipPath>
<clipPath id="clip1_615_144">
<rect x="53.7178" y="16.8586" width="13.3412" height="13.3412" rx="2" fill="white"/>
</clipPath>
<clipPath id="clip2_615_144">
<rect x="81.7178" y="16.8586" width="13.3412" height="13.3412" rx="2" fill="white"/>
</clipPath>
<clipPath id="clip3_615_144">
<rect x="25.7178" y="49.8586" width="13.3412" height="13.3412" rx="2" fill="white"/>
</clipPath>
<clipPath id="clip4_615_144">
<rect x="53.7178" y="44.8586" width="13.3412" height="13.3412" rx="2" fill="white"/>
</clipPath>
<clipPath id="clip5_615_144">
<rect x="81.7178" y="49.8586" width="13.3412" height="13.3412" rx="2" fill="white"/>
</clipPath>
</defs>
</svg>
