<svg width="106" height="76" viewBox="0 0 106 76" fill="none" xmlns="http://www.w3.org/2000/svg">
<g clip-path="url(#clip0_162_992)">
<path d="M104 0.75H2C1.30964 0.75 0.75 1.30964 0.75 2V74C0.75 74.6904 1.30964 75.25 2 75.25H104C104.69 75.25 105.25 74.6904 105.25 74V2C105.25 1.30964 104.69 0.75 104 0.75Z" fill="white"/>
<path d="M104 0.75H2C1.30964 0.75 0.75 1.30964 0.75 2V74C0.75 74.6904 1.30964 75.25 2 75.25H104C104.69 75.25 105.25 74.6904 105.25 74V2C105.25 1.30964 104.69 0.75 104 0.75Z" stroke="#8796A1" stroke-width="1.5"/>
<mask id="mask0_162_992" style="mask-type:luminance" maskUnits="userSpaceOnUse" x="8" y="8" width="90" height="60">
<path d="M96 8H10C8.89543 8 8 8.89543 8 10V66C8 67.1046 8.89543 68 10 68H96C97.1046 68 98 67.1046 98 66V10C98 8.89543 97.1046 8 96 8Z" fill="white"/>
</mask>
<g mask="url(#mask0_162_992)">
<path d="M96 8H10C8.89543 8 8 8.89543 8 10V66C8 67.1046 8.89543 68 10 68H96C97.1046 68 98 67.1046 98 66V10C98 8.89543 97.1046 8 96 8Z" fill="white"/>
<rect x="15.4" y="23.4" width="22.5333" height="27.2" rx="1.6" fill="white" stroke="#58707F" stroke-width="0.8"/>
<rect x="20.5996" y="46.3333" width="10.6729" height="1.77882" rx="0.889412" fill="#58707F"/>
<path d="M34.601 42.5669H18.5232C18.0509 42.5669 17.668 42.9651 17.668 43.4563C17.668 43.9475 18.0509 44.3457 18.5232 44.3457H34.601C35.0733 44.3457 35.4562 43.9475 35.4562 43.4563C35.4562 42.9651 35.0733 42.5669 34.601 42.5669Z" fill="#58707F"/>
<path d="M17 23.5H36.125C36.9533 23.5002 37.625 24.1717 37.625 25V39.3984H15.5V25L15.5078 24.8467C15.5846 24.0903 16.2233 23.5 17 23.5Z" fill="#58707F" stroke="#58707F"/>
<g clip-path="url(#clip1_162_992)">
<path d="M23.8936 25.668C24.3855 25.668 24.783 26.0157 24.783 26.4462V27.2244H28.3406V26.4462C28.3406 26.0157 28.7381 25.668 29.2301 25.668C29.722 25.668 30.1195 26.0157 30.1195 26.4462V27.2244H31.0089C31.99 27.2244 32.7877 27.9224 32.7877 28.7809V35.785C32.7877 36.6435 31.99 37.3415 31.0089 37.3415H22.1148C21.1336 37.3415 20.3359 36.6435 20.3359 35.785V28.7809C20.3359 27.9224 21.1336 27.2244 22.1148 27.2244H23.0042V26.4462C23.0042 26.0157 23.4016 25.668 23.8936 25.668ZM22.1148 31.5047V32.283C22.1148 32.497 22.3149 32.6721 22.5595 32.6721H23.4489C23.6935 32.6721 23.8936 32.497 23.8936 32.283V31.5047C23.8936 31.2907 23.6935 31.1156 23.4489 31.1156H22.5595C22.3149 31.1156 22.1148 31.2907 22.1148 31.5047ZM25.6724 31.5047V32.283C25.6724 32.497 25.8725 32.6721 26.1171 32.6721H27.0065C27.2511 32.6721 27.4512 32.497 27.4512 32.283V31.5047C27.4512 31.2907 27.2511 31.1156 27.0065 31.1156H26.1171C25.8725 31.1156 25.6724 31.2907 25.6724 31.5047ZM29.6748 31.1156C29.4302 31.1156 29.2301 31.2907 29.2301 31.5047V32.283C29.2301 32.497 29.4302 32.6721 29.6748 32.6721H30.5642C30.8088 32.6721 31.0089 32.497 31.0089 32.283V31.5047C31.0089 31.2907 30.8088 31.1156 30.5642 31.1156H29.6748ZM22.1148 34.6177V35.3959C22.1148 35.6099 22.3149 35.785 22.5595 35.785H23.4489C23.6935 35.785 23.8936 35.6099 23.8936 35.3959V34.6177C23.8936 34.4037 23.6935 34.2286 23.4489 34.2286H22.5595C22.3149 34.2286 22.1148 34.4037 22.1148 34.6177ZM26.1171 34.2286C25.8725 34.2286 25.6724 34.4037 25.6724 34.6177V35.3959C25.6724 35.6099 25.8725 35.785 26.1171 35.785H27.0065C27.2511 35.785 27.4512 35.6099 27.4512 35.3959V34.6177C27.4512 34.4037 27.2511 34.2286 27.0065 34.2286H26.1171ZM29.2301 34.6177V35.3959C29.2301 35.6099 29.4302 35.785 29.6748 35.785H30.5642C30.8088 35.785 31.0089 35.6099 31.0089 35.3959V34.6177C31.0089 34.4037 30.8088 34.2286 30.5642 34.2286H29.6748C29.4302 34.2286 29.2301 34.4037 29.2301 34.6177Z" fill="white"/>
</g>
<rect x="41.5328" y="23.4" width="22.5333" height="27.2" rx="1.6" fill="white" stroke="#58707F" stroke-width="0.8"/>
<rect x="46.7334" y="46.3333" width="10.6729" height="1.77882" rx="0.889412" fill="#58707F"/>
<path d="M60.7338 42.5669H44.656C44.1837 42.5669 43.8008 42.9651 43.8008 43.4563C43.8008 43.9475 44.1837 44.3457 44.656 44.3457H60.7338C61.2061 44.3457 61.589 43.9475 61.589 43.4563C61.589 42.9651 61.2061 42.5669 60.7338 42.5669Z" fill="#58707F"/>
<path d="M43.1328 23.4004H62.2578C63.1413 23.4006 63.8574 24.1164 63.8574 25V39.499H41.5332V25C41.5332 24.1163 42.2492 23.4004 43.1328 23.4004Z" fill="#58707F" stroke="#58707F" stroke-width="0.8"/>
<g clip-path="url(#clip2_162_992)">
<path d="M50.0274 25.668C50.5193 25.668 50.9168 26.0157 50.9168 26.4462V27.2244H54.4744V26.4462C54.4744 26.0157 54.8719 25.668 55.3638 25.668C55.8558 25.668 56.2533 26.0157 56.2533 26.4462V27.2244H57.1427C58.1238 27.2244 58.9215 27.9224 58.9215 28.7809V35.785C58.9215 36.6435 58.1238 37.3415 57.1427 37.3415H48.2486C47.2674 37.3415 46.4697 36.6435 46.4697 35.785V28.7809C46.4697 27.9224 47.2674 27.2244 48.2486 27.2244H49.138V26.4462C49.138 26.0157 49.5354 25.668 50.0274 25.668ZM48.2486 31.5047V32.283C48.2486 32.497 48.4487 32.6721 48.6933 32.6721H49.5827C49.8273 32.6721 50.0274 32.497 50.0274 32.283V31.5047C50.0274 31.2907 49.8273 31.1156 49.5827 31.1156H48.6933C48.4487 31.1156 48.2486 31.2907 48.2486 31.5047ZM51.8062 31.5047V32.283C51.8062 32.497 52.0063 32.6721 52.2509 32.6721H53.1403C53.3849 32.6721 53.585 32.497 53.585 32.283V31.5047C53.585 31.2907 53.3849 31.1156 53.1403 31.1156H52.2509C52.0063 31.1156 51.8062 31.2907 51.8062 31.5047ZM55.8085 31.1156C55.564 31.1156 55.3638 31.2907 55.3638 31.5047V32.283C55.3638 32.497 55.564 32.6721 55.8085 32.6721H56.698C56.9425 32.6721 57.1427 32.497 57.1427 32.283V31.5047C57.1427 31.2907 56.9425 31.1156 56.698 31.1156H55.8085ZM48.2486 34.6177V35.3959C48.2486 35.6099 48.4487 35.785 48.6933 35.785H49.5827C49.8273 35.785 50.0274 35.6099 50.0274 35.3959V34.6177C50.0274 34.4037 49.8273 34.2286 49.5827 34.2286H48.6933C48.4487 34.2286 48.2486 34.4037 48.2486 34.6177ZM52.2509 34.2286C52.0063 34.2286 51.8062 34.4037 51.8062 34.6177V35.3959C51.8062 35.6099 52.0063 35.785 52.2509 35.785H53.1403C53.3849 35.785 53.585 35.6099 53.585 35.3959V34.6177C53.585 34.4037 53.3849 34.2286 53.1403 34.2286H52.2509ZM55.3638 34.6177V35.3959C55.3638 35.6099 55.564 35.785 55.8085 35.785H56.698C56.9425 35.785 57.1427 35.6099 57.1427 35.3959V34.6177C57.1427 34.4037 56.9425 34.2286 56.698 34.2286H55.8085C55.564 34.2286 55.3638 34.4037 55.3638 34.6177Z" fill="white"/>
</g>
<rect x="67.6666" y="23.4" width="22.5333" height="27.2" rx="1.6" fill="white" stroke="#58707F" stroke-width="0.8"/>
<rect x="72.8662" y="46.3333" width="10.6729" height="1.77882" rx="0.889412" fill="#58707F"/>
<path d="M86.8676 42.5669H70.7898C70.3175 42.5669 69.9346 42.9651 69.9346 43.4563C69.9346 43.9475 70.3175 44.3457 70.7898 44.3457H86.8676C87.3399 44.3457 87.7228 43.9475 87.7228 43.4563C87.7228 42.9651 87.3399 42.5669 86.8676 42.5669Z" fill="#58707F"/>
<path d="M69.2666 23.4004H88.3916C89.2751 23.4006 89.9912 24.1164 89.9912 25V39.499H67.667V25C67.667 24.1163 68.3829 23.4004 69.2666 23.4004Z" fill="#58707F" stroke="#58707F" stroke-width="0.8"/>
<g clip-path="url(#clip3_162_992)">
<path d="M76.1612 25.668C76.6531 25.668 77.0506 26.0157 77.0506 26.4462V27.2244H80.6082V26.4462C80.6082 26.0157 81.0057 25.668 81.4976 25.668C81.9896 25.668 82.387 26.0157 82.387 26.4462V27.2244H83.2765C84.2576 27.2244 85.0553 27.9224 85.0553 28.7809V35.785C85.0553 36.6435 84.2576 37.3415 83.2765 37.3415H74.3823C73.4012 37.3415 72.6035 36.6435 72.6035 35.785V28.7809C72.6035 27.9224 73.4012 27.2244 74.3823 27.2244H75.2718V26.4462C75.2718 26.0157 75.6692 25.668 76.1612 25.668ZM74.3823 31.5047V32.283C74.3823 32.497 74.5825 32.6721 74.827 32.6721H75.7165C75.961 32.6721 76.1612 32.497 76.1612 32.283V31.5047C76.1612 31.2907 75.961 31.1156 75.7165 31.1156H74.827C74.5825 31.1156 74.3823 31.2907 74.3823 31.5047ZM77.94 31.5047V32.283C77.94 32.497 78.1401 32.6721 78.3847 32.6721H79.2741C79.5187 32.6721 79.7188 32.497 79.7188 32.283V31.5047C79.7188 31.2907 79.5187 31.1156 79.2741 31.1156H78.3847C78.1401 31.1156 77.94 31.2907 77.94 31.5047ZM81.9423 31.1156C81.6978 31.1156 81.4976 31.2907 81.4976 31.5047V32.283C81.4976 32.497 81.6978 32.6721 81.9423 32.6721H82.8318C83.0763 32.6721 83.2765 32.497 83.2765 32.283V31.5047C83.2765 31.2907 83.0763 31.1156 82.8318 31.1156H81.9423ZM74.3823 34.6177V35.3959C74.3823 35.6099 74.5825 35.785 74.827 35.785H75.7165C75.961 35.785 76.1612 35.6099 76.1612 35.3959V34.6177C76.1612 34.4037 75.961 34.2286 75.7165 34.2286H74.827C74.5825 34.2286 74.3823 34.4037 74.3823 34.6177ZM78.3847 34.2286C78.1401 34.2286 77.94 34.4037 77.94 34.6177V35.3959C77.94 35.6099 78.1401 35.785 78.3847 35.785H79.2741C79.5187 35.785 79.7188 35.6099 79.7188 35.3959V34.6177C79.7188 34.4037 79.5187 34.2286 79.2741 34.2286H78.3847ZM81.4976 34.6177V35.3959C81.4976 35.6099 81.6978 35.785 81.9423 35.785H82.8318C83.0763 35.785 83.2765 35.6099 83.2765 35.3959V34.6177C83.2765 34.4037 83.0763 34.2286 82.8318 34.2286H81.9423C81.6978 34.2286 81.4976 34.4037 81.4976 34.6177Z" fill="white"/>
</g>
<path d="M98 8H8V68H98V8Z" fill="black" fill-opacity="0.6"/>
<g filter="url(#filter0_d_162_992)">
<path d="M74.897 12H31.103C29.9415 12 29 12.9009 29 14.0122V61.9878C29 63.0991 29.9415 64 31.103 64H74.897C76.0585 64 77 63.0991 77 61.9878V14.0122C77 12.9009 76.0585 12 74.897 12Z" fill="white"/>
<rect x="44.5996" y="53.6538" width="15.7323" height="4.34634" rx="2.17317" fill="#58707F"/>
<rect x="46.5664" y="55.1023" width="11.7992" height="1.44878" rx="0.724391" fill="white"/>
<path d="M64.6269 48.583H40.9276C40.2314 48.583 39.667 49.2316 39.667 50.0318C39.667 50.8319 40.2314 51.4806 40.9276 51.4806H64.6269C65.3231 51.4806 65.8875 50.8319 65.8875 50.0318C65.8875 49.2316 65.3231 48.583 64.6269 48.583Z" fill="#58707F"/>
<path d="M64.6269 43.7878H40.9276C40.2314 43.7878 39.667 44.4365 39.667 45.2366C39.667 46.0368 40.2314 46.6854 40.9276 46.6854H64.6269C65.3231 46.6854 65.8875 46.0368 65.8875 45.2366C65.8875 44.4365 65.3231 43.7878 64.6269 43.7878Z" fill="#58707F"/>
<path d="M31 12.4004H75C75.8837 12.4004 76.5996 13.1163 76.5996 14V38.5996H29.4004V14C29.4004 13.1163 30.1163 12.4004 31 12.4004Z" fill="#58707F" stroke="#58707F" stroke-width="0.8"/>
<g clip-path="url(#clip4_162_992)">
<path d="M48.8437 16.261C49.5689 16.261 50.1547 16.8275 50.1547 17.5287V18.7964H55.3988V17.5287C55.3988 16.8275 55.9847 16.261 56.7098 16.261C57.435 16.261 58.0209 16.8275 58.0209 17.5287V18.7964H59.3319C60.7781 18.7964 61.9539 19.9333 61.9539 21.3317V32.7409C61.9539 34.1393 60.7781 35.2762 59.3319 35.2762H46.2217C44.7754 35.2762 43.5996 34.1393 43.5996 32.7409V21.3317C43.5996 19.9333 44.7754 18.7964 46.2217 18.7964H47.5327V17.5287C47.5327 16.8275 48.1185 16.261 48.8437 16.261ZM46.2217 25.7686V27.0363C46.2217 27.3849 46.5166 27.6701 46.8772 27.6701H48.1882C48.5487 27.6701 48.8437 27.3849 48.8437 27.0363V25.7686C48.8437 25.42 48.5487 25.1348 48.1882 25.1348H46.8772C46.5166 25.1348 46.2217 25.42 46.2217 25.7686ZM51.4657 25.7686V27.0363C51.4657 27.3849 51.7607 27.6701 52.1213 27.6701H53.4323C53.7928 27.6701 54.0878 27.3849 54.0878 27.0363V25.7686C54.0878 25.42 53.7928 25.1348 53.4323 25.1348H52.1213C51.7607 25.1348 51.4657 25.42 51.4657 25.7686ZM57.3654 25.1348C57.0048 25.1348 56.7098 25.42 56.7098 25.7686V27.0363C56.7098 27.3849 57.0048 27.6701 57.3654 27.6701H58.6764C59.0369 27.6701 59.3319 27.3849 59.3319 27.0363V25.7686C59.3319 25.42 59.0369 25.1348 58.6764 25.1348H57.3654ZM46.2217 30.8393V32.107C46.2217 32.4556 46.5166 32.7409 46.8772 32.7409H48.1882C48.5487 32.7409 48.8437 32.4556 48.8437 32.107V30.8393C48.8437 30.4907 48.5487 30.2055 48.1882 30.2055H46.8772C46.5166 30.2055 46.2217 30.4907 46.2217 30.8393ZM52.1213 30.2055C51.7607 30.2055 51.4657 30.4907 51.4657 30.8393V32.107C51.4657 32.4556 51.7607 32.7409 52.1213 32.7409H53.4323C53.7928 32.7409 54.0878 32.4556 54.0878 32.107V30.8393C54.0878 30.4907 53.7928 30.2055 53.4323 30.2055H52.1213ZM56.7098 30.8393V32.107C56.7098 32.4556 57.0048 32.7409 57.3654 32.7409H58.6764C59.0369 32.7409 59.3319 32.4556 59.3319 32.107V30.8393C59.3319 30.4907 59.0369 30.2055 58.6764 30.2055H57.3654C57.0048 30.2055 56.7098 30.4907 56.7098 30.8393Z" fill="white"/>
</g>
<path d="M73.112 17.264L74.524 18.676L73.676 19.524L72.264 18.112L70.848 19.528L70 18.68L71.416 17.264L70 15.848L70.848 15L72.264 16.416L73.68 15.004L74.528 15.852L73.112 17.264Z" fill="white"/>
</g>
</g>
<path d="M92.571 33H85.4282C85.0337 33 84.7139 33.3198 84.7139 33.7143V42.2857C84.7139 42.6802 85.0337 43 85.4282 43H92.571C92.9655 43 93.2853 42.6802 93.2853 42.2857V33.7143C93.2853 33.3198 92.9655 33 92.571 33Z" fill="white"/>
<path fill-rule="evenodd" clip-rule="evenodd" d="M87.0931 41.3971C87.3252 41.63 87.7023 41.63 87.9345 41.3971L90.9109 38.4207C91.1431 38.1886 91.1431 37.8114 90.9109 37.5786L87.9345 34.6021C87.7023 34.3693 87.3252 34.3693 87.0931 34.6021C86.8609 34.835 86.8609 35.2114 87.0931 35.4436L89.648 38L87.0931 40.555C86.8609 40.7871 86.8609 41.165 87.0931 41.3971Z" fill="#58707F"/>
<path d="M13.4474 42.9952L20.5886 42.9154C20.983 42.911 21.2992 42.5877 21.2948 42.1932L21.199 33.6223C21.1946 33.2279 20.8713 32.9117 20.4769 32.9161L13.3357 32.9958C12.9413 33.0002 12.6252 33.3236 12.6296 33.718L12.7253 42.2889C12.7297 42.6834 13.053 42.9996 13.4474 42.9952Z" fill="white"/>
<path fill-rule="evenodd" clip-rule="evenodd" d="M18.8301 34.5374C18.5954 34.3071 18.2184 34.3113 17.9889 34.5468L15.0464 37.5562C14.8169 37.791 14.8211 38.1681 15.0558 38.3983L18.0648 41.3413C18.2995 41.5716 18.6765 41.5674 18.906 41.332C19.1355 41.0965 19.1313 40.7201 18.8966 40.4906L16.3137 37.9628L18.8395 35.3795C19.069 35.1447 19.0648 34.7669 18.8301 34.5374Z" fill="#58707F"/>
</g>
<defs>
<filter id="filter0_d_162_992" x="23" y="8" width="60" height="64" filterUnits="userSpaceOnUse" color-interpolation-filters="sRGB">
<feFlood flood-opacity="0" result="BackgroundImageFix"/>
<feColorMatrix in="SourceAlpha" type="matrix" values="0 0 0 0 0 0 0 0 0 0 0 0 0 0 0 0 0 0 127 0" result="hardAlpha"/>
<feOffset dy="2"/>
<feGaussianBlur stdDeviation="3"/>
<feComposite in2="hardAlpha" operator="out"/>
<feColorMatrix type="matrix" values="0 0 0 0 0 0 0 0 0 0 0 0 0 0 0 0 0 0 0.1 0"/>
<feBlend mode="normal" in2="BackgroundImageFix" result="effect1_dropShadow_162_992"/>
<feBlend mode="normal" in="SourceGraphic" in2="effect1_dropShadow_162_992" result="shape"/>
</filter>
<clipPath id="clip0_162_992">
<rect width="106" height="76" fill="white"/>
</clipPath>
<clipPath id="clip1_162_992">
<rect x="20.3359" y="25.668" width="12.4518" height="12.4518" rx="2" fill="white"/>
</clipPath>
<clipPath id="clip2_162_992">
<rect x="46.4697" y="25.668" width="12.4518" height="12.4518" rx="2" fill="white"/>
</clipPath>
<clipPath id="clip3_162_992">
<rect x="72.6035" y="25.668" width="12.4518" height="12.4518" rx="2" fill="white"/>
</clipPath>
<clipPath id="clip4_162_992">
<rect x="43.5996" y="16.261" width="18.3543" height="20.2829" rx="2" fill="white"/>
</clipPath>
</defs>
</svg>
