<svg width="120" height="90" viewBox="0 0 120 90" fill="none" xmlns="http://www.w3.org/2000/svg">
<rect x="0.5" y="0.5" width="119" height="89" rx="2.5" fill="white" stroke="#8796A1"/>
<path d="M108 45L113 40L108 35M12 35L7 40L12 45" stroke="#58707F" stroke-width="2" stroke-linecap="round" stroke-linejoin="round"/>
<rect x="20.5" y="10.5" width="24" height="29" rx="1.5" fill="white" stroke="#58707F"/>
<rect x="26" y="35" width="11.4353" height="1.90588" rx="0.952941" fill="#58707F"/>
<path d="M41.0009 30.9644H23.7747C23.2686 30.9644 22.8584 31.391 22.8584 31.9173C22.8584 32.4436 23.2686 32.8702 23.7747 32.8702H41.0009C41.507 32.8702 41.9172 32.4436 41.9172 31.9173C41.9172 31.391 41.507 30.9644 41.0009 30.9644Z" fill="#58707F"/>
<path d="M22 10.5H42.7764C43.6048 10.5 44.2764 11.1716 44.2764 12V27.6055H20.5V12C20.5 11.1716 21.1716 10.5 22 10.5Z" fill="#58707F" stroke="#58707F"/>
<g clip-path="url(#clip0_160_256)">
<path d="M29.5295 12.8584C30.0566 12.8584 30.4825 13.231 30.4825 13.6922V14.526H34.2942V13.6922C34.2942 13.231 34.7201 12.8584 35.2472 12.8584C35.7743 12.8584 36.2001 13.231 36.2001 13.6922V14.526H37.1531C38.2043 14.526 39.0589 15.2739 39.0589 16.1937V23.6981C39.0589 24.6179 38.2043 25.3658 37.1531 25.3658H27.6237C26.5724 25.3658 25.7178 24.6179 25.7178 23.6981V16.1937C25.7178 15.2739 26.5724 14.526 27.6237 14.526H28.5766V13.6922C28.5766 13.231 29.0024 12.8584 29.5295 12.8584ZM27.6237 19.1121V19.9459C27.6237 20.1752 27.8381 20.3628 28.1001 20.3628H29.0531C29.3151 20.3628 29.5295 20.1752 29.5295 19.9459V19.1121C29.5295 18.8828 29.3151 18.6952 29.0531 18.6952H28.1001C27.8381 18.6952 27.6237 18.8828 27.6237 19.1121ZM31.4354 19.1121V19.9459C31.4354 20.1752 31.6498 20.3628 31.9119 20.3628H32.8648C33.1269 20.3628 33.3413 20.1752 33.3413 19.9459V19.1121C33.3413 18.8828 33.1269 18.6952 32.8648 18.6952H31.9119C31.6498 18.6952 31.4354 18.8828 31.4354 19.1121ZM35.7237 18.6952C35.4616 18.6952 35.2472 18.8828 35.2472 19.1121V19.9459C35.2472 20.1752 35.4616 20.3628 35.7237 20.3628H36.6766C36.9387 20.3628 37.1531 20.1752 37.1531 19.9459V19.1121C37.1531 18.8828 36.9387 18.6952 36.6766 18.6952H35.7237ZM27.6237 22.4474V23.2812C27.6237 23.5105 27.8381 23.6981 28.1001 23.6981H29.0531C29.3151 23.6981 29.5295 23.5105 29.5295 23.2812V22.4474C29.5295 22.2181 29.3151 22.0305 29.0531 22.0305H28.1001C27.8381 22.0305 27.6237 22.2181 27.6237 22.4474ZM31.9119 22.0305C31.6498 22.0305 31.4354 22.2181 31.4354 22.4474V23.2812C31.4354 23.5105 31.6498 23.6981 31.9119 23.6981H32.8648C33.1269 23.6981 33.3413 23.5105 33.3413 23.2812V22.4474C33.3413 22.2181 33.1269 22.0305 32.8648 22.0305H31.9119ZM35.2472 22.4474V23.2812C35.2472 23.5105 35.4616 23.6981 35.7237 23.6981H36.6766C36.9387 23.6981 37.1531 23.5105 37.1531 23.2812V22.4474C37.1531 22.2181 36.9387 22.0305 36.6766 22.0305H35.7237C35.4616 22.0305 35.2472 22.2181 35.2472 22.4474Z" fill="white"/>
</g>
<rect x="48.5" y="10.5" width="24" height="29" rx="1.5" fill="white" stroke="#58707F"/>
<rect x="54" y="35" width="11.4353" height="1.90588" rx="0.952941" fill="#58707F"/>
<path d="M69.0009 30.9644H51.7747C51.2686 30.9644 50.8584 31.391 50.8584 31.9173C50.8584 32.4436 51.2686 32.8702 51.7747 32.8702H69.0009C69.507 32.8702 69.9172 32.4436 69.9172 31.9173C69.9172 31.391 69.507 30.9644 69.0009 30.9644Z" fill="#58707F"/>
<path d="M50 10.5H70.7764C71.6048 10.5 72.2764 11.1716 72.2764 12V27.6055H48.5V12C48.5 11.1716 49.1716 10.5 50 10.5Z" fill="#58707F" stroke="#58707F"/>
<g clip-path="url(#clip1_160_256)">
<path d="M57.5295 12.8584C58.0566 12.8584 58.4825 13.231 58.4825 13.6922V14.526H62.2942V13.6922C62.2942 13.231 62.7201 12.8584 63.2472 12.8584C63.7743 12.8584 64.2001 13.231 64.2001 13.6922V14.526H65.1531C66.2043 14.526 67.0589 15.2739 67.0589 16.1937V23.6981C67.0589 24.6179 66.2043 25.3658 65.1531 25.3658H55.6237C54.5724 25.3658 53.7178 24.6179 53.7178 23.6981V16.1937C53.7178 15.2739 54.5724 14.526 55.6237 14.526H56.5766V13.6922C56.5766 13.231 57.0024 12.8584 57.5295 12.8584ZM55.6237 19.1121V19.9459C55.6237 20.1752 55.8381 20.3628 56.1001 20.3628H57.0531C57.3151 20.3628 57.5295 20.1752 57.5295 19.9459V19.1121C57.5295 18.8828 57.3151 18.6952 57.0531 18.6952H56.1001C55.8381 18.6952 55.6237 18.8828 55.6237 19.1121ZM59.4354 19.1121V19.9459C59.4354 20.1752 59.6498 20.3628 59.9119 20.3628H60.8648C61.1269 20.3628 61.3413 20.1752 61.3413 19.9459V19.1121C61.3413 18.8828 61.1269 18.6952 60.8648 18.6952H59.9119C59.6498 18.6952 59.4354 18.8828 59.4354 19.1121ZM63.7237 18.6952C63.4616 18.6952 63.2472 18.8828 63.2472 19.1121V19.9459C63.2472 20.1752 63.4616 20.3628 63.7237 20.3628H64.6766C64.9387 20.3628 65.1531 20.1752 65.1531 19.9459V19.1121C65.1531 18.8828 64.9387 18.6952 64.6766 18.6952H63.7237ZM55.6237 22.4474V23.2812C55.6237 23.5105 55.8381 23.6981 56.1001 23.6981H57.0531C57.3151 23.6981 57.5295 23.5105 57.5295 23.2812V22.4474C57.5295 22.2181 57.3151 22.0305 57.0531 22.0305H56.1001C55.8381 22.0305 55.6237 22.2181 55.6237 22.4474ZM59.9119 22.0305C59.6498 22.0305 59.4354 22.2181 59.4354 22.4474V23.2812C59.4354 23.5105 59.6498 23.6981 59.9119 23.6981H60.8648C61.1269 23.6981 61.3413 23.5105 61.3413 23.2812V22.4474C61.3413 22.2181 61.1269 22.0305 60.8648 22.0305H59.9119ZM63.2472 22.4474V23.2812C63.2472 23.5105 63.4616 23.6981 63.7237 23.6981H64.6766C64.9387 23.6981 65.1531 23.5105 65.1531 23.2812V22.4474C65.1531 22.2181 64.9387 22.0305 64.6766 22.0305H63.7237C63.4616 22.0305 63.2472 22.2181 63.2472 22.4474Z" fill="white"/>
</g>
<rect x="76.5" y="10.5" width="24" height="29" rx="1.5" fill="white" stroke="#58707F"/>
<rect x="82" y="35" width="11.4353" height="1.90588" rx="0.952941" fill="#58707F"/>
<path d="M97.0009 30.9644H79.7747C79.2686 30.9644 78.8584 31.391 78.8584 31.9173C78.8584 32.4436 79.2686 32.8702 79.7747 32.8702H97.0009C97.507 32.8702 97.9172 32.4436 97.9172 31.9173C97.9172 31.391 97.507 30.9644 97.0009 30.9644Z" fill="#58707F"/>
<path d="M78 10.5H98.7764C99.6048 10.5 100.276 11.1716 100.276 12V27.6055H76.5V12C76.5 11.1716 77.1716 10.5 78 10.5Z" fill="#58707F" stroke="#58707F"/>
<g clip-path="url(#clip2_160_256)">
<path d="M85.5295 12.8584C86.0566 12.8584 86.4825 13.231 86.4825 13.6922V14.526H90.2942V13.6922C90.2942 13.231 90.7201 12.8584 91.2472 12.8584C91.7743 12.8584 92.2001 13.231 92.2001 13.6922V14.526H93.1531C94.2043 14.526 95.0589 15.2739 95.0589 16.1937V23.6981C95.0589 24.6179 94.2043 25.3658 93.1531 25.3658H83.6237C82.5724 25.3658 81.7178 24.6179 81.7178 23.6981V16.1937C81.7178 15.2739 82.5724 14.526 83.6237 14.526H84.5766V13.6922C84.5766 13.231 85.0024 12.8584 85.5295 12.8584ZM83.6237 19.1121V19.9459C83.6237 20.1752 83.8381 20.3628 84.1001 20.3628H85.0531C85.3151 20.3628 85.5295 20.1752 85.5295 19.9459V19.1121C85.5295 18.8828 85.3151 18.6952 85.0531 18.6952H84.1001C83.8381 18.6952 83.6237 18.8828 83.6237 19.1121ZM87.4354 19.1121V19.9459C87.4354 20.1752 87.6498 20.3628 87.9119 20.3628H88.8648C89.1269 20.3628 89.3413 20.1752 89.3413 19.9459V19.1121C89.3413 18.8828 89.1269 18.6952 88.8648 18.6952H87.9119C87.6498 18.6952 87.4354 18.8828 87.4354 19.1121ZM91.7237 18.6952C91.4616 18.6952 91.2472 18.8828 91.2472 19.1121V19.9459C91.2472 20.1752 91.4616 20.3628 91.7237 20.3628H92.6766C92.9387 20.3628 93.1531 20.1752 93.1531 19.9459V19.1121C93.1531 18.8828 92.9387 18.6952 92.6766 18.6952H91.7237ZM83.6237 22.4474V23.2812C83.6237 23.5105 83.8381 23.6981 84.1001 23.6981H85.0531C85.3151 23.6981 85.5295 23.5105 85.5295 23.2812V22.4474C85.5295 22.2181 85.3151 22.0305 85.0531 22.0305H84.1001C83.8381 22.0305 83.6237 22.2181 83.6237 22.4474ZM87.9119 22.0305C87.6498 22.0305 87.4354 22.2181 87.4354 22.4474V23.2812C87.4354 23.5105 87.6498 23.6981 87.9119 23.6981H88.8648C89.1269 23.6981 89.3413 23.5105 89.3413 23.2812V22.4474C89.3413 22.2181 89.1269 22.0305 88.8648 22.0305H87.9119ZM91.2472 22.4474V23.2812C91.2472 23.5105 91.4616 23.6981 91.7237 23.6981H92.6766C92.9387 23.6981 93.1531 23.5105 93.1531 23.2812V22.4474C93.1531 22.2181 92.9387 22.0305 92.6766 22.0305H91.7237C91.4616 22.0305 91.2472 22.2181 91.2472 22.4474Z" fill="white"/>
</g>
<rect x="20.4" y="43.4" width="24.2" height="29.2" rx="1.6" fill="white" stroke="#58707F" stroke-width="0.8"/>
<rect x="26" y="68" width="11.4353" height="1.90588" rx="0.952941" fill="#58707F"/>
<path d="M41.0009 63.9644H23.7747C23.2686 63.9644 22.8584 64.391 22.8584 64.9173C22.8584 65.4436 23.2686 65.8702 23.7747 65.8702H41.0009C41.507 65.8702 41.9172 65.4436 41.9172 64.9173C41.9172 64.391 41.507 63.9644 41.0009 63.9644Z" fill="#58707F"/>
<path d="M22 43.4004H42.7764C43.66 43.4004 44.377 44.1163 44.377 45V60.7061H20.4004V45C20.4004 44.1163 21.1163 43.4004 22 43.4004Z" fill="#58707F" stroke="#58707F" stroke-width="0.8"/>
<g clip-path="url(#clip3_160_256)">
<path d="M29.5295 45.8584C30.0566 45.8584 30.4825 46.231 30.4825 46.6922V47.526H34.2942V46.6922C34.2942 46.231 34.7201 45.8584 35.2472 45.8584C35.7743 45.8584 36.2001 46.231 36.2001 46.6922V47.526H37.1531C38.2043 47.526 39.0589 48.2739 39.0589 49.1937V56.6981C39.0589 57.6179 38.2043 58.3658 37.1531 58.3658H27.6237C26.5724 58.3658 25.7178 57.6179 25.7178 56.6981V49.1937C25.7178 48.2739 26.5724 47.526 27.6237 47.526H28.5766V46.6922C28.5766 46.231 29.0024 45.8584 29.5295 45.8584ZM27.6237 52.1121V52.9459C27.6237 53.1752 27.8381 53.3628 28.1001 53.3628H29.0531C29.3151 53.3628 29.5295 53.1752 29.5295 52.9459V52.1121C29.5295 51.8828 29.3151 51.6952 29.0531 51.6952H28.1001C27.8381 51.6952 27.6237 51.8828 27.6237 52.1121ZM31.4354 52.1121V52.9459C31.4354 53.1752 31.6498 53.3628 31.9119 53.3628H32.8648C33.1269 53.3628 33.3413 53.1752 33.3413 52.9459V52.1121C33.3413 51.8828 33.1269 51.6952 32.8648 51.6952H31.9119C31.6498 51.6952 31.4354 51.8828 31.4354 52.1121ZM35.7237 51.6952C35.4616 51.6952 35.2472 51.8828 35.2472 52.1121V52.9459C35.2472 53.1752 35.4616 53.3628 35.7237 53.3628H36.6766C36.9387 53.3628 37.1531 53.1752 37.1531 52.9459V52.1121C37.1531 51.8828 36.9387 51.6952 36.6766 51.6952H35.7237ZM27.6237 55.4474V56.2812C27.6237 56.5105 27.8381 56.6981 28.1001 56.6981H29.0531C29.3151 56.6981 29.5295 56.5105 29.5295 56.2812V55.4474C29.5295 55.2181 29.3151 55.0305 29.0531 55.0305H28.1001C27.8381 55.0305 27.6237 55.2181 27.6237 55.4474ZM31.9119 55.0305C31.6498 55.0305 31.4354 55.2181 31.4354 55.4474V56.2812C31.4354 56.5105 31.6498 56.6981 31.9119 56.6981H32.8648C33.1269 56.6981 33.3413 56.5105 33.3413 56.2812V55.4474C33.3413 55.2181 33.1269 55.0305 32.8648 55.0305H31.9119ZM35.2472 55.4474V56.2812C35.2472 56.5105 35.4616 56.6981 35.7237 56.6981H36.6766C36.9387 56.6981 37.1531 56.5105 37.1531 56.2812V55.4474C37.1531 55.2181 36.9387 55.0305 36.6766 55.0305H35.7237C35.4616 55.0305 35.2472 55.2181 35.2472 55.4474Z" fill="white"/>
</g>
<rect x="48.4" y="43.4" width="24.2" height="29.2" rx="1.6" fill="white" stroke="#58707F" stroke-width="0.8"/>
<rect x="54" y="68" width="11.4353" height="1.90588" rx="0.952941" fill="#58707F"/>
<path d="M69.0009 63.9644H51.7747C51.2686 63.9644 50.8584 64.391 50.8584 64.9173C50.8584 65.4436 51.2686 65.8702 51.7747 65.8702H69.0009C69.507 65.8702 69.9172 65.4436 69.9172 64.9173C69.9172 64.391 69.507 63.9644 69.0009 63.9644Z" fill="#58707F"/>
<path d="M50 43.4004H70.7764C71.66 43.4004 72.377 44.1163 72.377 45V60.7061H48.4004V45C48.4004 44.1163 49.1163 43.4004 50 43.4004Z" fill="#58707F" stroke="#58707F" stroke-width="0.8"/>
<g clip-path="url(#clip4_160_256)">
<path d="M57.5295 45.8584C58.0566 45.8584 58.4825 46.231 58.4825 46.6922V47.526H62.2942V46.6922C62.2942 46.231 62.7201 45.8584 63.2472 45.8584C63.7743 45.8584 64.2001 46.231 64.2001 46.6922V47.526H65.1531C66.2043 47.526 67.0589 48.2739 67.0589 49.1937V56.6981C67.0589 57.6179 66.2043 58.3658 65.1531 58.3658H55.6237C54.5724 58.3658 53.7178 57.6179 53.7178 56.6981V49.1937C53.7178 48.2739 54.5724 47.526 55.6237 47.526H56.5766V46.6922C56.5766 46.231 57.0024 45.8584 57.5295 45.8584ZM55.6237 52.1121V52.9459C55.6237 53.1752 55.8381 53.3628 56.1001 53.3628H57.0531C57.3151 53.3628 57.5295 53.1752 57.5295 52.9459V52.1121C57.5295 51.8828 57.3151 51.6952 57.0531 51.6952H56.1001C55.8381 51.6952 55.6237 51.8828 55.6237 52.1121ZM59.4354 52.1121V52.9459C59.4354 53.1752 59.6498 53.3628 59.9119 53.3628H60.8648C61.1269 53.3628 61.3413 53.1752 61.3413 52.9459V52.1121C61.3413 51.8828 61.1269 51.6952 60.8648 51.6952H59.9119C59.6498 51.6952 59.4354 51.8828 59.4354 52.1121ZM63.7237 51.6952C63.4616 51.6952 63.2472 51.8828 63.2472 52.1121V52.9459C63.2472 53.1752 63.4616 53.3628 63.7237 53.3628H64.6766C64.9387 53.3628 65.1531 53.1752 65.1531 52.9459V52.1121C65.1531 51.8828 64.9387 51.6952 64.6766 51.6952H63.7237ZM55.6237 55.4474V56.2812C55.6237 56.5105 55.8381 56.6981 56.1001 56.6981H57.0531C57.3151 56.6981 57.5295 56.5105 57.5295 56.2812V55.4474C57.5295 55.2181 57.3151 55.0305 57.0531 55.0305H56.1001C55.8381 55.0305 55.6237 55.2181 55.6237 55.4474ZM59.9119 55.0305C59.6498 55.0305 59.4354 55.2181 59.4354 55.4474V56.2812C59.4354 56.5105 59.6498 56.6981 59.9119 56.6981H60.8648C61.1269 56.6981 61.3413 56.5105 61.3413 56.2812V55.4474C61.3413 55.2181 61.1269 55.0305 60.8648 55.0305H59.9119ZM63.2472 55.4474V56.2812C63.2472 56.5105 63.4616 56.6981 63.7237 56.6981H64.6766C64.9387 56.6981 65.1531 56.5105 65.1531 56.2812V55.4474C65.1531 55.2181 64.9387 55.0305 64.6766 55.0305H63.7237C63.4616 55.0305 63.2472 55.2181 63.2472 55.4474Z" fill="white"/>
</g>
<rect x="76.4" y="43.4" width="24.2" height="29.2" rx="1.6" fill="white" stroke="#58707F" stroke-width="0.8"/>
<rect x="82" y="68" width="11.4353" height="1.90588" rx="0.952941" fill="#58707F"/>
<path d="M97.0009 63.9644H79.7747C79.2686 63.9644 78.8584 64.391 78.8584 64.9173C78.8584 65.4436 79.2686 65.8702 79.7747 65.8702H97.0009C97.507 65.8702 97.9172 65.4436 97.9172 64.9173C97.9172 64.391 97.507 63.9644 97.0009 63.9644Z" fill="#58707F"/>
<path d="M78 43.4004H98.7764C99.66 43.4004 100.377 44.1163 100.377 45V60.7061H76.4004V45C76.4004 44.1163 77.1163 43.4004 78 43.4004Z" fill="#58707F" stroke="#58707F" stroke-width="0.8"/>
<g clip-path="url(#clip5_160_256)">
<path d="M85.5295 45.8584C86.0566 45.8584 86.4825 46.231 86.4825 46.6922V47.526H90.2942V46.6922C90.2942 46.231 90.7201 45.8584 91.2472 45.8584C91.7743 45.8584 92.2001 46.231 92.2001 46.6922V47.526H93.1531C94.2043 47.526 95.0589 48.2739 95.0589 49.1937V56.6981C95.0589 57.6179 94.2043 58.3658 93.1531 58.3658H83.6237C82.5724 58.3658 81.7178 57.6179 81.7178 56.6981V49.1937C81.7178 48.2739 82.5724 47.526 83.6237 47.526H84.5766V46.6922C84.5766 46.231 85.0024 45.8584 85.5295 45.8584ZM83.6237 52.1121V52.9459C83.6237 53.1752 83.8381 53.3628 84.1001 53.3628H85.0531C85.3151 53.3628 85.5295 53.1752 85.5295 52.9459V52.1121C85.5295 51.8828 85.3151 51.6952 85.0531 51.6952H84.1001C83.8381 51.6952 83.6237 51.8828 83.6237 52.1121ZM87.4354 52.1121V52.9459C87.4354 53.1752 87.6498 53.3628 87.9119 53.3628H88.8648C89.1269 53.3628 89.3413 53.1752 89.3413 52.9459V52.1121C89.3413 51.8828 89.1269 51.6952 88.8648 51.6952H87.9119C87.6498 51.6952 87.4354 51.8828 87.4354 52.1121ZM91.7237 51.6952C91.4616 51.6952 91.2472 51.8828 91.2472 52.1121V52.9459C91.2472 53.1752 91.4616 53.3628 91.7237 53.3628H92.6766C92.9387 53.3628 93.1531 53.1752 93.1531 52.9459V52.1121C93.1531 51.8828 92.9387 51.6952 92.6766 51.6952H91.7237ZM83.6237 55.4474V56.2812C83.6237 56.5105 83.8381 56.6981 84.1001 56.6981H85.0531C85.3151 56.6981 85.5295 56.5105 85.5295 56.2812V55.4474C85.5295 55.2181 85.3151 55.0305 85.0531 55.0305H84.1001C83.8381 55.0305 83.6237 55.2181 83.6237 55.4474ZM87.9119 55.0305C87.6498 55.0305 87.4354 55.2181 87.4354 55.4474V56.2812C87.4354 56.5105 87.6498 56.6981 87.9119 56.6981H88.8648C89.1269 56.6981 89.3413 56.5105 89.3413 56.2812V55.4474C89.3413 55.2181 89.1269 55.0305 88.8648 55.0305H87.9119ZM91.2472 55.4474V56.2812C91.2472 56.5105 91.4616 56.6981 91.7237 56.6981H92.6766C92.9387 56.6981 93.1531 56.5105 93.1531 56.2812V55.4474C93.1531 55.2181 92.9387 55.0305 92.6766 55.0305H91.7237C91.4616 55.0305 91.2472 55.2181 91.2472 55.4474Z" fill="white"/>
</g>
<circle cx="52.5" cy="80.5" r="2.5" fill="#9EA9B2"/>
<circle cx="68.5" cy="80.5" r="2.5" fill="#9EA9B2"/>
<circle cx="60.5" cy="80.5" r="2.5" fill="#58707F"/>
<defs>
<clipPath id="clip0_160_256">
<rect x="25.7178" y="12.8584" width="13.3412" height="13.3412" rx="2" fill="white"/>
</clipPath>
<clipPath id="clip1_160_256">
<rect x="53.7178" y="12.8584" width="13.3412" height="13.3412" rx="2" fill="white"/>
</clipPath>
<clipPath id="clip2_160_256">
<rect x="81.7178" y="12.8584" width="13.3412" height="13.3412" rx="2" fill="white"/>
</clipPath>
<clipPath id="clip3_160_256">
<rect x="25.7178" y="45.8584" width="13.3412" height="13.3412" rx="2" fill="white"/>
</clipPath>
<clipPath id="clip4_160_256">
<rect x="53.7178" y="45.8584" width="13.3412" height="13.3412" rx="2" fill="white"/>
</clipPath>
<clipPath id="clip5_160_256">
<path d="M81.7178 47.8584C81.7178 46.7538 82.6132 45.8584 83.7178 45.8584H93.059C94.1635 45.8584 95.0589 46.7538 95.0589 47.8584V59.1996H81.7178V47.8584Z" fill="white"/>
</clipPath>
</defs>
</svg>
