<svg width="80" height="90" viewBox="0 0 80 90" fill="none" xmlns="http://www.w3.org/2000/svg">
<rect x="0.5" y="0.5" width="79" height="89" rx="2.5" fill="white" stroke="#8796A1"/>
<rect x="8.4" y="23.0155" width="63.2" height="45.9692" rx="1.6" fill="white" stroke="#232D33" stroke-width="0.8"/>
<path d="M10 23.0159H70C70.8837 23.0159 71.5996 23.7318 71.5996 24.6155V67.385C71.5994 68.2685 70.8836 68.9846 70 68.9846H10C9.11644 68.9846 8.40055 68.2685 8.40039 67.385V24.6155C8.40039 23.7318 9.11634 23.0159 10 23.0159Z" fill="#232D33" stroke="#232D33" stroke-width="0.8"/>
<g clip-path="url(#clip0_161_732)">
<path d="M32.8462 30C34.2077 30 35.3077 30.9625 35.3077 32.1538V34.3077H45.1538V32.1538C45.1538 30.9625 46.2538 30 47.6154 30C48.9769 30 50.0769 30.9625 50.0769 32.1538V34.3077H52.5385C55.2538 34.3077 57.4615 36.2394 57.4615 38.6154V58C57.4615 60.376 55.2538 62.3077 52.5385 62.3077H27.9231C25.2077 62.3077 23 60.376 23 58V38.6154C23 36.2394 25.2077 34.3077 27.9231 34.3077H30.3846V32.1538C30.3846 30.9625 31.4846 30 32.8462 30ZM27.9231 46.1538V48.3077C27.9231 48.9 28.4769 49.3846 29.1538 49.3846H31.6154C32.2923 49.3846 32.8462 48.9 32.8462 48.3077V46.1538C32.8462 45.5615 32.2923 45.0769 31.6154 45.0769H29.1538C28.4769 45.0769 27.9231 45.5615 27.9231 46.1538ZM37.7692 46.1538V48.3077C37.7692 48.9 38.3231 49.3846 39 49.3846H41.4615C42.1385 49.3846 42.6923 48.9 42.6923 48.3077V46.1538C42.6923 45.5615 42.1385 45.0769 41.4615 45.0769H39C38.3231 45.0769 37.7692 45.5615 37.7692 46.1538ZM48.8462 45.0769C48.1692 45.0769 47.6154 45.5615 47.6154 46.1538V48.3077C47.6154 48.9 48.1692 49.3846 48.8462 49.3846H51.3077C51.9846 49.3846 52.5385 48.9 52.5385 48.3077V46.1538C52.5385 45.5615 51.9846 45.0769 51.3077 45.0769H48.8462ZM27.9231 54.7692V56.9231C27.9231 57.5154 28.4769 58 29.1538 58H31.6154C32.2923 58 32.8462 57.5154 32.8462 56.9231V54.7692C32.8462 54.1769 32.2923 53.6923 31.6154 53.6923H29.1538C28.4769 53.6923 27.9231 54.1769 27.9231 54.7692ZM39 53.6923C38.3231 53.6923 37.7692 54.1769 37.7692 54.7692V56.9231C37.7692 57.5154 38.3231 58 39 58H41.4615C42.1385 58 42.6923 57.5154 42.6923 56.9231V54.7692C42.6923 54.1769 42.1385 53.6923 41.4615 53.6923H39ZM47.6154 54.7692V56.9231C47.6154 57.5154 48.1692 58 48.8462 58H51.3077C51.9846 58 52.5385 57.5154 52.5385 56.9231V54.7692C52.5385 54.1769 51.9846 53.6923 51.3077 53.6923H48.8462C48.1692 53.6923 47.6154 54.1769 47.6154 54.7692Z" fill="white"/>
</g>
<path d="M8 24.6155C8 23.5109 8.89543 22.6155 10 22.6155H70C71.1046 22.6155 72 23.5109 72 24.6155V67.3847C72 68.4893 71.1046 69.3847 70 69.3847H10C8.89543 69.3847 8 68.4893 8 67.3847V24.6155Z" fill="#232D33" fill-opacity="0.8"/>
<path d="M10 23.0159H70C70.8837 23.0159 71.5996 23.7318 71.5996 24.6155V67.385C71.5994 68.2685 70.8836 68.9846 70 68.9846H10C9.11644 68.9846 8.40055 68.2685 8.40039 67.385V24.6155C8.40039 23.7318 9.11634 23.0159 10 23.0159Z" stroke="#232D33" stroke-opacity="0.8" stroke-width="0.8"/>
<rect x="29" y="55" width="24" height="6" rx="3" fill="white"/>
<rect x="32" y="57" width="18" height="2" rx="1" fill="#232D33"/>
<rect x="15" y="44" width="50" height="3" rx="1.5" fill="white"/>
<rect x="15" y="49" width="50" height="3" rx="1.5" fill="white"/>
<rect x="26" y="35" width="28" height="4" rx="2" fill="white"/>
<defs>
<clipPath id="clip0_161_732">
<rect x="23" y="30" width="34.4615" height="34.4615" rx="2" fill="white"/>
</clipPath>
</defs>
</svg>
