<svg width="90" height="60" viewBox="0 0 90 60" fill="none" xmlns="http://www.w3.org/2000/svg">
<rect x="0.5" y="0.5" width="89" height="59" rx="2.5" fill="white" stroke="#8796A1"/>
<rect x="-0.4" y="0.4" width="75.0064" height="21.7806" rx="1.6" transform="matrix(-1 0 0 1 83.0066 6)" fill="white" stroke="#58707F" stroke-width="0.8"/>
<rect width="39.5161" height="1.6129" rx="0.806452" transform="matrix(-1 0 0 1 54.7744 14.8708)" fill="#58707F"/>
<rect width="33.871" height="1.6129" rx="0.806452" transform="matrix(-1 0 0 1 54.7744 18.0967)" fill="#58707F"/>
<rect width="12.9032" height="1.6129" rx="0.806452" transform="matrix(-1 0 0 1 54.7744 21.3225)" fill="#58707F"/>
<path d="M36.3501 10.0322H53.8439C54.3578 10.0322 54.7744 10.4836 54.7744 11.0403C54.7744 11.597 54.3578 12.0484 53.8439 12.0484H36.3501C35.8362 12.0484 35.4196 11.597 35.4196 11.0403C35.4196 10.4836 35.8362 10.0322 36.3501 10.0322Z" fill="#58707F"/>
<path d="M81.8066 6.40039H58.4004V28.1807H81.8066C82.6902 28.1807 83.406 27.4645 83.4062 26.5811V8C83.4062 7.11634 82.6903 6.40039 81.8066 6.40039Z" fill="#58707F" stroke="#58707F" stroke-width="0.8"/>
<g clip-path="url(#clip0_161_777)">
<path d="M73.3225 11.6453C72.8765 11.6453 72.5161 11.9606 72.5161 12.3509V13.0566H69.2903V12.3509C69.2903 11.9606 68.9299 11.6453 68.4838 11.6453C68.0378 11.6453 67.6774 11.9606 67.6774 12.3509V13.0566H66.8709C65.9813 13.0566 65.258 13.6894 65.258 14.4678V20.8187C65.258 21.5971 65.9813 22.2299 66.8709 22.2299H74.9354C75.8251 22.2299 76.5483 21.5971 76.5483 20.8187V14.4678C76.5483 13.6894 75.8251 13.0566 74.9354 13.0566H74.129V12.3509C74.129 11.9606 73.7686 11.6453 73.3225 11.6453ZM74.9354 16.9376V17.6432C74.9354 17.8373 74.754 17.9961 74.5322 17.9961H73.7258C73.504 17.9961 73.3225 17.8373 73.3225 17.6432V16.9376C73.3225 16.7435 73.504 16.5848 73.7258 16.5848H74.5322C74.754 16.5848 74.9354 16.7435 74.9354 16.9376ZM71.7096 16.9376V17.6432C71.7096 17.8373 71.5282 17.9961 71.3064 17.9961H70.5C70.2782 17.9961 70.0967 17.8373 70.0967 17.6432V16.9376C70.0967 16.7435 70.2782 16.5848 70.5 16.5848H71.3064C71.5282 16.5848 71.7096 16.7435 71.7096 16.9376ZM68.0806 16.5848C68.3024 16.5848 68.4838 16.7435 68.4838 16.9376V17.6432C68.4838 17.8373 68.3024 17.9961 68.0806 17.9961H67.2741C67.0524 17.9961 66.8709 17.8373 66.8709 17.6432V16.9376C66.8709 16.7435 67.0524 16.5848 67.2741 16.5848H68.0806ZM74.9354 19.7602V20.4658C74.9354 20.6599 74.754 20.8187 74.5322 20.8187H73.7258C73.504 20.8187 73.3225 20.6599 73.3225 20.4658V19.7602C73.3225 19.5661 73.504 19.4074 73.7258 19.4074H74.5322C74.754 19.4074 74.9354 19.5661 74.9354 19.7602ZM71.3064 19.4074C71.5282 19.4074 71.7096 19.5661 71.7096 19.7602V20.4658C71.7096 20.6599 71.5282 20.8187 71.3064 20.8187H70.5C70.2782 20.8187 70.0967 20.6599 70.0967 20.4658V19.7602C70.0967 19.5661 70.2782 19.4074 70.5 19.4074H71.3064ZM68.4838 19.7602V20.4658C68.4838 20.6599 68.3024 20.8187 68.0806 20.8187H67.2741C67.0524 20.8187 66.8709 20.6599 66.8709 20.4658V19.7602C66.8709 19.5661 67.0524 19.4074 67.2741 19.4074H68.0806C68.3024 19.4074 68.4838 19.5661 68.4838 19.7602Z" fill="white"/>
</g>
<rect x="-0.4" y="0.4" width="75.0064" height="21.7806" rx="1.6" transform="matrix(-1 0 0 1 83.0066 32.4194)" fill="white" stroke="#58707F" stroke-width="0.8"/>
<rect width="39.5161" height="1.6129" rx="0.806452" transform="matrix(-1 0 0 1 54.7744 41.2903)" fill="#58707F"/>
<rect width="33.871" height="1.6129" rx="0.806452" transform="matrix(-1 0 0 1 54.7744 44.5161)" fill="#58707F"/>
<rect width="12.9032" height="1.6129" rx="0.806452" transform="matrix(-1 0 0 1 54.7744 47.7419)" fill="#58707F"/>
<path d="M36.3501 36.4517H53.8439C54.3578 36.4517 54.7744 36.903 54.7744 37.4597C54.7744 38.0165 54.3578 38.4678 53.8439 38.4678H36.3501C35.8362 38.4678 35.4196 38.0165 35.4196 37.4597C35.4196 36.903 35.8362 36.4517 36.3501 36.4517Z" fill="#58707F"/>
<path d="M81.8066 32.8198H58.4004V54.6001H81.8066C82.6902 54.6001 83.406 53.884 83.4062 53.0005V34.4194C83.4062 33.5358 82.6903 32.8198 81.8066 32.8198Z" fill="#58707F" stroke="#58707F" stroke-width="0.8"/>
<g clip-path="url(#clip1_161_777)">
<path d="M73.3225 38.0645C72.8765 38.0645 72.5161 38.3798 72.5161 38.7701V39.4757H69.2903V38.7701C69.2903 38.3798 68.9299 38.0645 68.4838 38.0645C68.0378 38.0645 67.6774 38.3798 67.6774 38.7701V39.4757H66.8709C65.9813 39.4757 65.258 40.1086 65.258 40.887V47.2378C65.258 48.0163 65.9813 48.6491 66.8709 48.6491H74.9354C75.8251 48.6491 76.5483 48.0163 76.5483 47.2378V40.887C76.5483 40.1086 75.8251 39.4757 74.9354 39.4757H74.129V38.7701C74.129 38.3798 73.7686 38.0645 73.3225 38.0645ZM74.9354 43.3568V44.0624C74.9354 44.2565 74.754 44.4153 74.5322 44.4153H73.7258C73.504 44.4153 73.3225 44.2565 73.3225 44.0624V43.3568C73.3225 43.1627 73.504 43.004 73.7258 43.004H74.5322C74.754 43.004 74.9354 43.1627 74.9354 43.3568ZM71.7096 43.3568V44.0624C71.7096 44.2565 71.5282 44.4153 71.3064 44.4153H70.5C70.2782 44.4153 70.0967 44.2565 70.0967 44.0624V43.3568C70.0967 43.1627 70.2782 43.004 70.5 43.004H71.3064C71.5282 43.004 71.7096 43.1627 71.7096 43.3568ZM68.0806 43.004C68.3024 43.004 68.4838 43.1627 68.4838 43.3568V44.0624C68.4838 44.2565 68.3024 44.4153 68.0806 44.4153H67.2741C67.0524 44.4153 66.8709 44.2565 66.8709 44.0624V43.3568C66.8709 43.1627 67.0524 43.004 67.2741 43.004H68.0806ZM74.9354 46.1794V46.885C74.9354 47.0791 74.754 47.2378 74.5322 47.2378H73.7258C73.504 47.2378 73.3225 47.0791 73.3225 46.885V46.1794C73.3225 45.9853 73.504 45.8265 73.7258 45.8265H74.5322C74.754 45.8265 74.9354 45.9853 74.9354 46.1794ZM71.3064 45.8265C71.5282 45.8265 71.7096 45.9853 71.7096 46.1794V46.885C71.7096 47.0791 71.5282 47.2378 71.3064 47.2378H70.5C70.2782 47.2378 70.0967 47.0791 70.0967 46.885V46.1794C70.0967 45.9853 70.2782 45.8265 70.5 45.8265H71.3064ZM68.4838 46.1794V46.885C68.4838 47.0791 68.3024 47.2378 68.0806 47.2378H67.2741C67.0524 47.2378 66.8709 47.0791 66.8709 46.885V46.1794C66.8709 45.9853 67.0524 45.8265 67.2741 45.8265H68.0806C68.3024 45.8265 68.4838 45.9853 68.4838 46.1794Z" fill="white"/>
</g>
<defs>
<clipPath id="clip0_161_777">
<rect width="11.2903" height="11.2903" rx="2" transform="matrix(-1 0 0 1 76.5483 11.6453)" fill="white"/>
</clipPath>
<clipPath id="clip1_161_777">
<rect width="11.2903" height="11.2903" rx="2" transform="matrix(-1 0 0 1 76.5483 38.0645)" fill="white"/>
</clipPath>
</defs>
</svg>
