<svg width="120" height="90" viewBox="0 0 120 90" fill="none" xmlns="http://www.w3.org/2000/svg">
<rect x="0.5" y="0.5" width="119" height="89" rx="2.5" fill="white" stroke="#8796A1"/>
<path d="M108 50L113 45L108 40M12 40L7 45L12 50" stroke="#58707F" stroke-width="2" stroke-linecap="round" stroke-linejoin="round"/>
<rect x="19.4" y="13.4" width="82.2" height="64.2" rx="1.6" fill="white" stroke="#58707F" stroke-width="0.8"/>
<rect x="45" y="68" width="35" height="4" rx="2" fill="#58707F"/>
<path d="M87.4038 61H38.5962C37.1623 61 36 61.8954 36 63C36 64.1046 37.1623 65 38.5962 65H87.4038C88.8377 65 90 64.1046 90 63C90 61.8954 88.8377 61 87.4038 61Z" fill="#58707F"/>
<path d="M87.3558 53H37.6442C36.1839 53 35 53.8954 35 55C35 56.1046 36.1839 57 37.6442 57H87.3558C88.8161 57 90 56.1046 90 55C90 53.8954 88.8161 53 87.3558 53Z" fill="#58707F"/>
<path d="M21 13.4004H100C100.884 13.4004 101.6 14.1163 101.6 15V47.5996H19.4004V15C19.4004 14.1163 20.1163 13.4004 21 13.4004Z" fill="#58707F" stroke="#58707F" stroke-width="0.8"/>
<g clip-path="url(#clip0_842_125)">
<path d="M55.3846 18.5383C56.4058 18.5383 57.2308 19.2602 57.2308 20.1537V21.7691H64.6154V20.1537C64.6154 19.2602 65.4404 18.5383 66.4615 18.5383C67.4827 18.5383 68.3077 19.2602 68.3077 20.1537V21.7691H70.1538C72.1904 21.7691 73.8462 23.2179 73.8462 24.9999V39.5383C73.8462 41.3203 72.1904 42.7691 70.1538 42.7691H51.6923C49.6558 42.7691 48 41.3203 48 39.5383V24.9999C48 23.2179 49.6558 21.7691 51.6923 21.7691H53.5385V20.1537C53.5385 19.2602 54.3635 18.5383 55.3846 18.5383ZM51.6923 30.6537V32.2691C51.6923 32.7133 52.1077 33.0768 52.6154 33.0768H54.4615C54.9692 33.0768 55.3846 32.7133 55.3846 32.2691V30.6537C55.3846 30.2095 54.9692 29.846 54.4615 29.846H52.6154C52.1077 29.846 51.6923 30.2095 51.6923 30.6537ZM59.0769 30.6537V32.2691C59.0769 32.7133 59.4923 33.0768 60 33.0768H61.8462C62.3538 33.0768 62.7692 32.7133 62.7692 32.2691V30.6537C62.7692 30.2095 62.3538 29.846 61.8462 29.846H60C59.4923 29.846 59.0769 30.2095 59.0769 30.6537ZM67.3846 29.846C66.8769 29.846 66.4615 30.2095 66.4615 30.6537V32.2691C66.4615 32.7133 66.8769 33.0768 67.3846 33.0768H69.2308C69.7385 33.0768 70.1538 32.7133 70.1538 32.2691V30.6537C70.1538 30.2095 69.7385 29.846 69.2308 29.846H67.3846ZM51.6923 37.1153V38.7306C51.6923 39.1749 52.1077 39.5383 52.6154 39.5383H54.4615C54.9692 39.5383 55.3846 39.1749 55.3846 38.7306V37.1153C55.3846 36.671 54.9692 36.3076 54.4615 36.3076H52.6154C52.1077 36.3076 51.6923 36.671 51.6923 37.1153ZM60 36.3076C59.4923 36.3076 59.0769 36.671 59.0769 37.1153V38.7306C59.0769 39.1749 59.4923 39.5383 60 39.5383H61.8462C62.3538 39.5383 62.7692 39.1749 62.7692 38.7306V37.1153C62.7692 36.671 62.3538 36.3076 61.8462 36.3076H60ZM66.4615 37.1153V38.7306C66.4615 39.1749 66.8769 39.5383 67.3846 39.5383H69.2308C69.7385 39.5383 70.1538 39.1749 70.1538 38.7306V37.1153C70.1538 36.671 69.7385 36.3076 69.2308 36.3076H67.3846C66.8769 36.3076 66.4615 36.671 66.4615 37.1153Z" fill="white"/>
</g>
<defs>
<clipPath id="clip0_842_125">
<rect x="48" y="18.5383" width="25.8462" height="25.8462" rx="2" fill="white"/>
</clipPath>
</defs>
</svg>
