<svg width="120" height="90" viewBox="0 0 120 90" fill="none" xmlns="http://www.w3.org/2000/svg">
<rect x="0.5" y="0.5" width="119" height="89" rx="2.5" fill="white" stroke="#8796A1"/>
<rect x="13.4" y="19.4" width="93.2" height="51.2" rx="1.6" fill="white" stroke="#58707F" stroke-width="0.8"/>
<path d="M15 19.4H105A1.6 1.6 0 0 1 106.6 21V31.4H13.4V21A1.6 1.6 0 0 1 15 19.4Z" fill="#58707F"/>
<rect x="19" y="24.4" width="12" height="2" rx="1" fill="white"/>
<rect x="42" y="24.4" width="12" height="2" rx="1" fill="white"/>
<rect x="65" y="24.4" width="12" height="2" rx="1" fill="white"/>
<rect x="88" y="24.4" width="12" height="2" rx="1" fill="white"/>
<rect x="13.4" y="44.1" width="93.2" height="0.8" fill="#8796A1"/>
<rect x="13.4" y="57.1" width="93.2" height="0.8" fill="#8796A1"/>
<rect x="36.4" y="31.4" width="0.8" height="39.2" fill="#8796A1"/>
<rect x="59.6" y="31.4" width="0.8" height="39.2" fill="#8796A1"/>
<rect x="82.8" y="31.4" width="0.8" height="39.2" fill="#8796A1"/>
<rect x="19" y="36.9" width="12" height="2" rx="1" fill="#58707F"/>
<rect x="42" y="36.9" width="12" height="2" rx="1" fill="#58707F"/>
<rect x="65" y="36.9" width="12" height="2" rx="1" fill="#58707F"/>
<rect x="88" y="36.9" width="12" height="2" rx="1" fill="#58707F"/>
<rect x="19" y="49.9" width="12" height="2" rx="1" fill="#58707F"/>
<rect x="42" y="49.9" width="12" height="2" rx="1" fill="#58707F"/>
<rect x="65" y="49.9" width="12" height="2" rx="1" fill="#58707F"/>
<rect x="88" y="49.9" width="12" height="2" rx="1" fill="#58707F"/>
<rect x="19" y="62.9" width="12" height="2" rx="1" fill="#58707F"/>
<rect x="42" y="62.9" width="12" height="2" rx="1" fill="#58707F"/>
<rect x="65" y="62.9" width="12" height="2" rx="1" fill="#58707F"/>
<rect x="88" y="62.9" width="12" height="2" rx="1" fill="#58707F"/>
</svg>
