<svg width="120" height="90" viewBox="0 0 120 90" fill="none" xmlns="http://www.w3.org/2000/svg">
<rect x="0.5" y="0.5" width="119" height="89" rx="2.5" fill="white" stroke="#8796A1"/>
<rect x="59.4" y="34.4" width="27.0356" height="36.671" rx="1.6" fill="white" stroke="#58707F" stroke-width="0.8"/>
<rect x="65.4248" y="66.1177" width="12.8472" height="2.1412" rx="1.0706" fill="#58707F"/>
<path d="M82.5955 61.8354H63.2423C62.6738 61.8354 62.2129 62.3148 62.2129 62.906C62.2129 63.4973 62.6738 63.9766 63.2423 63.9766H82.5955C83.164 63.9766 83.6249 63.4973 83.6249 62.906C83.6249 62.3148 83.164 61.8354 82.5955 61.8354Z" fill="#58707F"/>
<path d="M82.5955 57.5532H63.2423C62.6738 57.5532 62.2129 58.0325 62.2129 58.6238C62.2129 59.2151 62.6738 59.6944 63.2423 59.6944H82.5955C83.164 59.6944 83.6249 59.2151 83.6249 58.6238C83.6249 58.0325 83.164 57.5532 82.5955 57.5532Z" fill="#58707F"/>
<path d="M61 34.4004H84.8359C85.7194 34.4006 86.4355 35.1165 86.4355 36V53.9414H59.4004V36C59.4004 35.1163 60.1163 34.4004 61 34.4004Z" fill="#58707F" stroke="#58707F" stroke-width="0.8"/>
<g clip-path="url(#clip0_160_439)">
<path d="M69.7072 37.2114C70.2994 37.2114 70.7778 37.63 70.7778 38.1482V39.085H75.0602V38.1482C75.0602 37.63 75.5386 37.2114 76.1308 37.2114C76.723 37.2114 77.2014 37.63 77.2014 38.1482V39.085H78.272C79.453 39.085 80.4132 39.9251 80.4132 40.9585V49.3895C80.4132 50.4229 79.453 51.263 78.272 51.263H67.566C66.385 51.263 65.4248 50.4229 65.4248 49.3895V40.9585C65.4248 39.9251 66.385 39.085 67.566 39.085H68.6366V38.1482C68.6366 37.63 69.115 37.2114 69.7072 37.2114ZM67.566 44.2372V45.174C67.566 45.4316 67.8069 45.6424 68.1013 45.6424H69.1719C69.4663 45.6424 69.7072 45.4316 69.7072 45.174V44.2372C69.7072 43.9796 69.4663 43.7688 69.1719 43.7688H68.1013C67.8069 43.7688 67.566 43.9796 67.566 44.2372ZM71.8484 44.2372V45.174C71.8484 45.4316 72.0893 45.6424 72.3837 45.6424H73.4543C73.7487 45.6424 73.9896 45.4316 73.9896 45.174V44.2372C73.9896 43.9796 73.7487 43.7688 73.4543 43.7688H72.3837C72.0893 43.7688 71.8484 43.9796 71.8484 44.2372ZM76.6661 43.7688C76.3717 43.7688 76.1308 43.9796 76.1308 44.2372V45.174C76.1308 45.4316 76.3717 45.6424 76.6661 45.6424H77.7367C78.0311 45.6424 78.272 45.4316 78.272 45.174V44.2372C78.272 43.9796 78.0311 43.7688 77.7367 43.7688H76.6661ZM67.566 47.9843V48.9211C67.566 49.1787 67.8069 49.3895 68.1013 49.3895H69.1719C69.4663 49.3895 69.7072 49.1787 69.7072 48.9211V47.9843C69.7072 47.7267 69.4663 47.5159 69.1719 47.5159H68.1013C67.8069 47.5159 67.566 47.7267 67.566 47.9843ZM72.3837 47.5159C72.0893 47.5159 71.8484 47.7267 71.8484 47.9843V48.9211C71.8484 49.1787 72.0893 49.3895 72.3837 49.3895H73.4543C73.7487 49.3895 73.9896 49.1787 73.9896 48.9211V47.9843C73.9896 47.7267 73.7487 47.5159 73.4543 47.5159H72.3837ZM76.1308 47.9843V48.9211C76.1308 49.1787 76.3717 49.3895 76.6661 49.3895H77.7367C78.0311 49.3895 78.272 49.1787 78.272 48.9211V47.9843C78.272 47.7267 78.0311 47.5159 77.7367 47.5159H76.6661C76.3717 47.5159 76.1308 47.7267 76.1308 47.9843Z" fill="white"/>
</g>
<rect x="90.4" y="34.4" width="27.0356" height="36.671" rx="1.6" fill="white" stroke="#58707F" stroke-width="0.8"/>
<rect x="96.4248" y="66.1177" width="12.8472" height="2.1412" rx="1.0706" fill="#58707F"/>
<path d="M113.595 61.8354H94.2423C93.6738 61.8354 93.2129 62.3148 93.2129 62.906C93.2129 63.4973 93.6738 63.9766 94.2423 63.9766H113.595C114.164 63.9766 114.625 63.4973 114.625 62.906C114.625 62.3148 114.164 61.8354 113.595 61.8354Z" fill="#58707F"/>
<path d="M113.595 57.5532H94.2423C93.6738 57.5532 93.2129 58.0325 93.2129 58.6238C93.2129 59.2151 93.6738 59.6944 94.2423 59.6944H113.595C114.164 59.6944 114.625 59.2151 114.625 58.6238C114.625 58.0325 114.164 57.5532 113.595 57.5532Z" fill="#58707F"/>
<path d="M92 34.4004H115.836C116.719 34.4006 117.436 35.1165 117.436 36V53.9414H90.4004V36C90.4004 35.1163 91.1163 34.4004 92 34.4004Z" fill="#58707F" stroke="#58707F" stroke-width="0.8"/>
<g clip-path="url(#clip1_160_439)">
<path d="M100.707 37.2114C101.299 37.2114 101.778 37.63 101.778 38.1482V39.085H106.06V38.1482C106.06 37.63 106.539 37.2114 107.131 37.2114C107.723 37.2114 108.201 37.63 108.201 38.1482V39.085H109.272C110.453 39.085 111.413 39.9251 111.413 40.9585V49.3895C111.413 50.4229 110.453 51.263 109.272 51.263H98.566C97.385 51.263 96.4248 50.4229 96.4248 49.3895V40.9585C96.4248 39.9251 97.385 39.085 98.566 39.085H99.6366V38.1482C99.6366 37.63 100.115 37.2114 100.707 37.2114ZM98.566 44.2372V45.174C98.566 45.4316 98.8069 45.6424 99.1013 45.6424H100.172C100.466 45.6424 100.707 45.4316 100.707 45.174V44.2372C100.707 43.9796 100.466 43.7688 100.172 43.7688H99.1013C98.8069 43.7688 98.566 43.9796 98.566 44.2372ZM102.848 44.2372V45.174C102.848 45.4316 103.089 45.6424 103.384 45.6424H104.454C104.749 45.6424 104.99 45.4316 104.99 45.174V44.2372C104.99 43.9796 104.749 43.7688 104.454 43.7688H103.384C103.089 43.7688 102.848 43.9796 102.848 44.2372ZM107.666 43.7688C107.372 43.7688 107.131 43.9796 107.131 44.2372V45.174C107.131 45.4316 107.372 45.6424 107.666 45.6424H108.737C109.031 45.6424 109.272 45.4316 109.272 45.174V44.2372C109.272 43.9796 109.031 43.7688 108.737 43.7688H107.666ZM98.566 47.9843V48.9211C98.566 49.1787 98.8069 49.3895 99.1013 49.3895H100.172C100.466 49.3895 100.707 49.1787 100.707 48.9211V47.9843C100.707 47.7267 100.466 47.5159 100.172 47.5159H99.1013C98.8069 47.5159 98.566 47.7267 98.566 47.9843ZM103.384 47.5159C103.089 47.5159 102.848 47.7267 102.848 47.9843V48.9211C102.848 49.1787 103.089 49.3895 103.384 49.3895H104.454C104.749 49.3895 104.99 49.1787 104.99 48.9211V47.9843C104.99 47.7267 104.749 47.5159 104.454 47.5159H103.384ZM107.131 47.9843V48.9211C107.131 49.1787 107.372 49.3895 107.666 49.3895H108.737C109.031 49.3895 109.272 49.1787 109.272 48.9211V47.9843C109.272 47.7267 109.031 47.5159 108.737 47.5159H107.666C107.372 47.5159 107.131 47.7267 107.131 47.9843Z" fill="white"/>
</g>
<rect x="28.4" y="34.4" width="27.0356" height="36.671" rx="1.6" fill="white" stroke="#58707F" stroke-width="0.8"/>
<rect x="34.4229" y="66.1177" width="12.8472" height="2.1412" rx="1.0706" fill="#58707F"/>
<path d="M51.5935 61.8354H32.2404C31.6718 61.8354 31.2109 62.3148 31.2109 62.906C31.2109 63.4973 31.6718 63.9766 32.2404 63.9766H51.5935C52.162 63.9766 52.6229 63.4973 52.6229 62.906C52.6229 62.3148 52.162 61.8354 51.5935 61.8354Z" fill="#58707F"/>
<path d="M51.5935 57.5532H32.2404C31.6718 57.5532 31.2109 58.0325 31.2109 58.6238C31.2109 59.2151 31.6718 59.6944 32.2404 59.6944H51.5935C52.162 59.6944 52.6229 59.2151 52.6229 58.6238C52.6229 58.0325 52.162 57.5532 51.5935 57.5532Z" fill="#58707F"/>
<path d="M30 34.4004H53.8359C54.7194 34.4006 55.4355 35.1165 55.4355 36V53.9414H28.4004V36C28.4004 35.1163 29.1163 34.4004 30 34.4004Z" fill="#58707F" stroke="#58707F" stroke-width="0.8"/>
<g clip-path="url(#clip2_160_439)">
<path d="M38.7052 37.2114C39.2974 37.2114 39.7758 37.63 39.7758 38.1482V39.085H44.0582V38.1482C44.0582 37.63 44.5367 37.2114 45.1288 37.2114C45.721 37.2114 46.1994 37.63 46.1994 38.1482V39.085H47.27C48.451 39.085 49.4112 39.9251 49.4112 40.9585V49.3895C49.4112 50.4229 48.451 51.263 47.27 51.263H36.5641C35.383 51.263 34.4229 50.4229 34.4229 49.3895V40.9585C34.4229 39.9251 35.383 39.085 36.5641 39.085H37.6346V38.1482C37.6346 37.63 38.1131 37.2114 38.7052 37.2114ZM36.5641 44.2372V45.174C36.5641 45.4316 36.8049 45.6424 37.0993 45.6424H38.1699C38.4644 45.6424 38.7052 45.4316 38.7052 45.174V44.2372C38.7052 43.9796 38.4644 43.7688 38.1699 43.7688H37.0993C36.8049 43.7688 36.5641 43.9796 36.5641 44.2372ZM40.8464 44.2372V45.174C40.8464 45.4316 41.0873 45.6424 41.3817 45.6424H42.4523C42.7468 45.6424 42.9876 45.4316 42.9876 45.174V44.2372C42.9876 43.9796 42.7468 43.7688 42.4523 43.7688H41.3817C41.0873 43.7688 40.8464 43.9796 40.8464 44.2372ZM45.6641 43.7688C45.3697 43.7688 45.1288 43.9796 45.1288 44.2372V45.174C45.1288 45.4316 45.3697 45.6424 45.6641 45.6424H46.7347C47.0292 45.6424 47.27 45.4316 47.27 45.174V44.2372C47.27 43.9796 47.0292 43.7688 46.7347 43.7688H45.6641ZM36.5641 47.9843V48.9211C36.5641 49.1787 36.8049 49.3895 37.0993 49.3895H38.1699C38.4644 49.3895 38.7052 49.1787 38.7052 48.9211V47.9843C38.7052 47.7267 38.4644 47.5159 38.1699 47.5159H37.0993C36.8049 47.5159 36.5641 47.7267 36.5641 47.9843ZM41.3817 47.5159C41.0873 47.5159 40.8464 47.7267 40.8464 47.9843V48.9211C40.8464 49.1787 41.0873 49.3895 41.3817 49.3895H42.4523C42.7468 49.3895 42.9876 49.1787 42.9876 48.9211V47.9843C42.9876 47.7267 42.7468 47.5159 42.4523 47.5159H41.3817ZM45.1288 47.9843V48.9211C45.1288 49.1787 45.3697 49.3895 45.6641 49.3895H46.7347C47.0292 49.3895 47.27 49.1787 47.27 48.9211V47.9843C47.27 47.7267 47.0292 47.5159 46.7347 47.5159H45.6641C45.3697 47.5159 45.1288 47.7267 45.1288 47.9843Z" fill="white"/>
</g>
<rect x="2.4" y="34.4" width="22.0356" height="36.671" rx="1.6" fill="white" stroke="#58707F" stroke-width="0.8"/>
<rect x="7.26953" y="66.1177" width="10.5395" height="2.1412" rx="1.0706" fill="#58707F"/>
<path d="M21.3571 61.8354H5.48025C5.01384 61.8354 4.63574 62.3148 4.63574 62.906C4.63574 63.4973 5.01384 63.9766 5.48025 63.9766H21.3571C21.8235 63.9766 22.2016 63.4973 22.2016 62.906C22.2016 62.3148 21.8235 61.8354 21.3571 61.8354Z" fill="#58707F"/>
<path d="M21.3571 57.5532H5.48025C5.01384 57.5532 4.63574 58.0325 4.63574 58.6238C4.63574 59.2151 5.01384 59.6944 5.48025 59.6944H21.3571C21.8235 59.6944 22.2016 59.2151 22.2016 58.6238C22.2016 58.0325 21.8235 57.5532 21.3571 57.5532Z" fill="#58707F"/>
<path d="M4 34.4004H22.8359C23.7194 34.4006 24.4355 35.1165 24.4355 36V53.9414H2.40039V36C2.40039 35.1163 3.11635 34.4004 4 34.4004Z" fill="#58707F" stroke="#58707F" stroke-width="0.8"/>
<g clip-path="url(#clip3_160_439)">
<path d="M10.7827 37.2114C11.2685 37.2114 11.661 37.63 11.661 38.1482V39.085H15.1742V38.1482C15.1742 37.63 15.5666 37.2114 16.0524 37.2114C16.5383 37.2114 16.9307 37.63 16.9307 38.1482V39.085H17.809C18.7779 39.085 19.5656 39.9251 19.5656 40.9585V49.3895C19.5656 50.4229 18.7779 51.263 17.809 51.263H9.02611C8.05725 51.263 7.26953 50.4229 7.26953 49.3895V40.9585C7.26953 39.9251 8.05725 39.085 9.02611 39.085H9.90441V38.1482C9.90441 37.63 10.2969 37.2114 10.7827 37.2114ZM9.02611 44.2372V45.174C9.02611 45.4316 9.22373 45.6424 9.46526 45.6424H10.3436C10.5851 45.6424 10.7827 45.4316 10.7827 45.174V44.2372C10.7827 43.9796 10.5851 43.7688 10.3436 43.7688H9.46526C9.22373 43.7688 9.02611 43.9796 9.02611 44.2372ZM12.5393 44.2372V45.174C12.5393 45.4316 12.7369 45.6424 12.9784 45.6424H13.8567C14.0982 45.6424 14.2959 45.4316 14.2959 45.174V44.2372C14.2959 43.9796 14.0982 43.7688 13.8567 43.7688H12.9784C12.7369 43.7688 12.5393 43.9796 12.5393 44.2372ZM16.4916 43.7688C16.2501 43.7688 16.0524 43.9796 16.0524 44.2372V45.174C16.0524 45.4316 16.2501 45.6424 16.4916 45.6424H17.3699C17.6114 45.6424 17.809 45.4316 17.809 45.174V44.2372C17.809 43.9796 17.6114 43.7688 17.3699 43.7688H16.4916ZM9.02611 47.9843V48.9211C9.02611 49.1787 9.22373 49.3895 9.46526 49.3895H10.3436C10.5851 49.3895 10.7827 49.1787 10.7827 48.9211V47.9843C10.7827 47.7267 10.5851 47.5159 10.3436 47.5159H9.46526C9.22373 47.5159 9.02611 47.7267 9.02611 47.9843ZM12.9784 47.5159C12.7369 47.5159 12.5393 47.7267 12.5393 47.9843V48.9211C12.5393 49.1787 12.7369 49.3895 12.9784 49.3895H13.8567C14.0982 49.3895 14.2959 49.1787 14.2959 48.9211V47.9843C14.2959 47.7267 14.0982 47.5159 13.8567 47.5159H12.9784ZM16.0524 47.9843V48.9211C16.0524 49.1787 16.2501 49.3895 16.4916 49.3895H17.3699C17.6114 49.3895 17.809 49.1787 17.809 48.9211V47.9843C17.809 47.7267 17.6114 47.5159 17.3699 47.5159H16.4916C16.2501 47.5159 16.0524 47.7267 16.0524 47.9843Z" fill="white"/>
</g>
<rect x="104" y="33" width="15" height="39" fill="white"/>
<rect x="1" y="33" width="15" height="39" fill="white"/>
<path fill-rule="evenodd" clip-rule="evenodd" d="M79 22.9868C79.0008 22.8102 79.0713 22.641 79.1962 22.5161C79.3212 22.3911 79.4904 22.3206 79.667 22.3198H80.334C80.702 22.3198 81.001 22.6178 81.001 22.9868V23.6538C81.0002 23.8305 80.9297 23.9997 80.8048 24.1246C80.6799 24.2495 80.5107 24.32 80.334 24.3208H79.667C79.299 24.3208 79 24.0228 79 23.6538V22.9868ZM74.333 22.9868C74.3338 22.8102 74.4043 22.641 74.5292 22.5161C74.6542 22.3911 74.8234 22.3206 75 22.3198H77C77.368 22.3198 77.667 22.6178 77.667 22.9868V23.6538C77.667 24.0218 77.369 24.3208 77 24.3208H75C74.632 24.3208 74.333 24.0228 74.333 23.6538V22.9868ZM68.333 22.9868C68.3338 22.8102 68.4043 22.641 68.5292 22.5161C68.6542 22.3911 68.8234 22.3206 69 22.3198H72.333C72.701 22.3198 73 22.6178 73 22.9868V23.6538C72.9992 23.8305 72.9287 23.9997 72.8038 24.1246C72.6789 24.2495 72.5097 24.32 72.333 24.3208H69C68.632 24.3208 68.333 24.0228 68.333 23.6538V22.9868Z" fill="#58707F"/>
<path d="M45.0398 18.6947C45.2219 18.5061 45.3227 18.2535 45.3205 17.9913C45.3182 17.7291 45.213 17.4783 45.0276 17.2929C44.8422 17.1075 44.5914 17.0023 44.3292 17C44.067 16.9978 43.8144 17.0986 43.6258 17.2807L38.2928 22.6137C38.1053 22.8012 38 23.0555 38 23.3207C38 23.5859 38.1053 23.8402 38.2928 24.0277L43.6258 29.3607C43.8144 29.5429 44.067 29.6437 44.3292 29.6414C44.5914 29.6391 44.8422 29.5339 45.0276 29.3485C45.213 29.1631 45.3182 28.9123 45.3205 28.6501C45.3227 28.3879 45.2219 28.1353 45.0398 27.9467L41.4138 24.3207H65.6668H66.6668C67.0348 24.3207 67.3338 24.0227 67.3338 23.6537V22.9867C67.3338 22.6187 67.0358 22.3197 66.6668 22.3197H65.3338H41.4148L45.0408 18.6937L45.0398 18.6947Z" fill="#58707F"/>
<defs>
<clipPath id="clip0_160_439">
<rect x="65.4248" y="37.2114" width="14.9884" height="14.9884" rx="2" fill="white"/>
</clipPath>
<clipPath id="clip1_160_439">
<rect x="96.4248" y="37.2114" width="14.9884" height="14.9884" rx="2" fill="white"/>
</clipPath>
<clipPath id="clip2_160_439">
<rect x="34.4229" y="37.2114" width="14.9884" height="14.9884" rx="2" fill="white"/>
</clipPath>
<clipPath id="clip3_160_439">
<rect x="7.26953" y="37.2114" width="12.2961" height="14.9884" rx="2" fill="white"/>
</clipPath>
</defs>
</svg>
