<svg width="120" height="90" viewBox="0 0 120 90" fill="none" xmlns="http://www.w3.org/2000/svg">
<rect x="0.5" y="0.5" width="119" height="89" rx="2.5" fill="white" stroke="#8796A1"/>
<rect x="26.4" y="8.20005" width="26.2" height="31.6" rx="1.6" fill="white" stroke="#58707F" stroke-width="0.8"/>
<rect x="32.4795" y="34.8" width="12.3501" height="2.05835" rx="1.02918" fill="#58707F"/>
<path d="M48.6809 30.4419H30.0765C29.53 30.4419 29.0869 30.9027 29.0869 31.4711C29.0869 32.0395 29.53 32.5002 30.0765 32.5002H48.6809C49.2274 32.5002 49.6704 32.0395 49.6704 31.4711C49.6704 30.9027 49.2274 30.4419 48.6809 30.4419Z" fill="#58707F"/>
<path d="M28 8.30005H50.7588C51.5871 8.30016 52.2588 8.97169 52.2588 9.80005V26.8547H26.5V9.80005C26.5 8.97162 27.1716 8.30005 28 8.30005Z" fill="#58707F" stroke="#58707F"/>
<g clip-path="url(#clip0_869_126)">
<path d="M36.2925 10.8875C36.8618 10.8875 37.3217 11.2899 37.3217 11.788V12.6885H41.4384V11.788C41.4384 11.2899 41.8983 10.8875 42.4675 10.8875C43.0368 10.8875 43.4967 11.2899 43.4967 11.788V12.6885H44.5259C45.6612 12.6885 46.5843 13.4962 46.5843 14.4896V22.5943C46.5843 23.5877 45.6612 24.3954 44.5259 24.3954H34.2341C33.0988 24.3954 32.1758 23.5877 32.1758 22.5943V14.4896C32.1758 13.4962 33.0988 12.6885 34.2341 12.6885H35.2633V11.788C35.2633 11.2899 35.7232 10.8875 36.2925 10.8875ZM34.2341 17.6414V18.542C34.2341 18.7896 34.4657 18.9922 34.7487 18.9922H35.7779C36.0609 18.9922 36.2925 18.7896 36.2925 18.542V17.6414C36.2925 17.3938 36.0609 17.1912 35.7779 17.1912H34.7487C34.4657 17.1912 34.2341 17.3938 34.2341 17.6414ZM38.3508 17.6414V18.542C38.3508 18.7896 38.5824 18.9922 38.8654 18.9922H39.8946C40.1776 18.9922 40.4092 18.7896 40.4092 18.542V17.6414C40.4092 17.3938 40.1776 17.1912 39.8946 17.1912H38.8654C38.5824 17.1912 38.3508 17.3938 38.3508 17.6414ZM42.9821 17.1912C42.6991 17.1912 42.4675 17.3938 42.4675 17.6414V18.542C42.4675 18.7896 42.6991 18.9922 42.9821 18.9922H44.0113C44.2943 18.9922 44.5259 18.7896 44.5259 18.542V17.6414C44.5259 17.3938 44.2943 17.1912 44.0113 17.1912H42.9821ZM34.2341 21.2435V22.1441C34.2341 22.3917 34.4657 22.5943 34.7487 22.5943H35.7779C36.0609 22.5943 36.2925 22.3917 36.2925 22.1441V21.2435C36.2925 20.9959 36.0609 20.7933 35.7779 20.7933H34.7487C34.4657 20.7933 34.2341 20.9959 34.2341 21.2435ZM38.8654 20.7933C38.5824 20.7933 38.3508 20.9959 38.3508 21.2435V22.1441C38.3508 22.3917 38.5824 22.5943 38.8654 22.5943H39.8946C40.1776 22.5943 40.4092 22.3917 40.4092 22.1441V21.2435C40.4092 20.9959 40.1776 20.7933 39.8946 20.7933H38.8654ZM42.4675 21.2435V22.1441C42.4675 22.3917 42.6991 22.5943 42.9821 22.5943H44.0113C44.2943 22.5943 44.5259 22.3917 44.5259 22.1441V21.2435C44.5259 20.9959 44.2943 20.7933 44.0113 20.7933H42.9821C42.6991 20.7933 42.4675 20.9959 42.4675 21.2435Z" fill="white"/>
</g>
<rect x="26.4" y="50.4" width="26.2" height="31.6" rx="1.6" fill="white" stroke="#58707F" stroke-width="0.8"/>
<rect x="32.4795" y="77" width="12.3501" height="2.05835" rx="1.02918" fill="#58707F"/>
<path d="M48.6809 72.6418H30.0765C29.53 72.6418 29.0869 73.1026 29.0869 73.671C29.0869 74.2394 29.53 74.7002 30.0765 74.7002H48.6809C49.2274 74.7002 49.6704 74.2394 49.6704 73.671C49.6704 73.1026 49.2274 72.6418 48.6809 72.6418Z" fill="#58707F"/>
<path d="M28 50.5H50.7588C51.5871 50.5001 52.2588 51.1716 52.2588 52V69.0547H26.5V52C26.5 51.1716 27.1716 50.5 28 50.5Z" fill="#58707F" stroke="#58707F"/>
<g clip-path="url(#clip1_869_126)">
<path d="M36.2925 53.0874C36.8618 53.0874 37.3217 53.4898 37.3217 53.9879V54.8885H41.4384V53.9879C41.4384 53.4898 41.8983 53.0874 42.4675 53.0874C43.0368 53.0874 43.4967 53.4898 43.4967 53.9879V54.8885H44.5259C45.6612 54.8885 46.5843 55.6961 46.5843 56.6895V64.7943C46.5843 65.7877 45.6612 66.5953 44.5259 66.5953H34.2341C33.0988 66.5953 32.1758 65.7877 32.1758 64.7943V56.6895C32.1758 55.6961 33.0988 54.8885 34.2341 54.8885H35.2633V53.9879C35.2633 53.4898 35.7232 53.0874 36.2925 53.0874ZM34.2341 59.8414V60.7419C34.2341 60.9895 34.4657 61.1922 34.7487 61.1922H35.7779C36.0609 61.1922 36.2925 60.9895 36.2925 60.7419V59.8414C36.2925 59.5937 36.0609 59.3911 35.7779 59.3911H34.7487C34.4657 59.3911 34.2341 59.5937 34.2341 59.8414ZM38.3508 59.8414V60.7419C38.3508 60.9895 38.5824 61.1922 38.8654 61.1922H39.8946C40.1776 61.1922 40.4092 60.9895 40.4092 60.7419V59.8414C40.4092 59.5937 40.1776 59.3911 39.8946 59.3911H38.8654C38.5824 59.3911 38.3508 59.5937 38.3508 59.8414ZM42.9821 59.3911C42.6991 59.3911 42.4675 59.5937 42.4675 59.8414V60.7419C42.4675 60.9895 42.6991 61.1922 42.9821 61.1922H44.0113C44.2943 61.1922 44.5259 60.9895 44.5259 60.7419V59.8414C44.5259 59.5937 44.2943 59.3911 44.0113 59.3911H42.9821ZM34.2341 63.4435V64.344C34.2341 64.5917 34.4657 64.7943 34.7487 64.7943H35.7779C36.0609 64.7943 36.2925 64.5917 36.2925 64.344V63.4435C36.2925 63.1958 36.0609 62.9932 35.7779 62.9932H34.7487C34.4657 62.9932 34.2341 63.1958 34.2341 63.4435ZM38.8654 62.9932C38.5824 62.9932 38.3508 63.1958 38.3508 63.4435V64.344C38.3508 64.5917 38.5824 64.7943 38.8654 64.7943H39.8946C40.1776 64.7943 40.4092 64.5917 40.4092 64.344V63.4435C40.4092 63.1958 40.1776 62.9932 39.8946 62.9932H38.8654ZM42.4675 63.4435V64.344C42.4675 64.5917 42.6991 64.7943 42.9821 64.7943H44.0113C44.2943 64.7943 44.5259 64.5917 44.5259 64.344V63.4435C44.5259 63.1958 44.2943 62.9932 44.0113 62.9932H42.9821C42.6991 62.9932 42.4675 63.1958 42.4675 63.4435Z" fill="white"/>
</g>
<rect x="68.4" y="30.2" width="26.2" height="31.6" rx="1.6" fill="white" stroke="#58707F" stroke-width="0.8"/>
<rect x="74.4795" y="56.8" width="12.3501" height="2.05835" rx="1.02918" fill="#58707F"/>
<path d="M90.6809 52.4419H72.0765C71.53 52.4419 71.0869 52.9027 71.0869 53.4711C71.0869 54.0395 71.53 54.5002 72.0765 54.5002H90.6809C91.2274 54.5002 91.6704 54.0395 91.6704 53.4711C91.6704 52.9027 91.2274 52.4419 90.6809 52.4419Z" fill="#58707F"/>
<path d="M70 30.3H92.7588C93.5871 30.3002 94.2588 30.9717 94.2588 31.8V48.8547H68.5V31.8C68.5 30.9716 69.1716 30.3 70 30.3Z" fill="#58707F" stroke="#58707F"/>
<g clip-path="url(#clip2_869_126)">
<path d="M78.2925 32.8875C78.8618 32.8875 79.3217 33.2899 79.3217 33.788V34.6885H83.4384V33.788C83.4384 33.2899 83.8983 32.8875 84.4675 32.8875C85.0368 32.8875 85.4967 33.2899 85.4967 33.788V34.6885H86.5259C87.6612 34.6885 88.5843 35.4962 88.5843 36.4896V44.5943C88.5843 45.5877 87.6612 46.3954 86.5259 46.3954H76.2341C75.0988 46.3954 74.1758 45.5877 74.1758 44.5943V36.4896C74.1758 35.4962 75.0988 34.6885 76.2341 34.6885H77.2633V33.788C77.2633 33.2899 77.7232 32.8875 78.2925 32.8875ZM76.2341 39.6414V40.542C76.2341 40.7896 76.4657 40.9922 76.7487 40.9922H77.7779C78.0609 40.9922 78.2925 40.7896 78.2925 40.542V39.6414C78.2925 39.3938 78.0609 39.1912 77.7779 39.1912H76.7487C76.4657 39.1912 76.2341 39.3938 76.2341 39.6414ZM80.3508 39.6414V40.542C80.3508 40.7896 80.5824 40.9922 80.8654 40.9922H81.8946C82.1776 40.9922 82.4092 40.7896 82.4092 40.542V39.6414C82.4092 39.3938 82.1776 39.1912 81.8946 39.1912H80.8654C80.5824 39.1912 80.3508 39.3938 80.3508 39.6414ZM84.9821 39.1912C84.6991 39.1912 84.4675 39.3938 84.4675 39.6414V40.542C84.4675 40.7896 84.6991 40.9922 84.9821 40.9922H86.0113C86.2943 40.9922 86.5259 40.7896 86.5259 40.542V39.6414C86.5259 39.3938 86.2943 39.1912 86.0113 39.1912H84.9821ZM76.2341 43.2435V44.1441C76.2341 44.3917 76.4657 44.5943 76.7487 44.5943H77.7779C78.0609 44.5943 78.2925 44.3917 78.2925 44.1441V43.2435C78.2925 42.9959 78.0609 42.7933 77.7779 42.7933H76.7487C76.4657 42.7933 76.2341 42.9959 76.2341 43.2435ZM80.8654 42.7933C80.5824 42.7933 80.3508 42.9959 80.3508 43.2435V44.1441C80.3508 44.3917 80.5824 44.5943 80.8654 44.5943H81.8946C82.1776 44.5943 82.4092 44.3917 82.4092 44.1441V43.2435C82.4092 42.9959 82.1776 42.7933 81.8946 42.7933H80.8654ZM84.4675 43.2435V44.1441C84.4675 44.3917 84.6991 44.5943 84.9821 44.5943H86.0113C86.2943 44.5943 86.5259 44.3917 86.5259 44.1441V43.2435C86.5259 42.9959 86.2943 42.7933 86.0113 42.7933H84.9821C84.6991 42.7933 84.4675 42.9959 84.4675 43.2435Z" fill="white"/>
</g>
<rect x="59" y="7" width="2" height="76" rx="1" fill="#58707F"/>
<circle cx="60" cy="17" r="2.5" fill="white" stroke="#58707F"/>
<circle cx="60" cy="40" r="2.5" fill="white" stroke="#58707F"/>
<circle cx="60" cy="60" r="2.5" fill="white" stroke="#58707F"/>
<rect x="50" y="16" width="8" height="2" fill="#58707F"/>
<rect x="50" y="59" width="8" height="2" fill="#58707F"/>
<path d="M62 39H66H70V41H62V39Z" fill="#58707F"/>
<defs>
<clipPath id="clip0_869_126">
<rect x="32.1758" y="10.8875" width="14.4085" height="14.4085" rx="2" fill="white"/>
</clipPath>
<clipPath id="clip1_869_126">
<rect x="32.1758" y="53.0874" width="14.4085" height="14.4085" rx="2" fill="white"/>
</clipPath>
<clipPath id="clip2_869_126">
<rect x="74.1758" y="32.8875" width="14.4085" height="14.4085" rx="2" fill="white"/>
</clipPath>
</defs>
</svg>
