<svg width="120" height="90" viewBox="0 0 120 90" fill="none" xmlns="http://www.w3.org/2000/svg">
<rect x="0.5" y="0.5" width="119" height="89" rx="2.5" fill="white" stroke="#8796A1"/>
<rect x="21.4" y="14.4" width="88.2" height="27.2" rx="1.6" fill="white" stroke="#58707F" stroke-width="0.8"/>
<rect x="57" y="25" width="49" height="2" rx="1" fill="#58707F"/>
<rect x="57" y="29" width="42" height="2" rx="1" fill="#58707F"/>
<rect x="57" y="33" width="16" height="2" rx="1" fill="#58707F"/>
<path d="M79.8462 19H58.1538C57.5166 19 57 19.5596 57 20.25C57 20.9404 57.5166 21.5 58.1538 21.5H79.8462C80.4834 21.5 81 20.9404 81 20.25C81 19.5596 80.4834 19 79.8462 19Z" fill="#58707F"/>
<path d="M23 14.4004H52.5996V41.5996H23C22.1163 41.5996 21.4004 40.8837 21.4004 40V16C21.4004 15.1163 22.1163 14.4004 23 14.4004Z" fill="#58707F" stroke="#58707F" stroke-width="0.8"/>
<g clip-path="url(#clip0_870_1147)">
<path d="M34 21C34.5531 21 35 21.391 35 21.875V22.75H39V21.875C39 21.391 39.4469 21 40 21C40.5531 21 41 21.391 41 21.875V22.75H42C43.1031 22.75 44 23.5348 44 24.5V32.375C44 33.3402 43.1031 34.125 42 34.125H32C30.8969 34.125 30 33.3402 30 32.375V24.5C30 23.5348 30.8969 22.75 32 22.75H33V21.875C33 21.391 33.4469 21 34 21ZM32 27.5625V28.4375C32 28.6781 32.225 28.875 32.5 28.875H33.5C33.775 28.875 34 28.6781 34 28.4375V27.5625C34 27.3219 33.775 27.125 33.5 27.125H32.5C32.225 27.125 32 27.3219 32 27.5625ZM36 27.5625V28.4375C36 28.6781 36.225 28.875 36.5 28.875H37.5C37.775 28.875 38 28.6781 38 28.4375V27.5625C38 27.3219 37.775 27.125 37.5 27.125H36.5C36.225 27.125 36 27.3219 36 27.5625ZM40.5 27.125C40.225 27.125 40 27.3219 40 27.5625V28.4375C40 28.6781 40.225 28.875 40.5 28.875H41.5C41.775 28.875 42 28.6781 42 28.4375V27.5625C42 27.3219 41.775 27.125 41.5 27.125H40.5ZM32 31.0625V31.9375C32 32.1781 32.225 32.375 32.5 32.375H33.5C33.775 32.375 34 32.1781 34 31.9375V31.0625C34 30.8219 33.775 30.625 33.5 30.625H32.5C32.225 30.625 32 30.8219 32 31.0625ZM36.5 30.625C36.225 30.625 36 30.8219 36 31.0625V31.9375C36 32.1781 36.225 32.375 36.5 32.375H37.5C37.775 32.375 38 32.1781 38 31.9375V31.0625C38 30.8219 37.775 30.625 37.5 30.625H36.5ZM40 31.0625V31.9375C40 32.1781 40.225 32.375 40.5 32.375H41.5C41.775 32.375 42 32.1781 42 31.9375V31.0625C42 30.8219 41.775 30.625 41.5 30.625H40.5C40.225 30.625 40 30.8219 40 31.0625Z" fill="white"/>
</g>
<rect x="21.4" y="48.4" width="88.2" height="27.2" rx="1.6" fill="white" stroke="#58707F" stroke-width="0.8"/>
<rect x="57" y="59" width="49" height="2" rx="1" fill="#58707F"/>
<rect x="57" y="63" width="42" height="2" rx="1" fill="#58707F"/>
<rect x="57" y="67" width="16" height="2" rx="1" fill="#58707F"/>
<path d="M79.8462 53H58.1538C57.5166 53 57 53.5596 57 54.25C57 54.9404 57.5166 55.5 58.1538 55.5H79.8462C80.4834 55.5 81 54.9404 81 54.25C81 53.5596 80.4834 53 79.8462 53Z" fill="#58707F"/>
<path d="M23 48.4004H52.5996V75.5996H23C22.1163 75.5996 21.4004 74.8837 21.4004 74V50C21.4004 49.1163 22.1163 48.4004 23 48.4004Z" fill="#58707F" stroke="#58707F" stroke-width="0.8"/>
<g clip-path="url(#clip1_870_1147)">
<path d="M34 55C34.5531 55 35 55.391 35 55.875V56.75H39V55.875C39 55.391 39.4469 55 40 55C40.5531 55 41 55.391 41 55.875V56.75H42C43.1031 56.75 44 57.5348 44 58.5V66.375C44 67.3402 43.1031 68.125 42 68.125H32C30.8969 68.125 30 67.3402 30 66.375V58.5C30 57.5348 30.8969 56.75 32 56.75H33V55.875C33 55.391 33.4469 55 34 55ZM32 61.5625V62.4375C32 62.6781 32.225 62.875 32.5 62.875H33.5C33.775 62.875 34 62.6781 34 62.4375V61.5625C34 61.3219 33.775 61.125 33.5 61.125H32.5C32.225 61.125 32 61.3219 32 61.5625ZM36 61.5625V62.4375C36 62.6781 36.225 62.875 36.5 62.875H37.5C37.775 62.875 38 62.6781 38 62.4375V61.5625C38 61.3219 37.775 61.125 37.5 61.125H36.5C36.225 61.125 36 61.3219 36 61.5625ZM40.5 61.125C40.225 61.125 40 61.3219 40 61.5625V62.4375C40 62.6781 40.225 62.875 40.5 62.875H41.5C41.775 62.875 42 62.6781 42 62.4375V61.5625C42 61.3219 41.775 61.125 41.5 61.125H40.5ZM32 65.0625V65.9375C32 66.1781 32.225 66.375 32.5 66.375H33.5C33.775 66.375 34 66.1781 34 65.9375V65.0625C34 64.8219 33.775 64.625 33.5 64.625H32.5C32.225 64.625 32 64.8219 32 65.0625ZM36.5 64.625C36.225 64.625 36 64.8219 36 65.0625V65.9375C36 66.1781 36.225 66.375 36.5 66.375H37.5C37.775 66.375 38 66.1781 38 65.9375V65.0625C38 64.8219 37.775 64.625 37.5 64.625H36.5ZM40 65.0625V65.9375C40 66.1781 40.225 66.375 40.5 66.375H41.5C41.775 66.375 42 66.1781 42 65.9375V65.0625C42 64.8219 41.775 64.625 41.5 64.625H40.5C40.225 64.625 40 64.8219 40 65.0625Z" fill="white"/>
</g>
<rect x="12" y="11" width="2" height="68" rx="1" fill="#58707F"/>
<circle cx="13" cy="23" r="2.5" fill="white" stroke="#58707F"/>
<path d="M15 22H18H21V24H15V22Z" fill="#58707F"/>
<circle cx="13" cy="56.2" r="2.5" fill="white" stroke="#58707F"/>
<path d="M15 55H18H21V57H15V55Z" fill="#58707F"/>
<defs>
<clipPath id="clip0_870_1147">
<rect x="30" y="21" width="14" height="14" rx="2" fill="white"/>
</clipPath>
<clipPath id="clip1_870_1147">
<rect x="30" y="55" width="14" height="14" rx="2" fill="white"/>
</clipPath>
</defs>
</svg>
