<svg width="120" height="90" viewBox="0 0 120 90" fill="none" xmlns="http://www.w3.org/2000/svg">
<rect x="0.5" y="0.5" width="119" height="89" rx="2.5" fill="white" stroke="#8796A1"/>
<rect x="59" y="7" width="2" height="76" rx="1" fill="#58707F"/>
<rect x="26.4" y="8.20005" width="26.2" height="31.6" rx="1.6" fill="white" stroke="#58707F" stroke-width="0.8"/>
<rect x="32.4795" y="34.8" width="12.3501" height="2.05835" rx="1.02918" fill="#58707F"/>
<path d="M48.6809 30.4419H30.0765C29.53 30.4419 29.0869 30.9027 29.0869 31.4711C29.0869 32.0395 29.53 32.5002 30.0765 32.5002H48.6809C49.2274 32.5002 49.6704 32.0395 49.6704 31.4711C49.6704 30.9027 49.2274 30.4419 48.6809 30.4419Z" fill="#58707F"/>
<path d="M28 8.30005H50.7588C51.5871 8.30016 52.2588 8.97169 52.2588 9.80005V26.8547H26.5V9.80005C26.5 8.97162 27.1716 8.30005 28 8.30005Z" fill="#58707F" stroke="#58707F"/>
<g clip-path="url(#clip0_869_1001)">
<path d="M36.2925 10.8875C36.8618 10.8875 37.3217 11.2899 37.3217 11.788V12.6885H41.4384V11.788C41.4384 11.2899 41.8983 10.8875 42.4675 10.8875C43.0368 10.8875 43.4967 11.2899 43.4967 11.788V12.6885H44.5259C45.6612 12.6885 46.5843 13.4962 46.5843 14.4896V22.5943C46.5843 23.5877 45.6612 24.3954 44.5259 24.3954H34.2341C33.0988 24.3954 32.1758 23.5877 32.1758 22.5943V14.4896C32.1758 13.4962 33.0988 12.6885 34.2341 12.6885H35.2633V11.788C35.2633 11.2899 35.7232 10.8875 36.2925 10.8875ZM34.2341 17.6414V18.542C34.2341 18.7896 34.4657 18.9922 34.7487 18.9922H35.7779C36.0609 18.9922 36.2925 18.7896 36.2925 18.542V17.6414C36.2925 17.3938 36.0609 17.1912 35.7779 17.1912H34.7487C34.4657 17.1912 34.2341 17.3938 34.2341 17.6414ZM38.3508 17.6414V18.542C38.3508 18.7896 38.5824 18.9922 38.8654 18.9922H39.8946C40.1776 18.9922 40.4092 18.7896 40.4092 18.542V17.6414C40.4092 17.3938 40.1776 17.1912 39.8946 17.1912H38.8654C38.5824 17.1912 38.3508 17.3938 38.3508 17.6414ZM42.9821 17.1912C42.6991 17.1912 42.4675 17.3938 42.4675 17.6414V18.542C42.4675 18.7896 42.6991 18.9922 42.9821 18.9922H44.0113C44.2943 18.9922 44.5259 18.7896 44.5259 18.542V17.6414C44.5259 17.3938 44.2943 17.1912 44.0113 17.1912H42.9821ZM34.2341 21.2435V22.1441C34.2341 22.3917 34.4657 22.5943 34.7487 22.5943H35.7779C36.0609 22.5943 36.2925 22.3917 36.2925 22.1441V21.2435C36.2925 20.9959 36.0609 20.7933 35.7779 20.7933H34.7487C34.4657 20.7933 34.2341 20.9959 34.2341 21.2435ZM38.8654 20.7933C38.5824 20.7933 38.3508 20.9959 38.3508 21.2435V22.1441C38.3508 22.3917 38.5824 22.5943 38.8654 22.5943H39.8946C40.1776 22.5943 40.4092 22.3917 40.4092 22.1441V21.2435C40.4092 20.9959 40.1776 20.7933 39.8946 20.7933H38.8654ZM42.4675 21.2435V22.1441C42.4675 22.3917 42.6991 22.5943 42.9821 22.5943H44.0113C44.2943 22.5943 44.5259 22.3917 44.5259 22.1441V21.2435C44.5259 20.9959 44.2943 20.7933 44.0113 20.7933H42.9821C42.6991 20.7933 42.4675 20.9959 42.4675 21.2435Z" fill="white"/>
</g>
<rect x="26.4" y="44.4" width="26.2" height="31.6" rx="1.6" fill="white" stroke="#58707F" stroke-width="0.8"/>
<rect x="32.4795" y="71" width="12.3501" height="2.05835" rx="1.02918" fill="#58707F"/>
<path d="M48.6809 66.6418H30.0765C29.53 66.6418 29.0869 67.1026 29.0869 67.671C29.0869 68.2394 29.53 68.7002 30.0765 68.7002H48.6809C49.2274 68.7002 49.6704 68.2394 49.6704 67.671C49.6704 67.1026 49.2274 66.6418 48.6809 66.6418Z" fill="#58707F"/>
<path d="M28 44.5H50.7588C51.5871 44.5001 52.2588 45.1716 52.2588 46V63.0547H26.5V46C26.5 45.1716 27.1716 44.5 28 44.5Z" fill="#58707F" stroke="#58707F"/>
<g clip-path="url(#clip1_869_1001)">
<path d="M36.2925 47.0874C36.8618 47.0874 37.3217 47.4898 37.3217 47.9879V48.8885H41.4384V47.9879C41.4384 47.4898 41.8983 47.0874 42.4675 47.0874C43.0368 47.0874 43.4967 47.4898 43.4967 47.9879V48.8885H44.5259C45.6612 48.8885 46.5843 49.6961 46.5843 50.6895V58.7943C46.5843 59.7877 45.6612 60.5953 44.5259 60.5953H34.2341C33.0988 60.5953 32.1758 59.7877 32.1758 58.7943V50.6895C32.1758 49.6961 33.0988 48.8885 34.2341 48.8885H35.2633V47.9879C35.2633 47.4898 35.7232 47.0874 36.2925 47.0874ZM34.2341 53.8414V54.7419C34.2341 54.9895 34.4657 55.1922 34.7487 55.1922H35.7779C36.0609 55.1922 36.2925 54.9895 36.2925 54.7419V53.8414C36.2925 53.5937 36.0609 53.3911 35.7779 53.3911H34.7487C34.4657 53.3911 34.2341 53.5937 34.2341 53.8414ZM38.3508 53.8414V54.7419C38.3508 54.9895 38.5824 55.1922 38.8654 55.1922H39.8946C40.1776 55.1922 40.4092 54.9895 40.4092 54.7419V53.8414C40.4092 53.5937 40.1776 53.3911 39.8946 53.3911H38.8654C38.5824 53.3911 38.3508 53.5937 38.3508 53.8414ZM42.9821 53.3911C42.6991 53.3911 42.4675 53.5937 42.4675 53.8414V54.7419C42.4675 54.9895 42.6991 55.1922 42.9821 55.1922H44.0113C44.2943 55.1922 44.5259 54.9895 44.5259 54.7419V53.8414C44.5259 53.5937 44.2943 53.3911 44.0113 53.3911H42.9821ZM34.2341 57.4435V58.344C34.2341 58.5917 34.4657 58.7943 34.7487 58.7943H35.7779C36.0609 58.7943 36.2925 58.5917 36.2925 58.344V57.4435C36.2925 57.1958 36.0609 56.9932 35.7779 56.9932H34.7487C34.4657 56.9932 34.2341 57.1958 34.2341 57.4435ZM38.8654 56.9932C38.5824 56.9932 38.3508 57.1958 38.3508 57.4435V58.344C38.3508 58.5917 38.5824 58.7943 38.8654 58.7943H39.8946C40.1776 58.7943 40.4092 58.5917 40.4092 58.344V57.4435C40.4092 57.1958 40.1776 56.9932 39.8946 56.9932H38.8654ZM42.4675 57.4435V58.344C42.4675 58.5917 42.6991 58.7943 42.9821 58.7943H44.0113C44.2943 58.7943 44.5259 58.5917 44.5259 58.344V57.4435C44.5259 57.1958 44.2943 56.9932 44.0113 56.9932H42.9821C42.6991 56.9932 42.4675 57.1958 42.4675 57.4435Z" fill="white"/>
</g>
<circle cx="60" cy="51" r="2.5" fill="white" stroke="#58707F"/>
<rect x="50" y="50" width="8" height="2" fill="#58707F"/>
<rect x="68.4" y="14.2" width="26.2" height="31.6" rx="1.6" fill="white" stroke="#58707F" stroke-width="0.8"/>
<rect x="74.4795" y="40.8" width="12.3501" height="2.05835" rx="1.02918" fill="#58707F"/>
<path d="M90.6809 36.4419H72.0765C71.53 36.4419 71.0869 36.9027 71.0869 37.4711C71.0869 38.0395 71.53 38.5002 72.0765 38.5002H90.6809C91.2274 38.5002 91.6704 38.0395 91.6704 37.4711C91.6704 36.9027 91.2274 36.4419 90.6809 36.4419Z" fill="#58707F"/>
<path d="M70 14.3H92.7588C93.5871 14.3002 94.2588 14.9717 94.2588 15.8V32.8547H68.5V15.8C68.5 14.9716 69.1716 14.3 70 14.3Z" fill="#58707F" stroke="#58707F"/>
<g clip-path="url(#clip2_869_1001)">
<path d="M78.2925 16.8875C78.8618 16.8875 79.3217 17.2899 79.3217 17.788V18.6885H83.4384V17.788C83.4384 17.2899 83.8983 16.8875 84.4675 16.8875C85.0368 16.8875 85.4967 17.2899 85.4967 17.788V18.6885H86.5259C87.6612 18.6885 88.5843 19.4962 88.5843 20.4896V28.5943C88.5843 29.5877 87.6612 30.3954 86.5259 30.3954H76.2341C75.0988 30.3954 74.1758 29.5877 74.1758 28.5943V20.4896C74.1758 19.4962 75.0988 18.6885 76.2341 18.6885H77.2633V17.788C77.2633 17.2899 77.7232 16.8875 78.2925 16.8875ZM76.2341 23.6414V24.542C76.2341 24.7896 76.4657 24.9922 76.7487 24.9922H77.7779C78.0609 24.9922 78.2925 24.7896 78.2925 24.542V23.6414C78.2925 23.3938 78.0609 23.1912 77.7779 23.1912H76.7487C76.4657 23.1912 76.2341 23.3938 76.2341 23.6414ZM80.3508 23.6414V24.542C80.3508 24.7896 80.5824 24.9922 80.8654 24.9922H81.8946C82.1776 24.9922 82.4092 24.7896 82.4092 24.542V23.6414C82.4092 23.3938 82.1776 23.1912 81.8946 23.1912H80.8654C80.5824 23.1912 80.3508 23.3938 80.3508 23.6414ZM84.9821 23.1912C84.6991 23.1912 84.4675 23.3938 84.4675 23.6414V24.542C84.4675 24.7896 84.6991 24.9922 84.9821 24.9922H86.0113C86.2943 24.9922 86.5259 24.7896 86.5259 24.542V23.6414C86.5259 23.3938 86.2943 23.1912 86.0113 23.1912H84.9821ZM76.2341 27.2435V28.1441C76.2341 28.3917 76.4657 28.5943 76.7487 28.5943H77.7779C78.0609 28.5943 78.2925 28.3917 78.2925 28.1441V27.2435C78.2925 26.9959 78.0609 26.7933 77.7779 26.7933H76.7487C76.4657 26.7933 76.2341 26.9959 76.2341 27.2435ZM80.8654 26.7933C80.5824 26.7933 80.3508 26.9959 80.3508 27.2435V28.1441C80.3508 28.3917 80.5824 28.5943 80.8654 28.5943H81.8946C82.1776 28.5943 82.4092 28.3917 82.4092 28.1441V27.2435C82.4092 26.9959 82.1776 26.7933 81.8946 26.7933H80.8654ZM84.4675 27.2435V28.1441C84.4675 28.3917 84.6991 28.5943 84.9821 28.5943H86.0113C86.2943 28.5943 86.5259 28.3917 86.5259 28.1441V27.2435C86.5259 26.9959 86.2943 26.7933 86.0113 26.7933H84.9821C84.6991 26.7933 84.4675 26.9959 84.4675 27.2435Z" fill="white"/>
</g>
<circle cx="60" cy="24" r="2.5" fill="white" stroke="#58707F"/>
<path d="M62 23H66H70V25H62V23Z" fill="#58707F"/>
<rect x="68.4" y="50.4" width="26.2" height="31.6" rx="1.6" fill="white" stroke="#58707F" stroke-width="0.8"/>
<rect x="74.4795" y="77" width="12.3501" height="2.05835" rx="1.02918" fill="#58707F"/>
<path d="M90.6809 72.6418H72.0765C71.53 72.6418 71.0869 73.1026 71.0869 73.671C71.0869 74.2394 71.53 74.7002 72.0765 74.7002H90.6809C91.2274 74.7002 91.6704 74.2394 91.6704 73.671C91.6704 73.1026 91.2274 72.6418 90.6809 72.6418Z" fill="#58707F"/>
<path d="M70 50.5H92.7588C93.5871 50.5001 94.2588 51.1716 94.2588 52V69.0547H68.5V52C68.5 51.1716 69.1716 50.5 70 50.5Z" fill="#58707F" stroke="#58707F"/>
<g clip-path="url(#clip3_869_1001)">
<path d="M78.2925 53.0874C78.8618 53.0874 79.3217 53.4898 79.3217 53.9879V54.8885H83.4384V53.9879C83.4384 53.4898 83.8983 53.0874 84.4675 53.0874C85.0368 53.0874 85.4967 53.4898 85.4967 53.9879V54.8885H86.5259C87.6612 54.8885 88.5843 55.6961 88.5843 56.6895V64.7943C88.5843 65.7877 87.6612 66.5953 86.5259 66.5953H76.2341C75.0988 66.5953 74.1758 65.7877 74.1758 64.7943V56.6895C74.1758 55.6961 75.0988 54.8885 76.2341 54.8885H77.2633V53.9879C77.2633 53.4898 77.7232 53.0874 78.2925 53.0874ZM76.2341 59.8414V60.7419C76.2341 60.9895 76.4657 61.1922 76.7487 61.1922H77.7779C78.0609 61.1922 78.2925 60.9895 78.2925 60.7419V59.8414C78.2925 59.5937 78.0609 59.3911 77.7779 59.3911H76.7487C76.4657 59.3911 76.2341 59.5937 76.2341 59.8414ZM80.3508 59.8414V60.7419C80.3508 60.9895 80.5824 61.1922 80.8654 61.1922H81.8946C82.1776 61.1922 82.4092 60.9895 82.4092 60.7419V59.8414C82.4092 59.5937 82.1776 59.3911 81.8946 59.3911H80.8654C80.5824 59.3911 80.3508 59.5937 80.3508 59.8414ZM84.9821 59.3911C84.6991 59.3911 84.4675 59.5937 84.4675 59.8414V60.7419C84.4675 60.9895 84.6991 61.1922 84.9821 61.1922H86.0113C86.2943 61.1922 86.5259 60.9895 86.5259 60.7419V59.8414C86.5259 59.5937 86.2943 59.3911 86.0113 59.3911H84.9821ZM76.2341 63.4435V64.344C76.2341 64.5917 76.4657 64.7943 76.7487 64.7943H77.7779C78.0609 64.7943 78.2925 64.5917 78.2925 64.344V63.4435C78.2925 63.1958 78.0609 62.9932 77.7779 62.9932H76.7487C76.4657 62.9932 76.2341 63.1958 76.2341 63.4435ZM80.8654 62.9932C80.5824 62.9932 80.3508 63.1958 80.3508 63.4435V64.344C80.3508 64.5917 80.5824 64.7943 80.8654 64.7943H81.8946C82.1776 64.7943 82.4092 64.5917 82.4092 64.344V63.4435C82.4092 63.1958 82.1776 62.9932 81.8946 62.9932H80.8654ZM84.4675 63.4435V64.344C84.4675 64.5917 84.6991 64.7943 84.9821 64.7943H86.0113C86.2943 64.7943 86.5259 64.5917 86.5259 64.344V63.4435C86.5259 63.1958 86.2943 62.9932 86.0113 62.9932H84.9821C84.6991 62.9932 84.4675 63.1958 84.4675 63.4435Z" fill="white"/>
</g>
<circle cx="60" cy="60.2" r="2.5" fill="white" stroke="#58707F"/>
<path d="M62 59.2H66H70V61.2H62V59.2Z" fill="#58707F"/>
<path d="M60 12.5C61.3807 12.5 62.5 13.6193 62.5 15C62.5 16.3807 61.3807 17.5 60 17.5C58.6193 17.5 57.5 16.3807 57.5 15C57.5 13.6193 58.6193 12.5 60 12.5Z" fill="white" stroke="#58707F"/>
<rect x="50" y="14" width="8" height="2" fill="#58707F"/>
<defs>
<clipPath id="clip0_869_1001">
<rect x="32.1758" y="10.8875" width="14.4085" height="14.4085" rx="2" fill="white"/>
</clipPath>
<clipPath id="clip1_869_1001">
<rect x="32.1758" y="47.0874" width="14.4085" height="14.4085" rx="2" fill="white"/>
</clipPath>
<clipPath id="clip2_869_1001">
<rect x="74.1758" y="16.8875" width="14.4085" height="14.4085" rx="2" fill="white"/>
</clipPath>
<clipPath id="clip3_869_1001">
<rect x="74.1758" y="53.0874" width="14.4085" height="14.4085" rx="2" fill="white"/>
</clipPath>
</defs>
</svg>
