<svg width="120" height="90" viewBox="0 0 120 90" fill="none" xmlns="http://www.w3.org/2000/svg">
<rect x="0.5" y="0.5" width="119" height="89" rx="2.5" fill="white" stroke="#8796A1"/>
<rect x="10.4" y="14.4" width="88.2" height="27.2" rx="1.6" fill="white" stroke="#58707F" stroke-width="0.8"/>
<rect x="46" y="25" width="49" height="2" rx="1" fill="#58707F"/>
<rect x="46" y="29" width="42" height="2" rx="1" fill="#58707F"/>
<rect x="46" y="33" width="16" height="2" rx="1" fill="#58707F"/>
<path d="M68.8462 19H47.1538C46.5166 19 46 19.5596 46 20.25C46 20.9404 46.5166 21.5 47.1538 21.5H68.8462C69.4834 21.5 70 20.9404 70 20.25C70 19.5596 69.4834 19 68.8462 19Z" fill="#58707F"/>
<path d="M12 14.4004H41.5996V41.5996H12C11.1163 41.5996 10.4004 40.8837 10.4004 40V16C10.4004 15.1163 11.1163 14.4004 12 14.4004Z" fill="#58707F" stroke="#58707F" stroke-width="0.8"/>
<g clip-path="url(#clip0_870_1169)">
<path d="M23 21C23.5531 21 24 21.391 24 21.875V22.75H28V21.875C28 21.391 28.4469 21 29 21C29.5531 21 30 21.391 30 21.875V22.75H31C32.1031 22.75 33 23.5348 33 24.5V32.375C33 33.3402 32.1031 34.125 31 34.125H21C19.8969 34.125 19 33.3402 19 32.375V24.5C19 23.5348 19.8969 22.75 21 22.75H22V21.875C22 21.391 22.4469 21 23 21ZM21 27.5625V28.4375C21 28.6781 21.225 28.875 21.5 28.875H22.5C22.775 28.875 23 28.6781 23 28.4375V27.5625C23 27.3219 22.775 27.125 22.5 27.125H21.5C21.225 27.125 21 27.3219 21 27.5625ZM25 27.5625V28.4375C25 28.6781 25.225 28.875 25.5 28.875H26.5C26.775 28.875 27 28.6781 27 28.4375V27.5625C27 27.3219 26.775 27.125 26.5 27.125H25.5C25.225 27.125 25 27.3219 25 27.5625ZM29.5 27.125C29.225 27.125 29 27.3219 29 27.5625V28.4375C29 28.6781 29.225 28.875 29.5 28.875H30.5C30.775 28.875 31 28.6781 31 28.4375V27.5625C31 27.3219 30.775 27.125 30.5 27.125H29.5ZM21 31.0625V31.9375C21 32.1781 21.225 32.375 21.5 32.375H22.5C22.775 32.375 23 32.1781 23 31.9375V31.0625C23 30.8219 22.775 30.625 22.5 30.625H21.5C21.225 30.625 21 30.8219 21 31.0625ZM25.5 30.625C25.225 30.625 25 30.8219 25 31.0625V31.9375C25 32.1781 25.225 32.375 25.5 32.375H26.5C26.775 32.375 27 32.1781 27 31.9375V31.0625C27 30.8219 26.775 30.625 26.5 30.625H25.5ZM29 31.0625V31.9375C29 32.1781 29.225 32.375 29.5 32.375H30.5C30.775 32.375 31 32.1781 31 31.9375V31.0625C31 30.8219 30.775 30.625 30.5 30.625H29.5C29.225 30.625 29 30.8219 29 31.0625Z" fill="white"/>
</g>
<rect x="10.4" y="48.4" width="88.2" height="27.2" rx="1.6" fill="white" stroke="#58707F" stroke-width="0.8"/>
<rect x="46" y="59" width="49" height="2" rx="1" fill="#58707F"/>
<rect x="46" y="63" width="42" height="2" rx="1" fill="#58707F"/>
<rect x="46" y="67" width="16" height="2" rx="1" fill="#58707F"/>
<path d="M68.8462 53H47.1538C46.5166 53 46 53.5596 46 54.25C46 54.9404 46.5166 55.5 47.1538 55.5H68.8462C69.4834 55.5 70 54.9404 70 54.25C70 53.5596 69.4834 53 68.8462 53Z" fill="#58707F"/>
<path d="M12 48.4004H41.5996V75.5996H12C11.1163 75.5996 10.4004 74.8837 10.4004 74V50C10.4004 49.1163 11.1163 48.4004 12 48.4004Z" fill="#58707F" stroke="#58707F" stroke-width="0.8"/>
<g clip-path="url(#clip1_870_1169)">
<path d="M23 55C23.5531 55 24 55.391 24 55.875V56.75H28V55.875C28 55.391 28.4469 55 29 55C29.5531 55 30 55.391 30 55.875V56.75H31C32.1031 56.75 33 57.5348 33 58.5V66.375C33 67.3402 32.1031 68.125 31 68.125H21C19.8969 68.125 19 67.3402 19 66.375V58.5C19 57.5348 19.8969 56.75 21 56.75H22V55.875C22 55.391 22.4469 55 23 55ZM21 61.5625V62.4375C21 62.6781 21.225 62.875 21.5 62.875H22.5C22.775 62.875 23 62.6781 23 62.4375V61.5625C23 61.3219 22.775 61.125 22.5 61.125H21.5C21.225 61.125 21 61.3219 21 61.5625ZM25 61.5625V62.4375C25 62.6781 25.225 62.875 25.5 62.875H26.5C26.775 62.875 27 62.6781 27 62.4375V61.5625C27 61.3219 26.775 61.125 26.5 61.125H25.5C25.225 61.125 25 61.3219 25 61.5625ZM29.5 61.125C29.225 61.125 29 61.3219 29 61.5625V62.4375C29 62.6781 29.225 62.875 29.5 62.875H30.5C30.775 62.875 31 62.6781 31 62.4375V61.5625C31 61.3219 30.775 61.125 30.5 61.125H29.5ZM21 65.0625V65.9375C21 66.1781 21.225 66.375 21.5 66.375H22.5C22.775 66.375 23 66.1781 23 65.9375V65.0625C23 64.8219 22.775 64.625 22.5 64.625H21.5C21.225 64.625 21 64.8219 21 65.0625ZM25.5 64.625C25.225 64.625 25 64.8219 25 65.0625V65.9375C25 66.1781 25.225 66.375 25.5 66.375H26.5C26.775 66.375 27 66.1781 27 65.9375V65.0625C27 64.8219 26.775 64.625 26.5 64.625H25.5ZM29 65.0625V65.9375C29 66.1781 29.225 66.375 29.5 66.375H30.5C30.775 66.375 31 66.1781 31 65.9375V65.0625C31 64.8219 30.775 64.625 30.5 64.625H29.5C29.225 64.625 29 64.8219 29 65.0625Z" fill="white"/>
</g>
<rect x="106" y="11" width="2" height="68" rx="1" fill="#58707F"/>
<circle cx="107" cy="23" r="2.5" fill="white" stroke="#58707F"/>
<path d="M99 22H102H105V24H99V22Z" fill="#58707F"/>
<circle cx="107" cy="56.2" r="2.5" fill="white" stroke="#58707F"/>
<path d="M99 55H102H105V57H99V55Z" fill="#58707F"/>
<defs>
<clipPath id="clip0_870_1169">
<rect x="19" y="21" width="14" height="14" rx="2" fill="white"/>
</clipPath>
<clipPath id="clip1_870_1169">
<rect x="19" y="55" width="14" height="14" rx="2" fill="white"/>
</clipPath>
</defs>
</svg>
