<svg width="120" height="90" viewBox="0 0 120 90" fill="none" xmlns="http://www.w3.org/2000/svg">
<rect x="0.5" y="0.5" width="119" height="89" rx="2.5" fill="white" stroke="#8796A1"/>
<rect x="59" y="7" width="2" height="76" rx="1" fill="#58707F"/>
<rect x="26.4" y="10.2" width="26.2" height="31.6" rx="1.6" fill="white" stroke="#58707F" stroke-width="0.8"/>
<rect x="32.4795" y="36.8" width="12.3501" height="2.05835" rx="1.02918" fill="#58707F"/>
<path d="M48.6809 32.4419H30.0765C29.53 32.4419 29.0869 32.9027 29.0869 33.4711C29.0869 34.0395 29.53 34.5002 30.0765 34.5002H48.6809C49.2274 34.5002 49.6704 34.0395 49.6704 33.4711C49.6704 32.9027 49.2274 32.4419 48.6809 32.4419Z" fill="#58707F"/>
<path d="M28 10.3H50.7588C51.5871 10.3002 52.2588 10.9717 52.2588 11.8V28.8547H26.5V11.8C26.5 10.9716 27.1716 10.3 28 10.3Z" fill="#58707F" stroke="#58707F"/>
<g clip-path="url(#clip0_869_1050)">
<path d="M36.2925 12.8875C36.8618 12.8875 37.3217 13.2899 37.3217 13.788V14.6885H41.4384V13.788C41.4384 13.2899 41.8983 12.8875 42.4675 12.8875C43.0368 12.8875 43.4967 13.2899 43.4967 13.788V14.6885H44.5259C45.6612 14.6885 46.5843 15.4962 46.5843 16.4896V24.5943C46.5843 25.5877 45.6612 26.3954 44.5259 26.3954H34.2341C33.0988 26.3954 32.1758 25.5877 32.1758 24.5943V16.4896C32.1758 15.4962 33.0988 14.6885 34.2341 14.6885H35.2633V13.788C35.2633 13.2899 35.7232 12.8875 36.2925 12.8875ZM34.2341 19.6414V20.542C34.2341 20.7896 34.4657 20.9922 34.7487 20.9922H35.7779C36.0609 20.9922 36.2925 20.7896 36.2925 20.542V19.6414C36.2925 19.3938 36.0609 19.1912 35.7779 19.1912H34.7487C34.4657 19.1912 34.2341 19.3938 34.2341 19.6414ZM38.3508 19.6414V20.542C38.3508 20.7896 38.5824 20.9922 38.8654 20.9922H39.8946C40.1776 20.9922 40.4092 20.7896 40.4092 20.542V19.6414C40.4092 19.3938 40.1776 19.1912 39.8946 19.1912H38.8654C38.5824 19.1912 38.3508 19.3938 38.3508 19.6414ZM42.9821 19.1912C42.6991 19.1912 42.4675 19.3938 42.4675 19.6414V20.542C42.4675 20.7896 42.6991 20.9922 42.9821 20.9922H44.0113C44.2943 20.9922 44.5259 20.7896 44.5259 20.542V19.6414C44.5259 19.3938 44.2943 19.1912 44.0113 19.1912H42.9821ZM34.2341 23.2435V24.1441C34.2341 24.3917 34.4657 24.5943 34.7487 24.5943H35.7779C36.0609 24.5943 36.2925 24.3917 36.2925 24.1441V23.2435C36.2925 22.9959 36.0609 22.7933 35.7779 22.7933H34.7487C34.4657 22.7933 34.2341 22.9959 34.2341 23.2435ZM38.8654 22.7933C38.5824 22.7933 38.3508 22.9959 38.3508 23.2435V24.1441C38.3508 24.3917 38.5824 24.5943 38.8654 24.5943H39.8946C40.1776 24.5943 40.4092 24.3917 40.4092 24.1441V23.2435C40.4092 22.9959 40.1776 22.7933 39.8946 22.7933H38.8654ZM42.4675 23.2435V24.1441C42.4675 24.3917 42.6991 24.5943 42.9821 24.5943H44.0113C44.2943 24.5943 44.5259 24.3917 44.5259 24.1441V23.2435C44.5259 22.9959 44.2943 22.7933 44.0113 22.7933H42.9821C42.6991 22.7933 42.4675 22.9959 42.4675 23.2435Z" fill="white"/>
</g>
<rect x="26.4" y="48.4" width="26.2" height="31.6" rx="1.6" fill="white" stroke="#58707F" stroke-width="0.8"/>
<rect x="32.4795" y="75" width="12.3501" height="2.05835" rx="1.02918" fill="#58707F"/>
<path d="M48.6809 70.6418H30.0765C29.53 70.6418 29.0869 71.1026 29.0869 71.671C29.0869 72.2394 29.53 72.7002 30.0765 72.7002H48.6809C49.2274 72.7002 49.6704 72.2394 49.6704 71.671C49.6704 71.1026 49.2274 70.6418 48.6809 70.6418Z" fill="#58707F"/>
<path d="M28 48.5H50.7588C51.5871 48.5001 52.2588 49.1716 52.2588 50V67.0547H26.5V50C26.5 49.1716 27.1716 48.5 28 48.5Z" fill="#58707F" stroke="#58707F"/>
<g clip-path="url(#clip1_869_1050)">
<path d="M36.2925 51.0874C36.8618 51.0874 37.3217 51.4898 37.3217 51.9879V52.8885H41.4384V51.9879C41.4384 51.4898 41.8983 51.0874 42.4675 51.0874C43.0368 51.0874 43.4967 51.4898 43.4967 51.9879V52.8885H44.5259C45.6612 52.8885 46.5843 53.6961 46.5843 54.6895V62.7943C46.5843 63.7877 45.6612 64.5953 44.5259 64.5953H34.2341C33.0988 64.5953 32.1758 63.7877 32.1758 62.7943V54.6895C32.1758 53.6961 33.0988 52.8885 34.2341 52.8885H35.2633V51.9879C35.2633 51.4898 35.7232 51.0874 36.2925 51.0874ZM34.2341 57.8414V58.7419C34.2341 58.9895 34.4657 59.1922 34.7487 59.1922H35.7779C36.0609 59.1922 36.2925 58.9895 36.2925 58.7419V57.8414C36.2925 57.5937 36.0609 57.3911 35.7779 57.3911H34.7487C34.4657 57.3911 34.2341 57.5937 34.2341 57.8414ZM38.3508 57.8414V58.7419C38.3508 58.9895 38.5824 59.1922 38.8654 59.1922H39.8946C40.1776 59.1922 40.4092 58.9895 40.4092 58.7419V57.8414C40.4092 57.5937 40.1776 57.3911 39.8946 57.3911H38.8654C38.5824 57.3911 38.3508 57.5937 38.3508 57.8414ZM42.9821 57.3911C42.6991 57.3911 42.4675 57.5937 42.4675 57.8414V58.7419C42.4675 58.9895 42.6991 59.1922 42.9821 59.1922H44.0113C44.2943 59.1922 44.5259 58.9895 44.5259 58.7419V57.8414C44.5259 57.5937 44.2943 57.3911 44.0113 57.3911H42.9821ZM34.2341 61.4435V62.344C34.2341 62.5917 34.4657 62.7943 34.7487 62.7943H35.7779C36.0609 62.7943 36.2925 62.5917 36.2925 62.344V61.4435C36.2925 61.1958 36.0609 60.9932 35.7779 60.9932H34.7487C34.4657 60.9932 34.2341 61.1958 34.2341 61.4435ZM38.8654 60.9932C38.5824 60.9932 38.3508 61.1958 38.3508 61.4435V62.344C38.3508 62.5917 38.5824 62.7943 38.8654 62.7943H39.8946C40.1776 62.7943 40.4092 62.5917 40.4092 62.344V61.4435C40.4092 61.1958 40.1776 60.9932 39.8946 60.9932H38.8654ZM42.4675 61.4435V62.344C42.4675 62.5917 42.6991 62.7943 42.9821 62.7943H44.0113C44.2943 62.7943 44.5259 62.5917 44.5259 62.344V61.4435C44.5259 61.1958 44.2943 60.9932 44.0113 60.9932H42.9821C42.6991 60.9932 42.4675 61.1958 42.4675 61.4435Z" fill="white"/>
</g>
<circle cx="60" cy="56" r="2.5" fill="white" stroke="#58707F"/>
<rect x="50" y="55" width="8" height="2" fill="#58707F"/>
<rect x="68.4" y="10.2" width="26.2" height="31.6" rx="1.6" fill="white" stroke="#58707F" stroke-width="0.8"/>
<rect x="74.4795" y="36.8" width="12.3501" height="2.05835" rx="1.02918" fill="#58707F"/>
<path d="M90.6809 32.4419H72.0765C71.53 32.4419 71.0869 32.9027 71.0869 33.4711C71.0869 34.0395 71.53 34.5002 72.0765 34.5002H90.6809C91.2274 34.5002 91.6704 34.0395 91.6704 33.4711C91.6704 32.9027 91.2274 32.4419 90.6809 32.4419Z" fill="#58707F"/>
<path d="M70 10.3H92.7588C93.5871 10.3002 94.2588 10.9717 94.2588 11.8V28.8547H68.5V11.8C68.5 10.9716 69.1716 10.3 70 10.3Z" fill="#58707F" stroke="#58707F"/>
<g clip-path="url(#clip2_869_1050)">
<path d="M78.2925 12.8875C78.8618 12.8875 79.3217 13.2899 79.3217 13.788V14.6885H83.4384V13.788C83.4384 13.2899 83.8983 12.8875 84.4675 12.8875C85.0368 12.8875 85.4967 13.2899 85.4967 13.788V14.6885H86.5259C87.6612 14.6885 88.5843 15.4962 88.5843 16.4896V24.5943C88.5843 25.5877 87.6612 26.3954 86.5259 26.3954H76.2341C75.0988 26.3954 74.1758 25.5877 74.1758 24.5943V16.4896C74.1758 15.4962 75.0988 14.6885 76.2341 14.6885H77.2633V13.788C77.2633 13.2899 77.7232 12.8875 78.2925 12.8875ZM76.2341 19.6414V20.542C76.2341 20.7896 76.4657 20.9922 76.7487 20.9922H77.7779C78.0609 20.9922 78.2925 20.7896 78.2925 20.542V19.6414C78.2925 19.3938 78.0609 19.1912 77.7779 19.1912H76.7487C76.4657 19.1912 76.2341 19.3938 76.2341 19.6414ZM80.3508 19.6414V20.542C80.3508 20.7896 80.5824 20.9922 80.8654 20.9922H81.8946C82.1776 20.9922 82.4092 20.7896 82.4092 20.542V19.6414C82.4092 19.3938 82.1776 19.1912 81.8946 19.1912H80.8654C80.5824 19.1912 80.3508 19.3938 80.3508 19.6414ZM84.9821 19.1912C84.6991 19.1912 84.4675 19.3938 84.4675 19.6414V20.542C84.4675 20.7896 84.6991 20.9922 84.9821 20.9922H86.0113C86.2943 20.9922 86.5259 20.7896 86.5259 20.542V19.6414C86.5259 19.3938 86.2943 19.1912 86.0113 19.1912H84.9821ZM76.2341 23.2435V24.1441C76.2341 24.3917 76.4657 24.5943 76.7487 24.5943H77.7779C78.0609 24.5943 78.2925 24.3917 78.2925 24.1441V23.2435C78.2925 22.9959 78.0609 22.7933 77.7779 22.7933H76.7487C76.4657 22.7933 76.2341 22.9959 76.2341 23.2435ZM80.8654 22.7933C80.5824 22.7933 80.3508 22.9959 80.3508 23.2435V24.1441C80.3508 24.3917 80.5824 24.5943 80.8654 24.5943H81.8946C82.1776 24.5943 82.4092 24.3917 82.4092 24.1441V23.2435C82.4092 22.9959 82.1776 22.7933 81.8946 22.7933H80.8654ZM84.4675 23.2435V24.1441C84.4675 24.3917 84.6991 24.5943 84.9821 24.5943H86.0113C86.2943 24.5943 86.5259 24.3917 86.5259 24.1441V23.2435C86.5259 22.9959 86.2943 22.7933 86.0113 22.7933H84.9821C84.6991 22.7933 84.4675 22.9959 84.4675 23.2435Z" fill="white"/>
</g>
<circle cx="60" cy="36" r="2.5" fill="white" stroke="#58707F"/>
<path d="M62 35H65H68V37H62V35Z" fill="#58707F"/>
<rect x="68.4" y="48.4" width="26.2" height="31.6" rx="1.6" fill="white" stroke="#58707F" stroke-width="0.8"/>
<rect x="74.4795" y="75" width="12.3501" height="2.05835" rx="1.02918" fill="#58707F"/>
<path d="M90.6809 70.6418H72.0765C71.53 70.6418 71.0869 71.1026 71.0869 71.671C71.0869 72.2394 71.53 72.7002 72.0765 72.7002H90.6809C91.2274 72.7002 91.6704 72.2394 91.6704 71.671C91.6704 71.1026 91.2274 70.6418 90.6809 70.6418Z" fill="#58707F"/>
<path d="M70 48.5H92.7588C93.5871 48.5001 94.2588 49.1716 94.2588 50V67.0547H68.5V50C68.5 49.1716 69.1716 48.5 70 48.5Z" fill="#58707F" stroke="#58707F"/>
<g clip-path="url(#clip3_869_1050)">
<path d="M78.2925 51.0874C78.8618 51.0874 79.3217 51.4898 79.3217 51.9879V52.8885H83.4384V51.9879C83.4384 51.4898 83.8983 51.0874 84.4675 51.0874C85.0368 51.0874 85.4967 51.4898 85.4967 51.9879V52.8885H86.5259C87.6612 52.8885 88.5843 53.6961 88.5843 54.6895V62.7943C88.5843 63.7877 87.6612 64.5953 86.5259 64.5953H76.2341C75.0988 64.5953 74.1758 63.7877 74.1758 62.7943V54.6895C74.1758 53.6961 75.0988 52.8885 76.2341 52.8885H77.2633V51.9879C77.2633 51.4898 77.7232 51.0874 78.2925 51.0874ZM76.2341 57.8414V58.7419C76.2341 58.9895 76.4657 59.1922 76.7487 59.1922H77.7779C78.0609 59.1922 78.2925 58.9895 78.2925 58.7419V57.8414C78.2925 57.5937 78.0609 57.3911 77.7779 57.3911H76.7487C76.4657 57.3911 76.2341 57.5937 76.2341 57.8414ZM80.3508 57.8414V58.7419C80.3508 58.9895 80.5824 59.1922 80.8654 59.1922H81.8946C82.1776 59.1922 82.4092 58.9895 82.4092 58.7419V57.8414C82.4092 57.5937 82.1776 57.3911 81.8946 57.3911H80.8654C80.5824 57.3911 80.3508 57.5937 80.3508 57.8414ZM84.9821 57.3911C84.6991 57.3911 84.4675 57.5937 84.4675 57.8414V58.7419C84.4675 58.9895 84.6991 59.1922 84.9821 59.1922H86.0113C86.2943 59.1922 86.5259 58.9895 86.5259 58.7419V57.8414C86.5259 57.5937 86.2943 57.3911 86.0113 57.3911H84.9821ZM76.2341 61.4435V62.344C76.2341 62.5917 76.4657 62.7943 76.7487 62.7943H77.7779C78.0609 62.7943 78.2925 62.5917 78.2925 62.344V61.4435C78.2925 61.1958 78.0609 60.9932 77.7779 60.9932H76.7487C76.4657 60.9932 76.2341 61.1958 76.2341 61.4435ZM80.8654 60.9932C80.5824 60.9932 80.3508 61.1958 80.3508 61.4435V62.344C80.3508 62.5917 80.5824 62.7943 80.8654 62.7943H81.8946C82.1776 62.7943 82.4092 62.5917 82.4092 62.344V61.4435C82.4092 61.1958 82.1776 60.9932 81.8946 60.9932H80.8654ZM84.4675 61.4435V62.344C84.4675 62.5917 84.6991 62.7943 84.9821 62.7943H86.0113C86.2943 62.7943 86.5259 62.5917 86.5259 62.344V61.4435C86.5259 61.1958 86.2943 60.9932 86.0113 60.9932H84.9821C84.6991 60.9932 84.4675 61.1958 84.4675 61.4435Z" fill="white"/>
</g>
<circle cx="60" cy="74.2" r="2.5" fill="white" stroke="#58707F"/>
<path d="M62 73H65H68V75H62V73Z" fill="#58707F"/>
<path d="M60 14.5C61.3807 14.5 62.5 15.6193 62.5 17C62.5 18.3807 61.3807 19.5 60 19.5C58.6193 19.5 57.5 18.3807 57.5 17C57.5 15.6193 58.6193 14.5 60 14.5Z" fill="white" stroke="#58707F"/>
<rect x="50" y="16" width="8" height="2" fill="#58707F"/>
<defs>
<clipPath id="clip0_869_1050">
<rect x="32.1758" y="12.8875" width="14.4085" height="14.4085" rx="2" fill="white"/>
</clipPath>
<clipPath id="clip1_869_1050">
<rect x="32.1758" y="51.0874" width="14.4085" height="14.4085" rx="2" fill="white"/>
</clipPath>
<clipPath id="clip2_869_1050">
<rect x="74.1758" y="12.8875" width="14.4085" height="14.4085" rx="2" fill="white"/>
</clipPath>
<clipPath id="clip3_869_1050">
<rect x="74.1758" y="51.0874" width="14.4085" height="14.4085" rx="2" fill="white"/>
</clipPath>
</defs>
</svg>
